<svg width="205" height="315" viewBox="0 0 205 315" fill="none" xmlns="http://www.w3.org/2000/svg">
<g clip-path="url(#clip0_58_1848)">
<path d="M182.106 36.7038C182.947 20.5166 196.405 9.0585 206.004 10.9838C209.452 11.6754 211.807 14.9091 211.611 18.4231C218.92 23.0213 221.228 41.9562 215.826 43.1525C216.901 57.7883 198.826 62.4052 191.302 51.7788C183.77 41.1525 182.106 36.6945 182.106 36.6945V36.7038Z" fill="#182039"/>
<path d="M167.386 6.30137C152.021 7.79672 137.077 -2.23148 125.983 0.53492C114.889 3.31067 114.245 22.0867 120.861 17.395C121.076 29.984 126.834 33.4046 126.834 33.4046L167.386 6.30137Z" fill="#182039"/>
<path d="M184.676 94.4431C209.433 99.9945 229.92 112.798 235.471 115.78C249.126 125.173 252.546 187.912 249.985 241.268C247.425 294.624 228.649 315.11 228.649 315.11H57.0664C57.0664 315.11 73.7022 224.193 73.7022 222.492C73.7022 220.791 68.1507 167.435 75.4125 154.201C82.665 140.967 117.666 102.985 127.909 99.9945C138.152 97.0038 144.984 95.3029 153.096 96.1534C161.208 97.0038 184.685 94.4431 184.685 94.4431H184.676Z" fill="#008666"/>
<path d="M177.209 129.014C147.545 200.295 150.956 240.417 150.956 240.417C150.956 240.417 125.769 235.296 124.918 234.015C119.367 167.005 135.161 129.014 135.161 129.014H177.199H177.209Z" fill="white"/>
<path d="M169.928 72.667C187.144 75.667 197.162 59.6481 192.153 47.0404C193.555 21.2082 182.545 -4.22213 143.9 9.60053C124.675 12.0024 117.273 37.4328 133.087 44.0403C154.115 62.6575 169.928 72.6763 169.928 72.6763V72.667Z" fill="#182039"/>
<path d="M193.106 99.2469C193.106 98.6487 184.396 96.6954 181.246 91.1346C178.097 85.5738 176.592 71.4614 177.788 52.5452C170.433 54.4985 167.881 48.6386 167.723 38.5823C167.573 28.5168 162.769 12.4511 143.246 15.0025C135.89 24.012 131.984 29.7224 132.582 41.4328C133.18 53.1433 131.881 61.4519 133.283 67.0594C134.666 72.6016 140.694 82.8728 154.507 82.5737C155.713 89.7794 150.928 96.7702 143.965 97.1908C136.002 116.63 135.152 129.014 135.152 129.014H177.19C185.087 110.238 193.097 99.2469 193.097 99.2469H193.106Z" fill="#FF8762"/>
<path d="M151.386 60.321C151.834 63.5079 154.909 65.7042 158.255 65.2276C161.601 64.7509 163.947 61.7883 163.489 58.6013C163.031 55.4143 159.965 53.218 156.619 53.6947C153.274 54.1713 150.928 57.134 151.386 60.321Z" fill="#FF7557"/>
<path d="M165.423 39.414C165.554 39.414 165.685 39.3486 165.76 39.2177C165.862 39.0308 165.741 38.8626 165.619 38.6943C162.255 33.984 155.199 30.3204 152.199 36.3579C152.105 36.5448 151.881 36.6382 151.946 36.8345C152.012 37.0401 152.227 37.1523 152.423 37.0868C154.432 36.47 160.255 36.5074 165.236 39.3579C165.292 39.3953 165.358 39.4046 165.423 39.4046V39.414Z" fill="#182039"/>
<path d="M134.086 39.8066C134.198 39.8066 134.32 39.7505 134.395 39.6571C134.46 39.573 136.012 37.5916 140.946 38.2085C141.161 38.2365 141.348 38.087 141.376 37.872C141.404 37.6664 141.133 37.6384 141.04 37.4421C138.32 31.4887 133.965 38.9468 133.778 39.1991C133.647 39.3674 133.684 39.6104 133.853 39.7319C133.918 39.7879 134.002 39.8066 134.086 39.8066Z" fill="#182039"/>
<path d="M143.002 60.2369C143.114 60.2369 143.227 60.1901 143.301 60.0967C143.432 59.9285 143.404 59.6855 143.236 59.5546C141.245 57.9752 139.04 56.0312 138.554 55.3583C138.89 55.2835 139.628 55.2742 140.198 55.2648C141.582 55.2368 143.152 55.2088 144.086 54.6854C146.142 53.5265 144.161 44.8534 142.348 40.7786C142.264 40.5823 142.04 40.4982 141.843 40.5823C141.647 40.6665 141.563 40.8908 141.647 41.087C143.75 45.8254 144.946 53.3115 143.712 54.0125C142.955 54.4424 141.423 54.4704 140.189 54.4891C138.647 54.5172 137.712 54.5358 137.712 55.2461C137.712 55.9564 140.46 58.321 142.759 60.1528C142.834 60.2088 142.918 60.2369 143.002 60.2369Z" fill="#182039"/>
<path d="M154.667 47.3582C154.667 49.6386 155.704 51.4891 156.994 51.4891C158.283 51.4891 159.321 49.6386 159.321 47.3582C159.321 45.0778 158.283 43.2273 156.994 43.2273C155.704 43.2273 154.667 45.0778 154.667 47.3582Z" fill="#182039"/>
<g style="mix-blend-mode:multiply">
<path d="M157.517 52.8909C158.311 52.8909 160.077 52.5451 160.657 49.6198C160.675 49.517 160.61 49.4142 160.507 49.3955C160.404 49.3768 160.302 49.4422 160.283 49.5451C159.722 52.3862 158.04 52.5544 157.33 52.4984C157.227 52.489 157.133 52.5638 157.124 52.6759C157.124 52.7788 157.189 52.8722 157.302 52.8816C157.358 52.8816 157.432 52.8816 157.526 52.8816L157.517 52.8909Z" fill="#E0B3A8"/>
</g>
<path d="M137.04 47.8628C137.04 50.1432 138.077 51.9937 139.367 51.9937C140.656 51.9937 141.694 50.1432 141.694 47.8628C141.694 45.5824 140.647 43.7319 139.367 43.7319C138.086 43.7319 137.04 45.5824 137.04 47.8628Z" fill="#182039"/>
<g style="mix-blend-mode:multiply">
<path d="M139.899 53.3957C140.694 53.3957 142.46 53.0499 143.04 50.1246C143.058 50.0218 142.993 49.919 142.89 49.9003C142.787 49.8816 142.684 49.947 142.666 50.0498C142.105 52.891 140.423 53.0592 139.712 53.0031C139.61 52.9938 139.516 53.0686 139.507 53.1807C139.507 53.2835 139.572 53.377 139.684 53.3863C139.74 53.3863 139.815 53.3863 139.909 53.3863L139.899 53.3957Z" fill="#E0B3A8"/>
</g>
<g style="mix-blend-mode:multiply">
<path d="M153.778 64.6481C147.021 62.6014 139.619 63.1061 138.946 65.2743C142.647 67.3117 150.834 65.8725 153.778 64.6481Z" fill="#E0B3A8"/>
</g>
<g style="mix-blend-mode:multiply">
<path d="M146.189 73.5081C147.535 73.5081 148.946 73.2651 150.021 72.5642C150.18 72.4614 150.227 72.2464 150.124 72.0782C150.021 71.9193 149.806 71.8726 149.638 71.9754C147.161 73.5923 142.675 72.424 142.217 72.0876C142.068 71.9754 141.843 72.0035 141.731 72.153C141.619 72.3025 141.638 72.5175 141.787 72.6296C142.171 72.938 144.114 73.5081 146.189 73.5081Z" fill="#E0B3A8"/>
</g>
<g style="mix-blend-mode:multiply">
<path d="M139.189 65.8537C142.161 73.4987 147.423 72.5922 153.713 64.9752C147.629 66.3491 143.19 67.1154 139.189 65.8537Z" fill="#E0B3A8"/>
</g>
<path d="M144.46 66.6481C147.862 66.6481 151.862 66.1714 154.311 64.9752C154.489 64.891 154.554 64.6854 154.47 64.5079C154.386 64.3303 154.18 64.2649 154.003 64.349C149.872 66.3677 140.741 66.2556 138.937 65.2649C138.769 65.1714 138.554 65.2368 138.46 65.4051C138.367 65.5733 138.432 65.7883 138.6 65.8817C139.46 66.3584 141.769 66.6481 144.451 66.6481H144.46Z" fill="#182039"/>
<path d="M175.592 55.7882C176.059 58.377 178.545 60.0967 181.134 59.6294C183.723 59.1621 185.442 56.6761 184.975 54.0873C184.508 51.4984 182.022 49.7788 179.433 50.2461C176.844 50.7134 175.124 53.1994 175.592 55.7882Z" fill="#FF7A52"/>
<g style="mix-blend-mode:multiply">
<path d="M176.937 55.5453C177.133 56.6294 177.844 57.5453 178.844 58.0126C178.881 58.0313 178.928 58.0313 178.965 58.0313C179.031 58.0219 179.087 57.9845 179.115 57.9191C179.161 57.8163 179.115 57.6948 179.021 57.6481C178.199 57.2649 177.601 56.5266 177.386 55.6574C177.834 56.2742 178.601 56.62 179.395 56.4705C180.498 56.2742 181.236 55.2088 181.031 54.106C180.834 53.0032 179.769 52.2648 178.666 52.4704C178.619 52.4704 178.582 52.4985 178.545 52.5078C178.89 52.2555 179.302 52.0686 179.75 51.9938C180.657 51.8256 181.582 52.0873 182.274 52.6947C182.358 52.7695 182.479 52.7602 182.554 52.6761C182.629 52.5919 182.619 52.4704 182.535 52.3957C181.75 51.7041 180.704 51.4143 179.676 51.6013C177.834 51.9377 176.601 53.7135 176.937 55.5546V55.5453ZM177.414 54.7695C177.255 53.8817 177.844 53.0312 178.732 52.8723C179.619 52.7134 180.47 53.3022 180.629 54.1901C180.788 55.078 180.199 55.9284 179.311 56.0873C178.423 56.2462 177.573 55.6574 177.414 54.7695Z" fill="#E0B3A8"/>
</g>
<path d="M155.526 82.1343C167.087 79.1062 172.106 68.4892 172.489 67.0687C165.19 92.1812 156.47 99.8542 155.526 82.1343Z" fill="#FF7557"/>
<path d="M135.161 129.014C135.161 129.014 136.012 116.64 143.974 97.1908C141.778 113.855 140.068 122.397 150.956 125.808C160.049 128.659 172.274 128.986 176.04 129.014H135.161Z" fill="#FF7557"/>
<path d="M160.563 173.612H194.499V154.621H160.563V173.612Z" fill="#00B388"/>
<path d="M179.34 148.435H175.499V159.958H179.34V148.435Z" fill="#005A44"/>
<path d="M199.611 152.182C199.835 152.182 200.05 152.042 200.125 151.809C203.555 141.519 210.788 127.042 233.91 120.145C234.2 120.06 234.359 119.752 234.275 119.462C234.191 119.173 233.882 119.014 233.593 119.098C209.985 126.135 202.592 140.939 199.087 151.463C198.994 151.753 199.143 152.061 199.433 152.154C199.489 152.173 199.545 152.182 199.601 152.182H199.611Z" fill="#005A44"/>
<path d="M186.293 250.39C186.405 250.39 186.526 250.361 186.639 250.305C188.48 249.399 189.984 235.529 192.891 202.707C193.349 197.538 193.779 192.66 194.181 188.389C194.209 188.089 193.984 187.818 193.685 187.79C193.386 187.762 193.115 187.987 193.087 188.286C192.685 192.566 192.255 197.445 191.798 202.604C190.237 220.249 187.9 246.735 186.218 249.221C181.564 247.24 125.367 233.95 118.843 232.408C118.553 232.343 118.254 232.52 118.189 232.81C118.123 233.1 118.301 233.399 118.591 233.464C144.703 239.632 184.171 249.184 185.863 250.249C185.994 250.333 186.134 250.371 186.283 250.371L186.293 250.39Z" fill="#005A44"/>
<path d="M193.854 264.651C193.994 264.651 194.134 264.595 194.237 264.493C194.433 264.296 194.452 263.997 194.293 263.782C194.209 263.642 193.489 262.343 189.667 252.595C189.555 252.315 189.237 252.175 188.956 252.287C188.676 252.399 188.536 252.717 188.648 252.997C190.256 257.1 193.022 264.053 193.461 264.493C193.564 264.595 193.704 264.651 193.844 264.651H193.854Z" fill="#005A44"/>
<path d="M186.377 261.016C186.667 261.016 186.901 260.791 186.919 260.502C186.919 260.464 187.144 257.072 187.975 253.109C188.041 252.81 187.844 252.53 187.555 252.464C187.256 252.399 186.975 252.595 186.91 252.885C186.059 256.932 185.835 260.399 185.835 260.436C185.816 260.735 186.041 260.997 186.349 261.016C186.358 261.016 186.368 261.016 186.386 261.016H186.377Z" fill="#005A44"/>
<path d="M93.4782 183.482C93.6277 183.482 93.7772 183.416 93.8894 183.295C94.095 183.061 114.516 159.696 115.366 124.902C115.366 124.602 115.133 124.35 114.834 124.341C114.535 124.341 114.282 124.574 114.273 124.873C113.432 159.276 93.2726 182.342 93.0669 182.575C92.8707 182.8 92.8894 183.145 93.1137 183.342C93.2165 183.435 93.3473 183.482 93.4782 183.482Z" fill="#005A44"/>
<path d="M22.0563 284.381H108.843L90.0575 147.79H3.271L22.0563 284.381Z" fill="#E5A810"/>
<path d="M18.776 284.381H105.572L86.7865 147.79H0L18.776 284.381Z" fill="#FFC72C"/>
<path d="M20.1124 140.322H68.1693H74.1694L75.2815 147.762H69.2627L69.8141 151.491H15.7478L14.1123 140.322H20.1124Z" fill="#E5A810"/>
<path d="M13.5608 151.491H67.6271L65.9916 140.322H11.9253L13.5608 151.491Z" fill="#FFE9AB"/>
<path d="M117.376 233.763C112.983 230.595 114.039 218.464 110.17 214.071C106.301 209.679 101.207 194.557 100.497 191.211C99.7867 187.865 97.1605 187.875 96.983 194.024C96.8054 200.174 99.4409 210.725 98.2166 210.903C96.983 211.08 68.1507 193.501 64.9824 193.847C61.8142 194.202 84.6744 213.183 81.1603 213.183C77.6462 213.183 62.8703 198.417 60.945 199.295C59.0104 200.174 61.4684 204.744 61.4684 205.277C61.2908 211.426 74.3004 224.969 71.319 223.389C68.3283 221.81 65.5152 217.585 64.9918 218.997C64.4684 220.408 84.8613 241.857 91.7212 245.371C98.5811 248.885 108.778 258.558 108.778 258.558C121.61 251.175 117.395 233.763 117.395 233.763H117.376Z" fill="#FF8762"/>
<path d="M62.4307 205.632C70.0756 214.249 75.9729 217.94 75.9729 217.94C69.4682 217.763 62.4307 205.632 62.4307 205.632Z" fill="#FF7557"/>
<path d="M190.228 314.428C190.62 314.428 190.975 314.138 191.031 313.736C191.097 313.288 190.798 312.877 190.349 312.802C174.04 310.297 139.068 289.68 110.993 260.754C110.675 260.427 110.161 260.418 109.834 260.735C109.507 261.053 109.497 261.567 109.815 261.894C138.124 291.063 173.526 311.867 190.097 314.419C190.144 314.419 190.181 314.428 190.218 314.428H190.228Z" fill="#005A44"/>
<path d="M139.647 14.6194C141.142 24.0121 144.769 25.0775 149.255 18.4606C153.741 28.0682 162.059 26.3579 162.059 26.3579C170.806 38.5263 178.489 37.6665 178.274 35.5356C178.059 33.4047 163.76 9.4978 163.76 9.4978L139.647 14.6194Z" fill="#182039"/>
</g>
<defs>
<clipPath id="clip0_58_1848">
<rect width="205" height="315" fill="white"/>
</clipPath>
</defs>
</svg>
