<svg width="227" height="328" viewBox="0 0 227 328" fill="none" xmlns="http://www.w3.org/2000/svg">
<g clip-path="url(#clip0_58_1839)">
<path d="M242.197 317.93H161.852L138.173 280.767H218.518L242.197 317.93Z" fill="#4D243C"/>
<path d="M234.01 317.93H153.665L129.994 280.767H210.339L234.01 317.93Z" fill="#73365A"/>
<path d="M288.728 284.252H44.0135C38.4784 284.252 34.2729 279.279 35.2083 273.835L62.7295 114.211C63.951 107.118 70.12 101.929 77.3405 101.929H322.055C327.59 101.929 331.796 106.902 330.86 112.345L303.339 271.969C302.117 279.063 295.948 284.252 288.728 284.252Z" fill="#4D243C"/>
<path d="M279.799 284.252H35.0848C29.5497 284.252 25.3442 279.279 26.2796 273.835L53.8008 114.211C55.0222 107.118 61.1913 101.929 68.4118 101.929H313.126C318.661 101.929 322.867 106.902 321.931 112.345L294.41 271.969C293.189 279.063 287.02 284.252 279.799 284.252Z" fill="#73365A"/>
<path d="M35.0846 279.803C33.7472 279.803 32.5335 279.24 31.6676 278.215C30.8018 277.189 30.4539 275.902 30.6781 274.591L58.1993 114.967C59.0574 109.994 63.3557 106.378 68.4115 106.378H313.126C314.463 106.378 315.677 106.94 316.543 107.966C317.409 108.991 317.757 110.279 317.532 111.59L290.011 271.214C289.153 276.187 284.855 279.803 279.799 279.803H35.0846Z" fill="#994878"/>
<path d="M38.4629 256.241L62.6058 115.722C63.0928 112.893 65.5434 110.834 68.4192 110.834H313.134L288.991 251.352C288.504 254.182 286.053 256.241 283.177 256.241H38.4629Z" fill="white"/>
<path d="M113.922 314.445H244.772C251.938 314.445 257.751 320.243 257.751 327.39V327.992H100.942V327.39C100.942 320.243 106.756 314.445 113.922 314.445Z" fill="#4D243C"/>
<path d="M100.548 65.4518C100.548 44.0637 82.6666 26.8469 60.9976 27.8569C41.6941 28.759 26.0395 44.3567 25.1195 63.6091C24.5552 75.3825 29.4178 86.0303 37.4268 93.301C45.2193 100.364 49.6721 100.649 49.6721 111.15V122.9H75.941V111.15C75.941 100.68 80.3243 100.387 88.109 93.3704C95.7392 86.4852 100.54 76.5314 100.54 65.4595L100.548 65.4518Z" fill="#FFC72C"/>
<path d="M68.6124 117.527C67.9862 117.527 67.4528 117.048 67.3986 116.416C66.2777 103.633 65.7675 101.906 65.8525 92.106C65.0485 92.2679 64.2213 92.3527 63.3555 92.3527H62.2655C61.4074 92.3527 60.5725 92.2679 59.7685 92.106C59.8535 101.898 59.351 103.633 58.2223 116.416C58.1682 117.048 57.6348 117.527 57.0086 117.527C56.97 117.527 56.939 117.527 56.9004 117.527C56.2278 117.465 55.7331 116.879 55.7949 116.208C57.0086 102.407 57.457 100.687 57.3488 91.3581C49.1311 87.8423 44.5854 75.8452 43.9129 66.9245C43.3872 59.9237 45.0879 55.4363 48.4662 54.9274C48.7136 54.8889 48.961 54.8735 49.2006 54.8735C50.4994 54.8735 51.744 55.3978 52.8418 56.4232C57.0318 60.3477 59.3819 72.1135 59.7298 89.6156C60.5415 89.8238 61.3842 89.9317 62.2577 89.9317H63.3478C64.2291 89.9317 65.0717 89.8238 65.8757 89.6156C66.2236 72.1135 68.5737 60.3477 72.7637 56.4232C73.8538 55.3978 75.0984 54.8735 76.4049 54.8735C76.6523 54.8735 76.8919 54.8889 77.1393 54.9274C80.5176 55.4363 82.2183 59.9237 81.6927 66.9245C81.0201 75.8452 76.4745 87.8423 68.2567 91.3581C68.1485 100.687 68.5969 102.407 69.8106 116.208C69.8725 116.879 69.37 117.465 68.7051 117.527C68.6665 117.527 68.6356 117.527 68.5969 117.527H68.6124ZM76.4203 57.3022C75.74 57.3022 75.0907 57.5952 74.4567 58.1889C71.3877 61.0571 68.7592 70.5406 68.3263 88.6441C74.9747 85.0512 78.6854 74.5807 79.2807 66.7318C79.675 61.4734 78.6545 57.6029 76.7991 57.3253C76.6754 57.3099 76.5518 57.2945 76.4281 57.2945L76.4203 57.3022ZM49.2161 57.3022C49.0924 57.3022 48.9687 57.3099 48.845 57.333C46.9819 57.6106 45.9615 61.4811 46.3635 66.7395C46.9587 74.5884 50.6695 85.0589 57.3178 88.6518C56.8849 70.5483 54.2565 61.0648 51.1874 58.1966C50.5535 57.6029 49.9041 57.3099 49.2238 57.3099L49.2161 57.3022Z" fill="#73365A"/>
<g style="mix-blend-mode:screen">
<path d="M36.94 83.1544C35.3243 83.1544 33.8477 82.0827 33.4071 80.4481C29.7969 67.0324 31.544 54.673 38.3238 45.6366C39.0427 44.6806 40.1405 44.1717 41.2537 44.1717C42.0191 44.1717 42.7921 44.4107 43.4492 44.9042C45.0649 46.1147 45.3974 48.4046 44.1836 50.016C38.6949 57.3176 37.4116 67.1789 40.4729 78.5437C40.9986 80.4944 39.839 82.4991 37.8831 83.0156C37.5662 83.1005 37.2415 83.139 36.9323 83.139L36.94 83.1544Z" fill="#353E45"/>
</g>
<g style="mix-blend-mode:screen">
<path d="M49.4868 44.0869C48.2499 44.0869 47.0362 43.4624 46.3482 42.3213C45.3045 40.5942 45.8534 38.3505 47.5851 37.3019C49.0926 36.3921 50.6928 35.5903 52.3472 34.9118C52.8033 34.7267 53.2749 34.6342 53.7387 34.6342C55.1766 34.6342 56.5449 35.49 57.1247 36.901C57.8901 38.7669 57.0011 40.9026 55.1302 41.6659C53.8237 42.1979 52.5636 42.8302 51.3809 43.5472C50.7856 43.9019 50.1362 44.0715 49.4868 44.0715V44.0869Z" fill="#353E45"/>
</g>
<path d="M75.887 113.132H49.0229C47.6694 113.132 46.5723 114.226 46.5723 115.576V115.691C46.5723 117.041 47.6694 118.136 49.0229 118.136H75.887C77.2404 118.136 78.3376 117.041 78.3376 115.691V115.576C78.3376 114.226 77.2404 113.132 75.887 113.132Z" fill="#73365A"/>
<path d="M75.887 117.997H49.0229C47.6694 117.997 46.5723 119.091 46.5723 120.441V120.557C46.5723 121.906 47.6694 123.001 49.0229 123.001H75.887C77.2404 123.001 78.3376 121.906 78.3376 120.557V120.441C78.3376 119.091 77.2404 117.997 75.887 117.997Z" fill="#D6B6C9"/>
<path d="M75.887 122.87H49.0229C47.6694 122.87 46.5723 123.964 46.5723 125.314V125.429C46.5723 126.779 47.6694 127.874 49.0229 127.874H75.887C77.2404 127.874 78.3376 126.779 78.3376 125.429V125.314C78.3376 123.964 77.2404 122.87 75.887 122.87Z" fill="#73365A"/>
<path d="M62.8838 0H62.7446C61.0624 0 59.6987 1.36008 59.6987 3.03782V17.3788C59.6987 19.0565 61.0624 20.4166 62.7446 20.4166H62.8838C64.566 20.4166 65.9297 19.0565 65.9297 17.3788V3.03782C65.9297 1.36008 64.566 0 62.8838 0Z" fill="#FFC72C"/>
<path d="M88.675 23.5999L96.7344 11.7233C97.6746 10.3377 99.5683 9.96808 100.964 10.9102L101.079 10.988C102.469 11.9257 102.839 13.8144 101.895 15.2064L93.8352 27.083C92.8949 28.4686 91.0012 28.8382 89.6055 27.8961L89.4902 27.8183C88.101 26.8806 87.7304 24.9919 88.675 23.5999Z" fill="#FFC72C"/>
<path d="M109.987 46.6148L123.526 41.7829C125.105 41.2191 126.852 42.037 127.42 43.6195L127.467 43.7502C128.032 45.3255 127.205 47.0702 125.625 47.6339L112.087 52.4658C110.507 53.0296 108.761 52.2117 108.193 50.6292L108.146 50.4985C107.581 48.9232 108.401 47.1811 109.987 46.6148Z" fill="#FFC72C"/>
<path d="M26.3551 11.3833L26.2381 11.4584C24.8238 12.3668 24.4156 14.2466 25.3263 15.6572L33.1114 27.7145C34.0221 29.125 35.907 29.5321 37.3213 28.6238L37.4383 28.5487C38.8526 27.6403 39.2608 25.7604 38.35 24.3499L30.565 12.2926C29.6542 10.8821 27.7694 10.4749 26.3551 11.3833Z" fill="#FFC72C"/>
<path d="M1.48326 41.5213L1.42742 41.6484C0.752338 43.1851 1.45414 44.9767 2.99494 45.6499L16.1653 51.4051C17.7061 52.0784 19.5024 51.3784 20.1775 49.8417L20.2334 49.7146C20.9084 48.1779 20.2066 46.3863 18.6658 45.713L5.49546 39.9579C3.95466 39.2846 2.15834 39.9845 1.48326 41.5213Z" fill="#FFC72C"/>
<path d="M107.096 256.241H144.86C149.707 250.905 159.718 239.833 160.584 238.538C161.728 236.826 173.749 199.139 173.749 190.573C173.749 182.007 154.74 126.632 154.74 126.632C128.216 140.403 110.536 236.14 107.088 256.248L107.096 256.241Z" fill="#4D243C"/>
<path d="M159.3 63.5089C148.137 102.908 154.747 126.624 154.747 126.624L245.181 136.316C248.188 89.631 237.025 16.3996 206.535 21.1105C175.187 48.0962 161.442 62.229 161.442 62.229L159.293 63.5166L159.3 63.5089Z" fill="#182039"/>
<path d="M227.246 125.16C227.246 125.16 198.163 127.442 174.043 123.718L154.747 126.625C152.305 152.993 128.309 181.39 127.087 195.993C125.866 210.596 144.984 232.501 152.714 246.294C154.662 249.764 156.116 253.141 157.206 256.241H244.284C249.626 228.399 260.31 172.685 258.462 155.838C256.019 133.525 227.246 125.16 227.246 125.16Z" fill="#73365A"/>
<path d="M200.822 94.9125C220.597 98.3512 232.1 80.001 226.349 65.5521C227.957 35.9681 215.309 6.83895 170.928 22.6603C148.849 25.4128 140.345 54.5419 158.512 62.1056C182.655 83.432 200.822 94.9048 200.822 94.9048V94.9125Z" fill="#182039"/>
<path d="M183.111 106.262C184.487 114.52 185.577 122.615 172.776 124.011C159.208 145.36 165.068 163.171 171.206 165.052C187.124 169.925 227.555 129.331 227.431 125.36C227.431 124.674 217.428 122.438 213.802 116.069C210.176 109.708 208.453 93.5324 209.836 71.8591C201.387 74.095 198.457 67.3872 198.279 55.8604C198.109 44.3337 192.589 25.9294 170.163 28.8516C161.713 39.1756 157.229 45.7061 157.917 59.1295C158.605 72.553 157.113 82.0674 158.721 88.4899C160.314 94.8431 167.233 106.609 183.096 106.262H183.111Z" fill="#FF8762"/>
<path d="M214.173 83.2933C217.977 83.2933 221.061 80.2176 221.061 76.4235C221.061 72.6294 217.977 69.5537 214.173 69.5537C210.369 69.5537 207.285 72.6294 207.285 76.4235C207.285 80.2176 210.369 83.2933 214.173 83.2933Z" fill="#FF8762"/>
<g style="mix-blend-mode:multiply">
<path d="M212.704 79.9933C212.534 79.9933 212.364 79.893 212.295 79.7234C212.194 79.4998 212.295 79.2299 212.526 79.1374C213.114 78.883 213.446 78.5129 213.485 78.0657C213.524 77.6108 213.245 77.1019 212.789 76.8012C212.295 76.4697 211.699 76.4466 211.158 76.7318C211.019 76.8089 210.841 76.8012 210.71 76.7164C210.571 76.6316 210.493 76.4774 210.501 76.3155C210.578 74.6809 211.684 73.3471 213.392 72.8228C215.163 72.2831 216.964 72.8074 217.969 74.1721C218.116 74.3725 218.077 74.6501 217.876 74.7966C217.675 74.9431 217.397 74.9045 217.25 74.7041C216.299 73.4319 214.722 73.3548 213.655 73.6786C212.782 73.9485 211.838 74.5961 211.514 75.6678C212.124 75.5599 212.751 75.691 213.284 76.0456C214.018 76.5314 214.451 77.3564 214.382 78.1351C214.343 78.59 214.096 79.4227 212.882 79.947C212.82 79.9701 212.766 79.9855 212.704 79.9855V79.9933Z" fill="#E0B3A8"/>
</g>
<g style="mix-blend-mode:multiply">
<path d="M184.495 106.246C184.534 106.246 184.572 106.246 184.619 106.231C196.037 102.993 205.182 93.4167 207.927 81.8282C207.981 81.5892 207.834 81.3579 207.602 81.2962C207.362 81.2423 207.13 81.3888 207.069 81.6201C204.401 92.9001 195.496 102.229 184.379 105.383C184.147 105.452 184.008 105.691 184.078 105.923C184.132 106.115 184.309 106.239 184.503 106.239L184.495 106.246Z" fill="#E0B3A8"/>
</g>
<path d="M195.65 56.8164C195.805 56.8164 195.952 56.7393 196.037 56.5929C196.16 56.3847 196.083 56.1148 195.874 55.9915C190.131 52.7146 183.281 52.4602 180.467 53.316C180.235 53.3854 180.104 53.6321 180.173 53.8634C180.243 54.0947 180.49 54.2258 180.722 54.1564C183.034 53.4548 189.721 53.4934 195.441 56.7548C195.511 56.7933 195.588 56.8164 195.658 56.8164H195.65Z" fill="#182039"/>
<path d="M159.656 57.2791C159.788 57.2791 159.919 57.2174 160.012 57.1017C160.082 57.0015 161.867 54.7347 167.542 55.4363C167.781 55.4672 168.006 55.2975 168.036 55.0508C168.067 54.8118 167.897 54.5882 167.658 54.5574C161.589 53.8018 159.533 56.2767 159.316 56.562C159.169 56.7548 159.208 57.0323 159.401 57.1788C159.479 57.2405 159.571 57.2636 159.664 57.2636L159.656 57.2791Z" fill="#182039"/>
<path d="M169.892 80.6718C170.023 80.6718 170.147 80.6178 170.24 80.5022C170.394 80.3094 170.363 80.0396 170.17 79.8854C167.89 78.0735 165.346 75.8529 164.797 75.0819C165.184 74.9971 166.034 74.9817 166.684 74.974C168.276 74.9431 170.077 74.9123 171.144 74.3109C173.502 72.9924 171.229 63.054 169.15 58.3816C169.049 58.158 168.794 58.0578 168.57 58.158C168.346 58.2583 168.245 58.5127 168.346 58.7363C170.765 64.1643 172.141 72.7457 170.719 73.5399C169.845 74.0333 168.083 74.0642 166.668 74.0873C164.89 74.1181 163.823 74.1413 163.823 74.9508C163.823 75.7604 166.977 78.4667 169.621 80.5716C169.699 80.6332 169.799 80.6641 169.892 80.6641V80.6718Z" fill="#182039"/>
<path d="M185.964 70.6639C187.441 70.6639 188.639 68.5444 188.639 65.9299C188.639 63.3153 187.441 61.1958 185.964 61.1958C184.487 61.1958 183.289 63.3153 183.289 65.9299C183.289 68.5444 184.487 70.6639 185.964 70.6639Z" fill="#182039"/>
<g style="mix-blend-mode:multiply">
<path d="M186.567 72.2599C187.487 72.2599 189.512 71.8667 190.17 68.5204C190.193 68.4048 190.115 68.2891 189.999 68.266C189.883 68.2429 189.768 68.32 189.744 68.4433C189.103 71.697 187.162 71.8898 186.358 71.8204C186.235 71.805 186.126 71.8975 186.119 72.0209C186.111 72.1442 186.196 72.2445 186.32 72.2599C186.389 72.2599 186.474 72.2676 186.575 72.2676L186.567 72.2599Z" fill="#E0B3A8"/>
</g>
<path d="M163.05 66.5005C163.05 69.1142 164.249 71.2345 165.725 71.2345C167.202 71.2345 168.4 69.1142 168.4 66.5005C168.4 63.8867 167.202 61.7664 165.725 61.7664C164.249 61.7664 163.05 63.8867 163.05 66.5005Z" fill="#182039"/>
<g style="mix-blend-mode:multiply">
<path d="M166.328 72.8382C167.248 72.8382 169.274 72.445 169.931 69.0988C169.954 68.9831 169.877 68.8674 169.753 68.8443C169.637 68.8212 169.521 68.8983 169.498 69.0139C168.856 72.2676 166.916 72.4604 166.112 72.391C165.988 72.3756 165.88 72.4681 165.872 72.5915C165.864 72.7148 165.949 72.8151 166.073 72.8305C166.143 72.8305 166.228 72.8382 166.328 72.8382Z" fill="#E0B3A8"/>
</g>
<path d="M189.566 76.4928C190.618 77.9038 191.313 79.1606 191.128 79.2993C190.942 79.4381 189.93 78.4127 188.878 77.0017C187.827 75.5907 187.131 74.334 187.317 74.1952C187.51 74.0564 188.515 75.0819 189.566 76.4928Z" fill="#FF7E57"/>
<path d="M186.868 76.8398C187.92 78.2507 188.616 79.5075 188.43 79.6463C188.244 79.7851 187.232 78.7596 186.18 77.3486C185.129 75.9377 184.433 74.6809 184.619 74.5421C184.804 74.4033 185.817 75.4288 186.868 76.8398Z" fill="#FF7E57"/>
<path d="M183.877 77.125C184.928 78.536 185.624 79.7928 185.438 79.9315C185.245 80.0703 184.24 79.0449 183.189 77.6339C182.137 76.2229 181.442 74.9662 181.627 74.8274C181.813 74.6886 182.825 75.7141 183.877 77.125Z" fill="#FF7E57"/>
<path d="M209.442 85.8531C209.442 87.6264 210.88 89.0605 212.658 89.0605C214.436 89.0605 215.874 87.6264 215.874 85.8531C215.874 84.0797 214.436 82.6456 212.658 82.6456C210.88 82.6456 209.442 84.0797 209.442 85.8531Z" fill="white"/>
<g style="mix-blend-mode:multiply">
<path d="M184.665 86.385C174.429 82.0442 164.565 82.1984 165.416 85.8144C164.82 94.5964 175.782 103.864 184.665 86.385Z" fill="#E0B3A8"/>
</g>
<g style="mix-blend-mode:multiply">
<path d="M174.252 99.9318C173.177 99.9318 171.832 99.793 170.464 99.2841C170.278 99.2147 170.185 99.0143 170.255 98.8292C170.325 98.6442 170.526 98.5517 170.711 98.6211C173.541 99.6696 176.339 99.0297 176.362 99.022C176.548 98.9757 176.741 99.0914 176.787 99.2841C176.834 99.4692 176.718 99.6619 176.525 99.7082C176.455 99.7236 175.551 99.9318 174.252 99.9318Z" fill="#E0B3A8"/>
</g>
<path d="M184.665 86.3854L165.416 85.8149C165.416 94.4272 178.001 98.4519 184.665 86.3854Z" fill="#182039"/>
<path d="M168.972 92.3605C171.546 88.6982 175.249 87.1407 175.249 87.1407L181.171 86.2772L184.665 86.3851C180.212 94.4423 173.193 95.2364 168.972 92.3605Z" fill="#7D2727"/>
<path d="M165.416 85.8068L184.665 86.3773C180.181 89.4768 168.338 90.3404 165.416 85.8068Z" fill="white"/>
<path d="M170.178 28.8593C171.453 47.5565 197.637 50.2628 202.399 49.245C207.161 48.2273 194.746 20.671 170.178 28.8593Z" fill="#182039"/>
<path d="M201.634 75.7064C203.512 75.7064 206.257 74.5653 209.875 70.1937C210.238 69.7619 210.168 69.1142 209.736 68.7596C209.303 68.4049 208.653 68.4589 208.298 68.8983C205.167 72.6841 202.283 74.3649 200.582 73.4088C198.039 71.9824 197.521 64.6886 201.448 53.5165C201.634 52.9845 201.356 52.4062 200.822 52.2135C200.281 52.0284 199.709 52.306 199.523 52.838C195.55 64.1566 195.565 72.9231 199.585 75.1822C200.08 75.4597 200.768 75.7064 201.634 75.7064Z" fill="#182039"/>
<path d="M182.771 47.2404C186.188 47.2404 189.852 46.3383 193.532 44.5187C194.034 44.272 194.243 43.6551 193.996 43.154C193.741 42.6451 193.122 42.4446 192.627 42.6914C185.77 46.0684 179.068 46.0299 174.236 42.5757C170.232 39.7152 168.052 34.7653 168.686 29.9695C168.763 29.4144 168.361 28.8978 167.804 28.8284C167.271 28.759 166.73 29.1446 166.652 29.7074C165.91 35.3281 168.361 40.8949 173.038 44.2411C175.836 46.2381 179.161 47.2404 182.763 47.2404H182.771Z" fill="#182039"/>
<path d="M245.181 136.316C229.294 150.596 226.426 163.156 227.578 192.847C228.39 213.858 228.622 241.73 228.691 256.233H272.153C279.312 184.829 268.605 134.674 245.181 136.316Z" fill="#4D243C"/>
<path d="M79.5511 165.052C81.5301 156.178 80.7029 148.784 73.4516 145.329C66.2002 141.875 56.8074 133.656 56.8074 133.656C54.1713 135.792 57.1398 143.186 61.585 145.823C43.6189 144.504 28.2967 131.359 25.8229 133.656C23.3491 135.954 30.7705 141.713 29.1162 141.382C18.8962 136.447 15.9354 139.901 18.4014 144.666C13.1291 148.444 24.0062 156.502 24.0062 156.502C15.7653 154.034 14.9768 156.918 23.5114 161.598C29.9433 165.129 58.9411 168.83 60.7578 173.595C62.5668 178.36 63.0615 178.36 63.0615 178.36L81.8471 176.386L79.5433 165.044L79.5511 165.052Z" fill="#FF8762"/>
<path d="M82.5895 172.145L60.7812 175.769C65.4506 207.851 76.4127 240.288 82.3034 256.241H127.226C108.441 219.748 82.5817 172.145 82.5817 172.145H82.5895Z" fill="#4D243C"/>
<g style="mix-blend-mode:multiply">
<path d="M50.4221 150.472C50.4221 150.472 50.3448 150.472 50.3062 150.449C50.1979 150.41 39.5683 146.686 32.0077 143.001C31.8376 142.916 31.7603 142.708 31.8453 142.538C31.9304 142.369 32.1391 142.292 32.3092 142.376C39.8388 146.039 50.4299 149.755 50.5381 149.794C50.7159 149.855 50.8164 150.056 50.7546 150.233C50.7082 150.38 50.569 150.464 50.4299 150.464L50.4221 150.472Z" fill="#E0B3A8"/>
</g>
<g style="mix-blend-mode:multiply">
<path d="M47.1517 156.178C47.1517 156.178 47.0899 156.178 47.0589 156.162C46.8889 156.116 29.8273 151.467 20.9834 146.247C20.821 146.147 20.7669 145.939 20.8597 145.769C20.9602 145.599 21.1689 145.553 21.339 145.646C30.0979 150.819 47.0667 155.438 47.2368 155.484C47.4223 155.538 47.5305 155.723 47.4841 155.908C47.4377 156.062 47.2986 156.162 47.144 156.162L47.1517 156.178Z" fill="#E0B3A8"/>
</g>
<g style="mix-blend-mode:multiply">
<path d="M42.5133 160.434C42.5133 160.434 42.4901 160.434 42.4746 160.434C42.4283 160.434 37.9136 159.956 31.5048 158.067C31.3193 158.013 31.2188 157.82 31.2729 157.635C31.327 157.45 31.5203 157.35 31.7058 157.404C38.0527 159.277 42.4978 159.74 42.5442 159.748C42.7375 159.771 42.8766 159.94 42.8535 160.125C42.838 160.303 42.6834 160.434 42.5056 160.434H42.5133Z" fill="#E0B3A8"/>
</g>
<g style="mix-blend-mode:multiply">
<path d="M52.8726 162.523C52.7489 162.523 52.633 162.461 52.5711 162.353C52.4784 162.184 52.5325 161.976 52.6948 161.883C52.8958 161.767 57.712 159.084 69.5863 161.475C68.2103 159.586 64.5691 154.427 62.822 150.356C62.7447 150.179 62.822 149.979 63.0075 149.902C63.1776 149.824 63.3863 149.902 63.4636 150.087C65.605 155.06 70.6377 161.729 70.6918 161.798C70.7769 161.914 70.7846 162.076 70.7073 162.192C70.63 162.315 70.4831 162.377 70.3362 162.346C58.114 159.693 53.0968 162.461 53.0504 162.485C52.9963 162.515 52.9345 162.531 52.8803 162.531L52.8726 162.523Z" fill="#E0B3A8"/>
</g>
<g style="mix-blend-mode:multiply">
<path d="M47.2447 158.807C47.2447 158.807 47.206 158.807 47.1828 158.807C46.9896 158.776 46.8659 158.591 46.9045 158.406C46.92 158.298 47.407 155.746 49.9736 152.454C50.0896 152.299 50.3138 152.276 50.4606 152.392C50.6153 152.508 50.6384 152.731 50.5225 152.878C48.0719 156.024 47.6003 158.498 47.5926 158.529C47.5616 158.699 47.4148 158.815 47.2524 158.815L47.2447 158.807Z" fill="#E0B3A8"/>
</g>
</g>
<defs>
<clipPath id="clip0_58_1839">
<rect width="227" height="328" fill="white"/>
</clipPath>
</defs>
</svg>
