<svg width="286" height="332" viewBox="0 0 286 332" fill="none" xmlns="http://www.w3.org/2000/svg">
<g clip-path="url(#clip0_58_1768)">
<path d="M149.66 150.153C177.262 122.511 177.262 77.6934 149.66 50.051C122.057 22.4086 77.3051 22.4086 49.7027 50.051C22.1003 77.6934 22.1003 122.511 49.7027 150.153C77.3051 177.795 122.057 177.795 149.66 150.153Z" fill="#E5A810"/>
<path d="M154.664 111.001C160.683 72.3762 134.296 36.1782 95.7276 30.1505C57.1588 24.1227 21.0132 50.5478 14.9941 89.1725C8.97509 127.797 35.3619 163.995 73.9308 170.023C112.5 176.051 148.645 149.626 154.664 111.001Z" fill="#FFC72C"/>
<path d="M132.198 110.071C137.944 84.4112 121.831 58.9448 96.2082 53.1903C70.5854 47.4358 45.1559 63.5724 39.4097 89.2323C33.6635 114.892 49.7767 140.359 75.3995 146.113C101.022 151.867 126.452 135.731 132.198 110.071Z" fill="#E5A810"/>
<path d="M91.3877 122.499C86.5092 123.819 80.9027 123.228 76.7127 121.514L77.9323 116.254C82.1224 117.791 86.7255 118.599 91.2304 116.904C96.6794 114.856 98.2925 110.797 96.5614 106.227C92.0762 94.2491 72.4636 104.572 67.0735 90.1712C64.6146 83.5913 67.1129 77.2676 73.1718 73.8988L70.3784 66.4325L74.8045 64.7776L77.5389 72.0864C82.4568 70.8256 86.4108 71.9485 90.1091 73.7609L88.2206 78.6072C84.5026 76.9721 81.6306 76.2826 77.6372 77.7798C73.1324 79.474 71.3029 83.3549 72.916 87.6496C76.929 98.3665 96.404 87.689 102.345 103.567C104.981 110.581 102.365 117.121 95.7155 120.706L98.5089 128.173L94.0828 129.828L91.3484 122.519L91.3877 122.499Z" fill="#FFE9AB"/>
<path fill-rule="evenodd" clip-rule="evenodd" d="M33.3368 77.9372C33.4548 81.7984 33.0614 86.3886 31.0549 89.5997C30.209 90.959 31.0549 92.7517 32.6286 93.0472C35.6974 93.6185 39.8678 94.8005 43.5857 97.2434C45.1595 98.2875 47.2447 97.1449 47.166 95.2536C47.0676 92.2395 47.4414 88.398 49.1921 84.3397C49.7823 82.9804 48.9167 81.4044 47.4414 81.1877C44.825 80.774 40.9891 79.5723 37.1727 76.1642C35.658 74.8048 33.2581 75.9081 33.3171 77.9569L33.3368 77.9372Z" fill="white"/>
<path d="M179.309 243.523C162 306.244 181.472 424.844 181.472 424.844C201.362 418.495 248.392 422.145 248.392 422.145C256.515 329.317 262.854 294.004 253.82 273.629C244.786 253.254 239.927 241.812 239.927 241.812L209.523 226.075L179.347 243.523H179.309Z" fill="black"/>
<path d="M222.049 26.66C218.101 27.1542 214.078 26.9261 210.168 26.1658C195.782 23.3909 181.548 28.2565 185.306 42.3213C189.595 58.4006 190.278 69.2723 183.256 83.7551C176.234 98.238 183.256 121.578 205.651 121.578C228.046 121.578 229.375 127.014 245.659 128.61C261.943 130.207 281.377 110.934 266.004 94.2087C250.631 77.445 250.859 67.9418 250.859 53.2309C250.859 39.7364 242.47 24.1132 222.049 26.736V26.66Z" fill="#182039"/>
<path d="M179.195 239.912L179.309 243.523C204.399 240.596 239.889 241.812 239.889 241.812L238.864 236.491L222.694 230.827L209.827 231.853L179.195 239.874V239.912Z" fill="#182039"/>
<path d="M103.307 174.704C100.379 167.603 95.9088 161.837 89.5459 158.948C83.1479 156.045 79.0111 150.17 79.0111 150.17C76.6642 151.666 75.0691 154.913 78.2056 158.644C81.2924 162.395 85.9702 165.284 80.2055 165.607C74.4407 165.93 53.1101 162.466 56.9299 166.233C60.7352 170.035 64.2405 170.997 63.8907 171.839C65.118 180.663 70.8872 186.269 76.6191 188.896C82.3861 191.537 98.0895 195.587 98.7209 196.343C99.3873 197.114 103.307 174.704 103.307 174.704Z" fill="#FF8762"/>
<path d="M197.604 129.218C191.607 134.882 182.117 146.438 181.662 150.962C181.206 155.485 182.8 164.304 182.8 164.304L161.316 186.504L101.875 170.88L98.0408 196.691C98.0408 196.691 168.339 232.917 178.739 228.85C179.195 237.669 179.194 239.95 179.194 239.95C197.035 236.794 238.864 236.566 238.864 236.566C235.486 223.908 249.72 181.79 252.415 158.26C255.11 134.73 244.52 116.598 235.334 111.162C226.186 105.727 202.007 123.631 197.566 129.256L197.604 129.218Z" fill="#007D88"/>
<path d="M205.196 35.9731C204.968 48.0992 221.138 46.2746 224.402 48.0992C227.667 49.9238 228.236 65.433 228.236 65.433C230.627 58.2866 236.473 58.9708 238.067 63.4944C239.661 68.0179 236.473 76.6088 229.944 75.1643C226.224 99.6065 235.372 111.162 235.372 111.162C212.446 116.484 197.604 129.256 197.604 129.256C209.94 112.379 212.294 106.715 210.472 95.7672C197.832 94.5128 192.176 77.6731 191.607 67.8278C191.038 57.9825 190.582 36.3533 205.158 36.0112L205.196 35.9731Z" fill="#FF8762"/>
<g style="mix-blend-mode:multiply">
<path d="M200.831 79.9539C202.577 76.6468 212.522 78.9655 214.002 79.6498C211.155 85.1616 203.829 86.5301 200.831 79.9539Z" fill="#E0B3A8"/>
</g>
<path d="M207.245 80.9801C205.044 80.9801 202.653 80.714 200.375 80.0298C200.223 79.9918 200.147 79.8397 200.185 79.6496C200.223 79.4976 200.375 79.4216 200.527 79.4596C206.183 81.2082 212.977 80.0298 214.609 79.3075C214.761 79.2315 214.913 79.3075 214.989 79.4596C215.065 79.6116 214.989 79.7637 214.837 79.8397C213.774 80.3339 210.738 80.9801 207.207 80.9801H207.245Z" fill="#182039"/>
<g style="mix-blend-mode:multiply">
<path d="M206.942 87.7466C205.841 87.7466 204.512 87.5565 203.222 86.9103C203.07 86.8342 203.032 86.6822 203.07 86.5301C203.146 86.3781 203.298 86.3401 203.45 86.3781C206.524 87.8226 209.409 86.7962 209.675 86.6442C209.789 86.5682 209.978 86.5682 210.092 86.7202C210.168 86.8342 210.168 87.0243 210.016 87.1383C209.713 87.3664 208.498 87.7466 206.942 87.7466Z" fill="#E0B3A8"/>
</g>
<g style="mix-blend-mode:multiply">
<path d="M212.218 95.1589C212.218 95.1589 211.99 95.0828 211.952 94.9688C211.915 94.8167 211.952 94.6647 212.142 94.5887C222.695 90.7874 225.503 83.1088 226.414 80.6L226.49 80.4099C226.49 80.4099 226.718 80.1818 226.87 80.2198C227.022 80.2579 227.098 80.4479 227.06 80.6L226.984 80.79C226.035 83.3749 223.188 91.2435 212.37 95.1208C212.37 95.1208 212.294 95.1208 212.256 95.1208L212.218 95.1589Z" fill="#E0B3A8"/>
</g>
<g style="mix-blend-mode:multiply">
<path d="M232.146 71.8949C232.146 71.8949 231.918 71.8189 231.88 71.7049C231.842 71.5528 231.88 71.4008 232.07 71.3247C233.246 70.9446 233.892 70.2224 233.93 69.3101C233.93 68.4358 233.398 67.5615 232.601 67.2574C231.88 66.9533 231.083 67.1813 230.437 67.9036C230.362 67.9796 230.248 68.0176 230.134 67.9796C230.02 67.9796 229.944 67.8656 229.944 67.7515C229.678 66.041 230.665 63.8362 232.184 62.8859C233.36 62.1256 234.689 62.1637 235.941 62.9619C236.093 63.038 236.131 63.228 236.017 63.3801C235.941 63.5321 235.752 63.5701 235.6 63.4561C234.233 62.5818 233.17 62.9239 232.487 63.3801C231.348 64.1403 230.513 65.7369 230.475 67.1053C231.197 66.5351 232.032 66.4211 232.829 66.7252C233.854 67.1433 234.537 68.2457 234.499 69.3481C234.461 70.4884 233.626 71.4388 232.222 71.8949H232.146Z" fill="#E0B3A8"/>
</g>
<path d="M204.588 74.328C203.108 74.2899 199.464 73.0355 199.388 72.0092C199.388 71.8191 199.426 71.477 200.071 71.3249C200.83 71.1349 202.501 69.3863 203.601 66.7254C204.588 64.2926 205.689 59.465 202.235 54.1432C202.159 53.9911 202.197 53.8391 202.311 53.725C202.425 53.649 202.614 53.687 202.728 53.8011C206.334 59.3509 205.158 64.4066 204.171 66.9155C203.07 69.6904 201.286 71.6291 200.261 71.8951C200.033 71.9332 199.995 72.0092 199.995 72.0092C200.109 72.4273 202.994 73.7197 204.664 73.7578C204.816 73.7578 204.968 73.9098 204.93 74.0619C204.93 74.2139 204.778 74.328 204.626 74.328H204.588Z" fill="#182039"/>
<path d="M216.659 72.5415C212.218 72.5415 208.574 69.6905 208.574 66.2313C208.574 66.0793 208.688 65.9272 208.878 65.9272C209.067 65.9272 209.181 66.0413 209.181 66.2313C209.181 69.3864 212.559 71.9713 216.697 71.9713C220.834 71.9713 224.213 69.3864 224.213 66.2313C224.213 66.0793 224.326 65.9272 224.516 65.9272C224.706 65.9272 224.82 66.0413 224.82 66.2313C224.82 69.7285 221.176 72.5415 216.735 72.5415H216.659Z" fill="#182039"/>
<path d="M195.592 72.1614C191.986 72.1614 189.026 69.3104 189.026 65.8513C189.026 65.6992 189.14 65.5472 189.329 65.5472C189.519 65.5472 189.633 65.6612 189.633 65.8513C189.633 69.0063 192.328 71.5912 195.592 71.5912C198.857 71.5912 201.552 69.0063 201.552 65.8513C201.552 65.6992 201.666 65.5472 201.856 65.5472C202.045 65.5472 202.159 65.6612 202.159 65.8513C202.159 69.3485 199.236 72.1614 195.592 72.1614Z" fill="#182039"/>
<path d="M210.965 69.3102C210.965 69.3102 210.813 69.3102 210.737 69.1961C209.561 67.7517 206.183 66.6873 203.677 66.9534C202.652 67.0674 201.286 67.4095 200.641 68.5879C200.565 68.74 200.375 68.778 200.261 68.702C200.109 68.626 200.071 68.4359 200.147 68.3218C200.717 67.2195 201.931 66.5733 203.639 66.3832C206.372 66.1171 209.902 67.2575 211.193 68.854C211.307 68.9681 211.269 69.1581 211.155 69.2722C211.117 69.3102 211.041 69.3482 210.965 69.3482V69.3102Z" fill="#182039"/>
<g style="mix-blend-mode:multiply">
<path d="M189.367 159.4C189.367 159.4 189.216 159.4 189.178 159.324C189.064 159.21 189.064 159.02 189.178 158.906C194.34 153.09 213.85 134.198 214.04 133.97C214.154 133.856 214.344 133.856 214.458 133.97C214.571 134.084 214.571 134.274 214.458 134.388C214.268 134.578 194.757 153.47 189.595 159.286C189.519 159.362 189.443 159.4 189.367 159.4Z" fill="#BFBFBF"/>
</g>
<g style="mix-blend-mode:multiply">
<path d="M249.264 133.59C249.264 133.59 249.075 133.552 249.037 133.438C243.875 125.341 233.436 123.631 220.455 128.8C220.303 128.876 220.151 128.8 220.075 128.648C219.999 128.496 220.075 128.344 220.227 128.268C233.512 122.984 244.178 124.771 249.492 133.134C249.568 133.286 249.53 133.438 249.416 133.552C249.378 133.552 249.302 133.59 249.264 133.59Z" fill="#BFBFBF"/>
</g>
<g style="mix-blend-mode:multiply">
<path d="M159.988 199.01C159.988 199.01 159.95 199.01 159.912 199.01C159.76 198.972 159.684 198.82 159.722 198.668C160.253 196.691 160.291 193.916 160.291 191.711C160.291 189.012 160.367 187.91 160.899 187.682C161.051 187.606 161.278 187.606 161.544 187.872C162.948 189.278 163.404 191.977 163.442 192.091C163.442 192.243 163.366 192.395 163.214 192.433C163.062 192.433 162.91 192.357 162.873 192.205C162.873 192.205 162.417 189.544 161.126 188.29C161.126 188.29 161.126 188.29 161.089 188.252C160.899 188.632 160.861 190.343 160.861 191.711C160.861 193.954 160.823 196.767 160.253 198.82C160.253 198.934 160.102 199.048 159.988 199.048V199.01Z" fill="#BFBFBF"/>
</g>
<g style="mix-blend-mode:multiply">
<path d="M180.333 227.063C180.333 227.063 180.143 227.025 180.106 226.949C179.992 226.835 180.03 226.645 180.143 226.531L224.212 193.042C224.212 193.042 224.516 192.966 224.63 193.08C224.744 193.194 224.706 193.384 224.592 193.498L180.523 226.987C180.523 226.987 180.409 227.063 180.333 227.063Z" fill="#BFBFBF"/>
</g>
<g style="mix-blend-mode:multiply">
<path d="M217.608 267.357C217.608 267.357 217.57 267.357 217.532 267.357C198.629 263.061 195.782 251.771 196.731 243.067C196.731 242.915 196.883 242.8 197.035 242.8C197.187 242.8 197.3 242.953 197.3 243.105C196.389 251.581 199.16 262.567 217.646 266.787C217.798 266.787 217.911 266.977 217.874 267.129C217.874 267.281 217.722 267.357 217.608 267.357Z" fill="#BFBFBF"/>
</g>
<g style="mix-blend-mode:multiply">
<path d="M214.913 414.048C214.913 414.048 214.647 413.934 214.609 413.782C213.66 403.138 214.951 377.594 216.507 347.982C218.557 308.22 220.872 263.137 218.025 244.473C218.025 244.321 218.101 244.169 218.253 244.131C218.405 244.131 218.557 244.207 218.595 244.359C221.48 263.099 219.164 308.182 217.076 347.982C215.558 377.556 214.23 403.1 215.179 413.706C215.179 413.858 215.065 414.01 214.913 414.01V414.048Z" fill="#BFBFBF"/>
</g>
<path d="M218.481 62.5062C218.481 64.5589 217.494 66.1935 216.241 66.1935C214.989 66.1935 214.002 64.5209 214.002 62.5062C214.002 60.4915 214.989 58.819 216.241 58.819C217.494 58.819 218.481 60.4915 218.481 62.5062Z" fill="#182039"/>
<path d="M201.894 62.6581C201.894 64.7108 200.907 66.3454 199.654 66.3454C198.401 66.3454 197.415 64.6728 197.415 62.6581C197.415 60.6435 198.401 58.9709 199.654 58.9709C200.907 58.9709 201.894 60.6435 201.894 62.6581Z" fill="#182039"/>
<path d="M210.396 53.687C217.95 52.5466 225.162 54.7513 225.162 54.7513C220.341 47.643 210.244 48.8594 210.396 53.687Z" fill="#182039"/>
<path d="M193.505 54.2954C195.934 52.3947 201.324 53.3831 201.324 53.3831C200.489 49.5438 193.922 51.0263 193.505 54.2954Z" fill="#182039"/>
</g>
<defs>
<clipPath id="clip0_58_1768">
<rect width="286" height="332" fill="white"/>
</clipPath>
</defs>
</svg>
