<svg width="676" height="420" viewBox="0 0 676 420" fill="none" xmlns="http://www.w3.org/2000/svg">
<path d="M643.995 402.788H31.0503C26.3405 402.788 22.5225 406.606 22.5225 411.316V411.471C22.5225 416.181 26.3405 419.999 31.0503 419.999H643.995C648.704 419.999 652.522 416.181 652.522 411.471V411.316C652.522 406.606 648.704 402.788 643.995 402.788Z" fill="#3A1B2D"/>
<path d="M489.708 116.987C535.689 99.466 569.673 174.062 622.173 91.5499C674.664 9.03822 573.225 0.327789 533.233 44.2908C493.242 88.2539 485.445 50.5817 456.857 73.9373C427.147 98.206 443.718 134.509 489.708 116.987Z" fill="#AD6D93"/>
<path d="M645.437 294.593C660 209.305 591.951 162.512 514.096 158.458C489.864 157.198 441.801 149.382 426.151 129.478C408.009 100.571 414.638 60.5705 390.26 34.3388C356.687 -2.41124 302.781 -1.19689 255.878 0.820933C159.241 5.72398 54.8167 72.7505 42.2532 175.395C39.1489 204.749 49.585 236.194 73.7532 253.98C131.731 307.594 27.1789 339.679 47.1837 402.797H625.113C651.08 382.227 660.265 334.146 645.428 294.593H645.437Z" fill="#AD6D93"/>
<path d="M320.85 349.33H219.027C204.273 349.33 192.321 337.369 192.321 322.623C192.321 307.868 204.282 295.917 219.027 295.917H320.85L319.791 297.295C307.939 312.753 308.378 334.365 320.85 349.33Z" fill="#73365A"/>
<path d="M317.116 301.24H218.863C207.167 301.24 197.653 310.826 197.653 322.614C197.653 334.401 207.167 343.988 218.863 343.988H317.089C309.255 330.877 309.227 314.415 317.125 301.24H317.116Z" fill="#EBDAE4"/>
<path d="M234.467 349.33H132.644C117.89 349.33 105.938 337.369 105.938 322.623C105.938 307.868 117.899 295.917 132.644 295.917H234.467L233.408 297.295C221.557 312.753 221.995 334.365 234.467 349.33Z" fill="#994878"/>
<path d="M230.724 301.24H132.471C120.775 301.24 111.261 310.826 111.261 322.614C111.261 334.401 120.775 343.988 132.471 343.988H230.696C222.863 330.877 222.835 314.415 230.733 301.24H230.724Z" fill="#D6B6C9"/>
<path d="M140.98 312.744H294.271C295.193 312.744 295.942 313.493 295.942 314.415V315.246C295.942 316.168 295.193 316.917 294.271 316.917H140.98C140.058 316.917 139.31 316.168 139.31 315.246V314.415C139.31 313.493 140.058 312.744 140.98 312.744Z" fill="#994878"/>
<path d="M302.909 326.376H202.474C201.551 326.376 200.803 327.124 200.803 328.047V328.877C200.803 329.8 201.551 330.548 202.474 330.548H302.909C303.832 330.548 304.58 329.8 304.58 328.877V328.047C304.58 327.124 303.832 326.376 302.909 326.376Z" fill="#994878"/>
<path d="M158.739 326.376H190.504C191.426 326.376 192.175 327.124 192.175 328.047V328.877C192.175 329.8 191.426 330.548 190.504 330.548H158.739C157.817 330.548 157.068 329.8 157.068 328.877V328.047C157.068 327.124 157.817 326.376 158.739 326.376Z" fill="#994878"/>
<path d="M81.0303 402.797H182.853C197.608 402.797 209.559 390.836 209.559 376.091C209.559 361.336 197.599 349.384 182.853 349.384H81.0303L82.0894 350.763C93.9407 366.221 93.5024 387.833 81.0303 402.797Z" fill="#73365A"/>
<path d="M84.7645 354.717H183.017C194.713 354.717 204.227 364.304 204.227 376.091C204.227 387.878 194.713 397.465 183.017 397.465H84.7919C92.6258 384.354 92.6532 367.892 84.7554 354.717H84.7645Z" fill="#EBDAE4"/>
<path d="M162.081 402.797H306.57C321.325 402.797 333.277 390.836 333.277 376.091C333.277 361.336 321.316 349.384 306.57 349.384H162.081L163.14 350.763C174.991 366.221 174.553 387.833 162.081 402.797Z" fill="#73365A"/>
<path d="M167.413 402.797H311.902C326.657 402.797 338.609 390.836 338.609 376.091C338.609 361.336 326.648 349.384 311.902 349.384H167.413L168.472 350.763C180.324 366.221 179.885 387.833 167.413 402.797Z" fill="#C291AE"/>
<path d="M162.127 366.212H107.6C106.677 366.212 105.929 366.96 105.929 367.883V368.713C105.929 369.636 106.677 370.384 107.6 370.384H162.127C163.05 370.384 163.798 369.636 163.798 368.713V367.883C163.798 366.96 163.05 366.212 162.127 366.212Z" fill="#D6B6C9"/>
<path d="M98.9716 379.844H164.072C164.994 379.844 165.743 380.592 165.743 381.514V382.345C165.743 383.267 164.994 384.016 164.072 384.016H98.9716C98.0495 384.016 97.3008 383.267 97.3008 382.345V381.514C97.3008 380.592 98.0495 379.844 98.9716 379.844Z" fill="#D6B6C9"/>
<path d="M181.392 350.58C175.512 350.58 170.746 345.814 170.746 339.934V317.19H154.75V339.934C154.75 345.814 159.516 350.58 165.396 350.58C171.276 350.58 176.042 355.347 176.042 361.217V385.212L184.177 377.077L192.038 385.212V361.217C192.038 355.337 187.272 350.58 181.392 350.58Z" fill="#13FF29"/>
<path d="M527.6 390.882H432.707L404.74 346.873H499.633L527.6 390.882Z" fill="#4D243C"/>
<path d="M517.931 390.882H423.047L395.081 346.873H489.973L517.931 390.882Z" fill="#73365A"/>
<path d="M582.556 351H293.532C286.995 351 282.028 345.111 283.132 338.665L315.637 149.638C317.079 141.238 324.365 135.093 332.893 135.093H621.917C628.454 135.093 633.421 140.982 632.317 147.428L599.812 336.456C598.37 344.856 591.084 351 582.556 351Z" fill="#4D243C"/>
<path d="M572.01 351H282.986C276.449 351 271.482 345.111 272.587 338.665L305.091 149.638C306.534 141.238 313.82 135.093 322.348 135.093H611.371C617.909 135.093 622.876 140.982 621.771 147.428L589.267 336.456C587.824 344.856 580.538 351 572.01 351Z" fill="#73365A"/>
<path d="M282.986 345.723C281.407 345.723 279.973 345.056 278.951 343.842C277.928 342.628 277.517 341.103 277.782 339.551L310.286 150.523C311.3 144.634 316.376 140.352 322.348 140.352H611.371C612.951 140.352 614.384 141.019 615.407 142.233C616.43 143.447 616.841 144.972 616.576 146.524L584.071 335.552C583.058 341.441 577.981 345.723 572.01 345.723H282.986Z" fill="#994878"/>
<path d="M286.976 317.82L315.49 151.418C316.066 148.067 318.96 145.63 322.356 145.63H611.38L582.866 312.032C582.291 315.383 579.396 317.82 576 317.82H286.976Z" fill="white"/>
<path d="M376.108 386.755H530.649C539.113 386.755 545.979 393.621 545.979 402.085V402.797H360.778V402.085C360.778 393.621 367.644 386.755 376.108 386.755Z" fill="#4D243C"/>
<path d="M99.0356 402.797C115.936 322.833 90.1061 281.189 24.7778 236.642C-6.5213 323.691 27.517 382.829 62.3404 402.797H99.0448H99.0356Z" fill="#C291AE"/>
<g style="mix-blend-mode:multiply">
<path d="M32.283 257.925C32.6756 257.496 33.2417 257.587 33.5338 258.126C38.6286 267.43 44.3808 282.34 49.9778 298.793C51.0278 295.204 52.8173 288.357 52.8812 283.472C52.8812 282.778 53.3012 282.212 53.7943 282.203C54.3786 282.203 54.6799 282.76 54.6708 283.454C54.5886 290.146 51.6669 299.687 51.0004 301.797C59.8295 328.147 68.1382 357.757 72.7308 374.694C75.8351 370.96 82.2904 352.854 81.4595 340.601C81.4138 339.907 81.7699 339.286 82.263 339.204C82.7651 339.122 83.1943 339.615 83.2399 340.309C84.153 353.849 77.2686 373.233 73.3699 377.086C75.2417 384.043 76.3647 388.38 76.4195 388.581C76.5838 389.23 76.3464 389.96 75.8808 390.206C75.7712 390.27 75.6525 390.298 75.5338 390.289C75.1869 390.28 74.8582 389.969 74.7304 389.485C74.5934 388.956 67.1886 360.25 57.6838 329.005C55.8121 329.973 53.7212 330.311 51.6669 330.238C46.6817 330.073 42.016 327.727 41.733 327.581C41.2765 327.343 41.0482 326.631 41.2217 325.974C41.4043 325.326 41.9156 324.979 42.3812 325.216C42.4725 325.262 51.183 329.617 56.9899 326.713C49.0738 300.883 39.8247 273.757 32.1095 259.678C31.8082 259.13 31.8904 258.345 32.283 257.907V257.925Z" fill="#D6B6C9"/>
</g>
<path d="M92.0597 402.798C78.9666 375.105 104.221 349.293 134.909 335.077C142.021 373.991 126.226 396.808 110.138 402.798H92.0597Z" fill="#D6B6C9"/>
<g style="mix-blend-mode:multiply">
<path d="M131.138 341.487C130.91 341.295 130.572 341.331 130.38 341.56C127.13 345.458 123.368 351.749 119.67 358.707C119.113 357.155 118.173 354.205 118.237 352.115C118.246 351.822 118.008 351.567 117.716 351.558C117.369 351.548 117.168 351.786 117.159 352.078C117.068 354.945 118.638 359.063 118.994 359.967C113.151 371.097 107.554 383.642 104.45 390.809C102.66 389.166 99.1448 381.341 99.8935 376.109C99.9392 375.817 99.7292 375.543 99.437 375.498C99.1357 375.452 98.8709 375.662 98.8253 375.954C98.0035 381.725 101.747 390.106 104.011 391.814C102.742 394.763 101.984 396.598 101.948 396.68C101.838 396.954 101.966 397.274 102.24 397.383C102.304 397.411 102.377 397.42 102.441 397.42C102.651 397.42 102.852 397.292 102.934 397.082C103.025 396.854 108.065 384.692 114.411 371.48C115.516 371.918 116.767 372.092 117.999 372.092C121.003 372.092 123.852 371.161 124.025 371.097C124.308 371.005 124.454 370.695 124.363 370.421C124.272 370.138 123.97 369.983 123.678 370.083C123.624 370.101 118.3 371.836 114.867 370.512C120.145 359.583 126.262 348.125 131.184 342.217C131.375 341.989 131.339 341.651 131.11 341.459L131.138 341.487Z" fill="#D6B6C9"/>
</g>
<path d="M62.3312 402.798C65.6547 360.679 34.9399 350.827 1.28516 347.485C7.36602 386.573 27.8638 402.432 45.0291 402.798H62.3312Z" fill="#EBDAE4"/>
<g style="mix-blend-mode:multiply">
<path d="M6.95532 352.306C7.11054 352.051 7.43923 351.968 7.69488 352.124C12.0501 354.744 17.6653 359.446 23.4449 364.797C23.4631 363.153 23.381 360.049 22.6323 358.104C22.5227 357.83 22.6688 357.52 22.9427 357.41C23.2714 357.282 23.5271 357.447 23.6366 357.721C24.6592 360.396 24.5405 364.797 24.4949 365.774C33.6801 374.365 43.0844 384.363 48.371 390.115C49.5214 387.979 50.261 379.424 47.8414 374.74C47.7044 374.475 47.8049 374.155 48.0697 374.018C48.3344 373.882 48.6631 373.982 48.791 374.247C51.4662 379.424 50.6901 388.572 49.1105 390.928C51.2744 393.293 52.5984 394.781 52.6623 394.845C52.8631 395.064 52.8357 395.411 52.6166 395.603C52.5618 395.648 52.4979 395.685 52.434 395.712C52.2331 395.785 52.0049 395.731 51.8588 395.557C51.6944 395.375 42.9475 385.541 32.6027 375.151C31.6988 375.936 30.5757 376.502 29.4162 376.913C26.5857 377.899 23.5818 377.954 23.3992 377.954C23.0979 377.954 22.8605 377.716 22.8514 377.424C22.8514 377.123 23.0797 376.885 23.381 376.876C23.4357 376.876 29.0418 376.758 31.8449 374.384C23.2623 365.801 13.721 356.99 7.1288 353.028C6.87314 352.872 6.79097 352.544 6.94619 352.288L6.95532 352.306Z" fill="#D6B6C9"/>
</g>
<path d="M577.059 402.797C560.159 322.833 585.989 281.189 651.317 236.642C682.616 323.691 648.578 382.829 613.754 402.797H577.05H577.059Z" fill="#C291AE"/>
<g style="mix-blend-mode:multiply">
<path d="M643.803 257.925C643.41 257.496 642.844 257.587 642.552 258.126C637.457 267.43 631.705 282.34 626.108 298.793C625.058 295.204 623.268 288.357 623.204 283.472C623.204 282.778 622.784 282.212 622.291 282.203C621.707 282.203 621.406 282.76 621.415 283.454C621.497 290.146 624.419 299.687 625.085 301.797C616.256 328.147 607.947 357.757 603.355 374.694C600.25 370.96 593.795 352.854 594.626 340.601C594.672 339.907 594.316 339.286 593.823 339.204C593.32 339.122 592.891 339.615 592.846 340.309C591.933 353.849 598.817 373.233 602.716 377.086C600.844 384.043 599.721 388.38 599.666 388.581C599.502 389.23 599.739 389.96 600.205 390.206C600.314 390.27 600.433 390.298 600.552 390.289C600.899 390.28 601.227 389.969 601.355 389.485C601.492 388.956 608.897 360.25 618.402 329.005C620.273 329.973 622.364 330.311 624.419 330.238C629.404 330.073 634.07 327.727 634.353 327.581C634.809 327.343 635.037 326.631 634.864 325.974C634.681 325.326 634.17 324.979 633.704 325.216C633.613 325.262 624.903 329.617 619.096 326.713C627.012 300.883 636.261 273.757 643.976 259.678C644.277 259.13 644.195 258.345 643.803 257.907V257.925Z" fill="#D6B6C9"/>
</g>
<path d="M584.035 402.798C597.128 375.105 571.873 349.293 541.186 335.077C534.073 373.991 549.869 396.808 565.957 402.798H584.035Z" fill="#D6B6C9"/>
<g style="mix-blend-mode:multiply">
<path d="M544.957 341.487C545.185 341.295 545.523 341.331 545.715 341.56C548.965 345.458 552.727 351.749 556.424 358.707C556.981 357.155 557.922 354.205 557.858 352.115C557.849 351.822 558.086 351.567 558.378 351.558C558.725 351.548 558.926 351.786 558.935 352.078C559.027 354.945 557.456 359.063 557.1 359.967C562.944 371.097 568.541 383.642 571.645 390.809C573.434 389.166 576.95 381.341 576.201 376.109C576.155 375.817 576.365 375.543 576.657 375.498C576.959 375.452 577.224 375.662 577.269 375.954C578.091 381.725 574.347 390.106 572.083 391.814C573.352 394.763 574.11 396.598 574.147 396.68C574.256 396.954 574.128 397.274 573.854 397.383C573.791 397.411 573.718 397.42 573.654 397.42C573.444 397.42 573.243 397.292 573.161 397.082C573.069 396.854 568.038 384.692 561.684 371.48C560.579 371.918 559.328 372.092 558.095 372.092C555.091 372.092 552.243 371.161 552.069 371.097C551.786 371.005 551.64 370.695 551.731 370.421C551.823 370.138 552.124 369.983 552.416 370.083C552.471 370.101 557.794 371.836 561.227 370.512C555.95 359.583 549.832 348.125 544.911 342.217C544.719 341.989 544.756 341.651 544.984 341.459L544.957 341.487Z" fill="#D6B6C9"/>
</g>
<path d="M613.763 402.798C610.44 360.679 641.155 350.827 674.81 347.485C668.729 386.573 648.231 402.432 631.066 402.798H613.763Z" fill="#EBDAE4"/>
<g style="mix-blend-mode:multiply">
<path d="M669.14 352.306C668.984 352.051 668.656 351.968 668.4 352.124C664.045 354.744 658.43 359.446 652.65 364.797C652.632 363.153 652.714 360.049 653.463 358.104C653.572 357.83 653.426 357.52 653.152 357.41C652.824 357.282 652.568 357.447 652.458 357.721C651.436 360.396 651.554 364.797 651.6 365.774C642.415 374.365 633.011 384.363 627.724 390.115C626.574 387.979 625.834 379.424 628.254 374.74C628.391 374.475 628.29 374.155 628.025 374.018C627.761 373.882 627.432 373.982 627.304 374.247C624.629 379.424 625.405 388.572 626.984 390.928C624.821 393.293 623.497 394.781 623.433 394.845C623.232 395.064 623.259 395.411 623.478 395.603C623.533 395.648 623.597 395.685 623.661 395.712C623.862 395.785 624.09 395.731 624.236 395.557C624.401 395.375 633.147 385.541 643.492 375.151C644.396 375.936 645.519 376.502 646.679 376.913C649.509 377.899 652.513 377.954 652.696 377.954C652.988 377.954 653.234 377.716 653.244 377.424C653.244 377.123 653.015 376.885 652.714 376.876C652.659 376.876 647.053 376.758 644.25 374.384C652.833 365.801 662.374 356.99 668.966 353.028C669.222 352.872 669.304 352.544 669.149 352.288L669.14 352.306Z" fill="#D6B6C9"/>
</g>
<path d="M360.312 91.8879C360.312 66.5601 339.193 46.1719 313.601 47.3679C290.802 48.4362 272.313 66.9071 271.226 89.7058C270.56 103.648 276.303 116.257 285.762 124.867C294.966 133.231 300.225 133.568 300.225 146.004V159.919H331.25V146.004C331.25 133.605 336.427 133.258 345.621 124.949C354.633 116.796 360.303 105.008 360.303 91.8971L360.312 91.8879Z" fill="#FFC72C"/>
<path d="M322.585 153.555C321.846 153.555 321.216 152.989 321.152 152.24C319.828 137.102 319.225 135.057 319.326 123.452C318.376 123.644 317.399 123.744 316.377 123.744H315.089C314.076 123.744 313.09 123.644 312.14 123.452C312.24 135.048 311.647 137.102 310.314 152.24C310.25 152.989 309.62 153.555 308.88 153.555C308.835 153.555 308.798 153.555 308.753 153.555C307.958 153.482 307.374 152.788 307.447 151.994C308.88 135.65 309.41 133.614 309.282 122.566C299.577 118.403 294.208 104.196 293.414 93.632C292.793 85.3415 294.801 80.0276 298.791 79.425C299.084 79.3793 299.376 79.3611 299.659 79.3611C301.193 79.3611 302.663 79.982 303.959 81.1963C308.908 85.8437 311.684 99.7767 312.094 120.503C313.053 120.749 314.048 120.877 315.08 120.877H316.367C317.408 120.877 318.403 120.749 319.353 120.503C319.764 99.7767 322.54 85.8437 327.488 81.1963C328.776 79.982 330.246 79.3611 331.789 79.3611C332.081 79.3611 332.364 79.3793 332.656 79.425C336.646 80.0276 338.655 85.3415 338.034 93.632C337.24 104.196 331.871 118.403 322.165 122.566C322.037 133.614 322.567 135.65 324 151.994C324.074 152.788 323.48 153.482 322.695 153.555C322.649 153.555 322.613 153.555 322.567 153.555H322.585ZM331.807 82.2372C331.004 82.2372 330.237 82.5841 329.488 83.2872C325.863 86.6837 322.759 97.9141 322.247 119.352C330.1 115.098 334.482 102.698 335.185 93.4037C335.651 87.1767 334.446 82.5933 332.254 82.2646C332.108 82.2463 331.962 82.228 331.816 82.228L331.807 82.2372ZM299.677 82.2372C299.531 82.2372 299.385 82.2463 299.239 82.2737C297.038 82.6024 295.833 87.1859 296.308 93.4128C297.011 102.708 301.394 115.107 309.246 119.362C308.734 97.9233 305.63 86.6928 302.005 83.2963C301.257 82.5933 300.49 82.2463 299.686 82.2463L299.677 82.2372Z" fill="#73365A"/>
<g style="mix-blend-mode:screen">
<path d="M285.178 112.851C283.269 112.851 281.526 111.582 281.005 109.647C276.741 93.7597 278.805 79.1236 286.812 68.4228C287.661 67.2906 288.958 66.688 290.273 66.688C291.176 66.688 292.089 66.971 292.866 67.5554C294.774 68.9889 295.166 71.7006 293.733 73.6089C287.25 82.2554 285.735 93.9332 289.35 107.391C289.971 109.701 288.602 112.075 286.292 112.687C285.917 112.788 285.534 112.833 285.169 112.833L285.178 112.851Z" fill="#353E45"/>
</g>
<g style="mix-blend-mode:screen">
<path d="M299.997 66.5875C298.536 66.5875 297.102 65.8479 296.29 64.4966C295.057 62.4514 295.705 59.7944 297.75 58.5527C299.531 57.4753 301.421 56.5257 303.375 55.7223C303.913 55.5031 304.47 55.3936 305.018 55.3936C306.717 55.3936 308.333 56.407 309.017 58.0779C309.921 60.2875 308.871 62.8166 306.662 63.7205C305.119 64.3505 303.63 65.0992 302.233 65.9483C301.53 66.3683 300.763 66.5692 299.997 66.5692V66.5875Z" fill="#353E45"/>
</g>
<path d="M331.177 148.351H299.449C297.85 148.351 296.554 149.646 296.554 151.245V151.382C296.554 152.98 297.85 154.276 299.449 154.276H331.177C332.775 154.276 334.071 152.98 334.071 151.382V151.245C334.071 149.646 332.775 148.351 331.177 148.351Z" fill="#73365A"/>
<path d="M331.177 154.121H299.449C297.85 154.121 296.554 155.417 296.554 157.015V157.152C296.554 158.751 297.85 160.046 299.449 160.046H331.177C332.775 160.046 334.071 158.751 334.071 157.152V157.015C334.071 155.417 332.775 154.121 331.177 154.121Z" fill="#D6B6C9"/>
<path d="M331.177 159.882H299.449C297.85 159.882 296.554 161.178 296.554 162.777V162.914C296.554 164.512 297.85 165.808 299.449 165.808H331.177C332.775 165.808 334.071 164.512 334.071 162.914V162.777C334.071 161.178 332.775 159.882 331.177 159.882Z" fill="#73365A"/>
<path d="M315.82 14.3796H315.655C313.668 14.3796 312.058 15.9902 312.058 17.977V34.9596C312.058 36.9464 313.668 38.557 315.655 38.557H315.82C317.806 38.557 319.417 36.9464 319.417 34.9596V17.977C319.417 15.9902 317.806 14.3796 315.82 14.3796Z" fill="#FFC72C"/>
<path d="M346.287 42.3279L355.805 28.2637C356.916 26.6228 359.152 26.1851 360.801 27.3008L360.937 27.3929C362.578 28.5034 363.015 30.74 361.9 32.3884L352.381 46.4527C351.271 48.0935 349.034 48.5312 347.386 47.4156L347.249 47.3234C345.609 46.2129 345.171 43.9763 346.287 42.3279Z" fill="#FFC72C"/>
<path d="M371.453 69.5599L387.443 63.8379C389.308 63.1704 391.371 64.1389 392.042 66.0129L392.097 66.1676C392.765 68.0331 391.788 70.0992 389.922 70.7668L373.933 76.4887C372.067 77.1563 370.004 76.1878 369.334 74.3138L369.278 74.159C368.611 72.2936 369.579 70.2305 371.453 69.5599Z" fill="#FFC72C"/>
<path d="M272.67 27.8566L272.532 27.9456C270.862 29.0213 270.38 31.2474 271.455 32.9178L280.65 47.1961C281.726 48.8665 283.952 49.3486 285.622 48.2729L285.76 48.1839C287.431 47.1082 287.913 44.8821 286.837 43.2117L277.642 28.9335C276.567 27.2631 274.341 26.781 272.67 27.8566Z" fill="#FFC72C"/>
<path d="M243.294 63.5459L243.228 63.6964C242.431 65.5162 243.26 67.6378 245.079 68.4351L260.635 75.2504C262.454 76.0477 264.576 75.2188 265.373 73.399L265.439 73.2485C266.236 71.4287 265.408 69.3072 263.588 68.5098L248.033 61.6946C246.213 60.8973 244.091 61.7261 243.294 63.5459Z" fill="#FFC72C"/>
<path d="M143.528 285.325C143.528 286.375 143.108 291.525 145.528 291.525C147.947 291.525 150.047 292.1 150.623 293.47C151.198 294.839 151.727 297.04 150.732 297.304C149.737 297.569 149.207 295.36 148.943 294.73C148.678 294.1 147.418 293.944 147.418 293.944C147.418 293.944 148.623 295.204 148.787 296.309C148.943 297.414 148.997 299.039 148.002 298.729C146.633 299.359 145.217 298.619 145.217 298.619C144.222 298.354 143.848 296.41 141.328 296.674C138.808 296.939 136.754 296.464 136.489 293.314C136.224 290.164 136.489 286.33 136.489 286.33L143.528 285.334V285.325Z" fill="#FF8762"/>
<path d="M185.72 326.248L186.551 331.059C185.556 333.716 186.012 337.067 186.012 337.067L205.725 336.994C203.579 333.013 194.33 332.758 193.344 330.849C192.358 328.941 191.911 323.28 191.911 323.28L185.72 326.248Z" fill="#FF8762"/>
<path d="M190.167 331.297C190.13 330.603 190.632 328.119 192.413 327.371C192.641 328.731 192.951 330.082 193.344 330.84C194.321 332.748 203.57 333.004 205.725 336.985L186.012 337.058C186.012 337.058 185.556 333.707 186.551 331.05C186.551 331.05 190.121 332.529 190.176 331.288L190.167 331.297Z" fill="#182039"/>
<path d="M205.186 336.227C205.396 336.465 205.57 336.72 205.716 336.985L186.003 337.058C186.003 337.058 185.967 336.766 185.93 336.282L205.177 336.227H205.186Z" fill="black"/>
<path d="M191.911 331.799C191.911 331.799 191.993 331.772 192.011 331.726C192.011 331.726 192.303 330.913 192.878 330.658C193.116 330.548 193.371 330.557 193.645 330.667C193.7 330.694 193.773 330.667 193.791 330.603C193.819 330.548 193.791 330.475 193.727 330.457C193.399 330.32 193.079 330.32 192.787 330.457C192.121 330.749 191.81 331.616 191.801 331.653C191.783 331.708 191.81 331.781 191.874 331.799C191.892 331.799 191.901 331.799 191.92 331.799H191.911Z" fill="black"/>
<path d="M193.782 333.096C193.782 333.096 193.864 333.068 193.883 333.022C193.883 333.022 194.175 332.21 194.75 331.954C194.987 331.845 195.243 331.854 195.517 331.963C195.572 331.991 195.645 331.963 195.663 331.899C195.69 331.845 195.663 331.772 195.599 331.753C195.27 331.616 194.951 331.616 194.659 331.753C193.992 332.046 193.682 332.913 193.673 332.949C193.654 333.004 193.682 333.077 193.746 333.096C193.764 333.096 193.773 333.096 193.791 333.096H193.782Z" fill="black"/>
<path d="M196.841 333.954C196.841 333.954 196.923 333.926 196.942 333.881C196.942 333.881 197.234 333.068 197.809 332.812C198.046 332.703 198.302 332.712 198.576 332.821C198.631 332.849 198.704 332.822 198.722 332.758C198.74 332.694 198.722 332.63 198.658 332.612C198.329 332.475 198.01 332.475 197.718 332.612C197.051 332.904 196.741 333.771 196.732 333.808C196.713 333.862 196.741 333.935 196.805 333.954C196.823 333.954 196.832 333.954 196.85 333.954H196.841Z" fill="black"/>
<path d="M172.7 273.446L173.868 277.537C185.619 279.253 202.474 281.883 203.46 288.448C204.446 295.013 195.471 312.863 195.471 312.863L194.923 327.097H184.305L177.959 297.87C177.959 297.87 152.996 298.966 150.805 292.392C148.614 285.827 148.395 278.486 148.395 278.486L162.519 269.511L172.7 273.456V273.446Z" fill="black"/>
<g style="mix-blend-mode:multiply">
<path d="M195.179 312.123C195.252 312.123 195.316 312.059 195.316 311.977C195.298 311.1 194.777 290.438 192.595 286.804C190.395 283.134 168.884 281.125 167.961 281.043C167.879 281.043 167.815 281.089 167.806 281.171C167.806 281.244 167.852 281.317 167.934 281.326C168.153 281.344 190.221 283.408 192.349 286.95C194.494 290.529 195.024 311.776 195.033 311.986C195.033 312.059 195.097 312.123 195.17 312.123H195.179Z" fill="#E0C9C0"/>
</g>
<g style="mix-blend-mode:multiply">
<path d="M178.151 297.788C178.461 297.788 179.283 297.295 179.639 297.076C179.703 297.039 179.721 296.948 179.685 296.884C179.648 296.82 179.557 296.802 179.493 296.839C179.018 297.131 178.443 297.441 178.224 297.505C178.224 297.322 178.352 296.839 178.443 296.482C178.58 295.935 178.726 295.378 178.726 295.031C178.726 294.958 178.662 294.894 178.589 294.894C178.516 294.894 178.452 294.958 178.452 295.031C178.452 295.341 178.306 295.916 178.178 296.419C177.968 297.24 177.904 297.56 178.005 297.715C178.032 297.761 178.078 297.788 178.132 297.797C178.142 297.797 178.151 297.797 178.169 297.797L178.151 297.788Z" fill="#E0C9C0"/>
</g>
<g style="mix-blend-mode:multiply">
<path d="M154.795 285.909C154.795 285.909 154.822 285.909 154.841 285.909C155.398 285.727 156.055 284.969 156.438 284.074C156.776 283.298 157.205 281.719 156.338 279.856C156.301 279.783 156.219 279.755 156.155 279.792C156.082 279.829 156.055 279.911 156.091 279.975C156.904 281.737 156.502 283.234 156.183 283.965C155.781 284.887 155.16 285.508 154.749 285.645C154.676 285.672 154.64 285.745 154.658 285.818C154.676 285.873 154.731 285.909 154.795 285.909Z" fill="#E0C9C0"/>
</g>
<g style="mix-blend-mode:multiply">
<path d="M187.372 326.796C187.372 326.796 187.372 326.796 187.382 326.796C187.455 326.796 187.519 326.723 187.509 326.64C187.217 323.591 184.606 296.82 183.054 296.09C182.625 295.889 182.387 295.697 182.332 295.497C182.269 295.232 182.497 294.921 182.789 294.529C182.926 294.337 183.081 294.127 183.227 293.89C183.273 293.816 183.273 293.734 183.236 293.652C182.88 292.922 176.909 292.109 167.833 290.94C164.026 290.456 160.748 290.036 159.269 289.735C155.142 288.904 152.375 285.526 152.375 281.335C152.375 281.262 152.312 281.198 152.239 281.198C152.165 281.198 152.102 281.262 152.102 281.335C152.102 285.599 155.032 289.16 159.223 290.009C160.712 290.31 163.999 290.73 167.815 291.223C173.686 291.972 182.542 293.113 182.99 293.762C182.862 293.981 182.716 294.173 182.579 294.364C182.259 294.803 181.976 295.186 182.077 295.57C182.15 295.862 182.433 296.108 182.953 296.355C184.022 296.848 186.112 314.762 187.254 326.677C187.254 326.75 187.318 326.805 187.391 326.805L187.372 326.796Z" fill="#E0C9C0"/>
</g>
<path d="M169.002 243.069C174.535 245.032 179.511 252.529 180.844 255.122C182.178 257.715 189.409 261.294 189.409 261.294C189.409 261.294 187.008 264.791 186.934 265.275C183.364 268.078 179.858 272.981 172.006 269.758C164.163 266.535 168.993 243.06 168.993 243.06L169.002 243.069Z" fill="#E5A810"/>
<path d="M163.852 242.156C164.382 242.019 169.002 243.069 169.002 243.069C174.681 247.689 173.905 260.308 173.485 265.074C173.065 269.84 176.288 275.3 176.288 275.3C165.916 285.672 148.258 287.635 148.258 287.635C145.318 281.052 142.368 250.082 143.775 247.699C145.172 245.316 154.914 242.166 154.914 242.166H163.843L163.852 242.156Z" fill="#FFC72C"/>
<path d="M164.866 229.62C166.071 228.835 165.076 227.201 165.231 227.155C166.756 225.53 163.761 223.11 163.022 223.11C162.282 223.11 162.702 224.106 161.762 223.74C160.812 223.375 156.457 222.955 156.082 225.786C154.247 226.105 155.69 232.871 155.69 232.871C155.69 232.871 159.123 234.249 159.388 234.149C159.652 234.039 164.857 229.629 164.857 229.629L164.866 229.62Z" fill="#182039"/>
<path d="M156.704 226.534L158.457 227.867C157.964 228.251 158 229.027 158.037 229.757C158.073 230.497 157.827 231.401 156.74 231.3C156.147 232.314 156.457 235.153 156.457 235.153L154.914 242.156C156.311 244.786 163.15 246.639 163.844 242.156C162.511 240.933 162.684 238.897 162.684 238.897C165.487 238.093 165.56 229.967 164.821 227.438C163.698 228.141 161.981 227.402 161.351 227.018C160.721 226.635 159.461 227.822 158.794 227.575C158.128 227.329 156.695 226.525 156.695 226.525L156.704 226.534Z" fill="#FF8762"/>
<path d="M157.817 234.25C157.918 234.989 158.63 235.491 159.406 235.382C160.182 235.272 160.721 234.587 160.62 233.848C160.52 233.108 159.808 232.606 159.032 232.716C158.255 232.825 157.717 233.51 157.817 234.25Z" fill="#FF7557"/>
<path d="M162.784 234.441C162.784 234.441 162.812 234.377 162.848 234.368C163.378 234.35 163.962 234.323 164.135 234.286C164.062 234.14 163.807 233.711 163.569 233.327C163.04 232.469 162.72 231.939 162.72 231.803C162.72 231.62 162.839 231.154 162.939 230.734C162.967 230.606 163.003 230.479 163.022 230.387C163.022 230.351 163.067 230.333 163.104 230.333C163.14 230.333 163.158 230.378 163.158 230.415C163.14 230.515 163.104 230.634 163.076 230.762C162.985 231.127 162.866 231.638 162.866 231.793C162.866 231.912 163.368 232.716 163.697 233.245C164.336 234.286 164.327 234.295 164.291 234.35C164.272 234.377 164.218 234.45 162.875 234.478C162.875 234.478 162.812 234.45 162.812 234.414L162.784 234.441Z" fill="#182039"/>
<path d="M164.985 230.46C164.985 230.46 165.058 230.442 165.085 230.415C165.131 230.36 165.122 230.269 165.067 230.223C164.537 229.785 163.487 229.885 163.341 229.958C163.277 229.986 163.241 230.068 163.277 230.132C163.305 230.196 163.387 230.232 163.451 230.196C163.579 230.15 164.492 230.086 164.902 230.424C164.93 230.442 164.957 230.451 164.985 230.451V230.46Z" fill="#182039"/>
<path d="M158.959 230.396C158.959 230.396 159.004 230.396 159.032 230.378C159.424 230.123 160.228 229.931 161.196 230.214C161.269 230.232 161.342 230.196 161.36 230.123C161.378 230.049 161.342 229.976 161.269 229.958C160.219 229.657 159.351 229.867 158.886 230.159C158.822 230.196 158.803 230.278 158.84 230.342C158.867 230.378 158.913 230.406 158.949 230.406L158.959 230.396Z" fill="#182039"/>
<path d="M162.364 235.692C162.885 235.692 163.414 235.628 163.834 235.455C163.871 235.436 163.889 235.4 163.871 235.363C163.853 235.327 163.816 235.309 163.78 235.327C162.629 235.792 160.63 235.409 160.337 235.245C160.301 235.226 160.264 235.245 160.246 235.272C160.228 235.309 160.246 235.345 160.274 235.363C160.484 235.482 161.406 235.692 162.364 235.692Z" fill="#182039"/>
<g style="mix-blend-mode:multiply">
<path d="M162.428 236.687C162.684 236.687 162.958 236.66 163.14 236.559C163.177 236.541 163.186 236.505 163.168 236.468C163.149 236.432 163.113 236.423 163.076 236.441C162.702 236.642 161.835 236.505 161.825 236.505C161.789 236.505 161.752 236.523 161.752 236.559C161.752 236.596 161.771 236.633 161.807 236.633C161.825 236.633 162.109 236.678 162.428 236.678V236.687Z" fill="#E0B3A8"/>
</g>
<path d="M159.844 231.784C159.844 232.159 160.018 232.451 160.237 232.451C160.456 232.451 160.629 232.149 160.629 231.784C160.629 231.419 160.456 231.118 160.237 231.118C160.018 231.118 159.844 231.419 159.844 231.784Z" fill="#182039"/>
<g style="mix-blend-mode:multiply">
<path d="M160.246 232.761C160.246 232.761 160.31 232.734 160.31 232.697C160.31 232.661 160.282 232.624 160.246 232.624C159.963 232.597 159.798 232.341 159.753 232.177C159.753 232.14 159.707 232.122 159.671 232.131C159.634 232.131 159.616 232.177 159.625 232.213C159.689 232.469 159.917 232.734 160.237 232.761H160.246Z" fill="#E0B3A8"/>
</g>
<path d="M163.579 231.876C163.579 232.25 163.752 232.542 163.971 232.542C164.19 232.542 164.364 232.241 164.364 231.876C164.364 231.51 164.19 231.209 163.971 231.209C163.752 231.209 163.579 231.51 163.579 231.876Z" fill="#182039"/>
<g style="mix-blend-mode:multiply">
<path d="M163.971 232.844C163.971 232.844 164.035 232.816 164.035 232.78C164.035 232.743 164.008 232.707 163.971 232.707C163.688 232.679 163.524 232.424 163.478 232.259C163.478 232.223 163.433 232.204 163.396 232.214C163.36 232.214 163.341 232.259 163.35 232.296C163.414 232.551 163.643 232.816 163.962 232.844H163.971Z" fill="#E0B3A8"/>
</g>
<path d="M164.482 233.61H165.624C165.925 233.61 166.162 233.309 166.162 232.944V232.259C166.162 232.259 166.135 232.195 166.098 232.195C166.062 232.195 166.035 232.222 166.035 232.259V232.944C166.035 233.236 165.852 233.473 165.633 233.473H164.491C164.272 233.473 164.09 233.236 164.09 232.944V232.259C164.09 232.259 164.062 232.195 164.026 232.195C163.989 232.195 163.962 232.222 163.962 232.259V232.944C163.962 233.309 164.208 233.61 164.501 233.61H164.482Z" fill="#182039"/>
<path d="M160.465 233.61H161.972C162.355 233.61 162.666 233.309 162.666 232.944V232.259C162.666 232.259 162.638 232.195 162.602 232.195C162.565 232.195 162.538 232.222 162.538 232.259V232.944C162.538 233.236 162.291 233.473 161.981 233.473H160.474C160.164 233.473 159.917 233.236 159.917 232.944V232.259C159.917 232.259 159.89 232.195 159.853 232.195C159.817 232.195 159.79 232.222 159.79 232.259V232.944C159.79 233.309 160.1 233.61 160.483 233.61H160.465Z" fill="#182039"/>
<path d="M162.602 233.017C162.602 233.017 162.638 233.017 162.647 232.999C162.821 232.816 163.122 232.706 163.405 232.716C163.642 232.716 163.843 232.807 163.971 232.953C163.998 232.98 164.035 232.98 164.062 232.953C164.09 232.926 164.09 232.889 164.062 232.862C163.907 232.688 163.67 232.588 163.396 232.579C163.067 232.579 162.729 232.697 162.538 232.907C162.51 232.935 162.51 232.98 162.538 232.999C162.547 233.008 162.565 233.017 162.583 233.017H162.602Z" fill="#182039"/>
<path d="M159.826 232.916C159.826 232.916 159.89 232.889 159.89 232.853C159.89 232.816 159.863 232.78 159.826 232.78L156.201 232.414C156.201 232.414 156.128 232.442 156.128 232.478C156.128 232.515 156.156 232.551 156.192 232.551L159.817 232.916H159.826Z" fill="#182039"/>
<path d="M145.053 246.439C148.167 248.858 151.828 254.108 148.888 264.097C145.948 274.086 146.158 290.895 146.158 290.895L135.439 291.315C133.339 275.547 135.229 251.762 145.053 246.439Z" fill="#E5A810"/>
<g style="mix-blend-mode:multiply">
<path d="M146.97 293.753C146.97 293.753 147.053 293.725 147.062 293.689C147.08 293.634 147.062 293.579 146.998 293.561L145.181 292.903C145.126 292.885 145.071 292.903 145.053 292.967C145.035 293.031 145.053 293.077 145.117 293.095L146.934 293.753C146.934 293.753 146.952 293.753 146.97 293.753Z" fill="#E0C9C0"/>
</g>
<g style="mix-blend-mode:multiply">
<path d="M147.865 298.482C147.865 298.482 147.883 298.482 147.892 298.482C147.947 298.464 147.975 298.409 147.956 298.354C147.92 298.254 147.162 295.971 146.815 295.515C146.468 295.058 144.45 294.328 144.222 294.245C144.167 294.227 144.112 294.245 144.094 294.309C144.076 294.364 144.094 294.419 144.158 294.437C144.761 294.656 146.395 295.295 146.66 295.642C146.988 296.072 147.765 298.4 147.774 298.427C147.792 298.473 147.828 298.5 147.865 298.5V298.482Z" fill="#E0C9C0"/>
</g>
<g style="mix-blend-mode:multiply">
<path d="M146.395 298.117C146.395 298.117 146.422 298.117 146.431 298.117C146.486 298.099 146.505 298.035 146.486 297.989C146.176 297.25 145.199 296.117 144.176 295.935C144.121 295.926 144.067 295.962 144.058 296.017C144.048 296.072 144.085 296.126 144.14 296.136C145.071 296.309 146.011 297.386 146.295 298.071C146.313 298.108 146.349 298.135 146.386 298.135L146.395 298.117Z" fill="#E0C9C0"/>
</g>
<path d="M195.362 260.07H169.623L165.158 279.052H190.897L195.362 260.07Z" fill="#73365A"/>
<path d="M196.476 260.07H170.746L166.281 279.052H192.011L196.476 260.07Z" fill="#4D243C"/>
<path d="M181.839 268.142H183.711V268.206C183.711 269.749 182.46 270.99 180.926 270.99H179.055V270.926C179.055 269.383 180.306 268.142 181.839 268.142Z" fill="#73365A"/>
<path d="M191.901 279.052H156.265V280.742H191.901V279.052Z" fill="#4D243C"/>
<path d="M196.302 272.88C198.776 271.091 199.772 264.946 195.672 263.631C195.517 263.841 195.307 265.421 195.307 265.421C195.307 265.421 189.162 265.996 188.897 267.895C187.948 268.89 189.007 269.995 189.007 269.995C188.897 271.1 191.582 271.785 191.582 271.785C191.582 271.785 189.956 271.465 190.002 272.259C190.057 273.045 194.467 273.675 196.311 272.889L196.302 272.88Z" fill="#FF8762"/>
<g style="mix-blend-mode:multiply">
<path d="M190.833 268.452C192.221 268.452 194.339 268.306 195.754 267.557C195.791 267.539 195.8 267.502 195.782 267.466C195.763 267.429 195.727 267.42 195.69 267.439C193.472 268.626 189.491 268.279 189.445 268.269C189.409 268.269 189.372 268.297 189.372 268.333C189.372 268.37 189.399 268.406 189.436 268.406C189.454 268.406 190.011 268.461 190.833 268.461V268.452Z" fill="#E0B3A8"/>
</g>
<g style="mix-blend-mode:multiply">
<path d="M194.074 270.799H194.093C194.129 270.799 194.156 270.771 194.156 270.735C194.156 270.698 194.129 270.671 194.093 270.671C194.065 270.671 191.709 270.689 189.281 269.968C189.244 269.959 189.208 269.977 189.199 270.013C189.189 270.05 189.208 270.086 189.244 270.095C191.563 270.789 193.828 270.808 194.074 270.808V270.799Z" fill="#E0B3A8"/>
</g>
<g style="mix-blend-mode:multiply">
<path d="M193.097 272.031C193.225 272.031 193.298 272.031 193.307 272.031C193.344 272.031 193.371 271.995 193.371 271.958C193.371 271.922 193.335 271.894 193.298 271.894C193.298 271.894 192.641 271.94 191.819 271.739C191.782 271.739 191.746 271.748 191.737 271.785C191.737 271.821 191.746 271.858 191.782 271.867C192.349 272.013 192.832 272.031 193.088 272.031H193.097Z" fill="#E0B3A8"/>
</g>
<path d="M156.74 233.738C156.63 234.341 156.055 234.733 155.452 234.624C154.85 234.514 154.457 233.939 154.567 233.336C154.676 232.734 155.251 232.341 155.854 232.451C156.457 232.56 156.849 233.135 156.74 233.738Z" fill="#FF7A52"/>
<g style="mix-blend-mode:multiply">
<path d="M155.79 232.77C155.553 232.725 155.306 232.798 155.133 232.953C155.115 232.971 155.115 232.999 155.133 233.017C155.151 233.035 155.178 233.035 155.197 233.017C155.361 232.871 155.571 232.816 155.781 232.852C155.882 232.871 155.982 232.916 156.064 232.971C156.055 232.971 156.046 232.971 156.037 232.971C155.781 232.925 155.535 233.099 155.489 233.355C155.443 233.61 155.617 233.857 155.872 233.902C156.055 233.939 156.238 233.857 156.338 233.711C156.283 233.912 156.146 234.085 155.964 234.176C155.936 234.186 155.927 234.213 155.945 234.24C155.945 234.259 155.964 234.268 155.982 234.268C155.982 234.268 156 234.268 156.009 234.268C156.238 234.158 156.402 233.948 156.448 233.692C156.521 233.263 156.238 232.852 155.818 232.779L155.79 232.77ZM155.872 233.811C155.672 233.775 155.535 233.574 155.571 233.373C155.608 233.172 155.808 233.035 156.009 233.072C156.21 233.108 156.347 233.309 156.311 233.51C156.274 233.711 156.073 233.848 155.872 233.811Z" fill="#E0B3A8"/>
</g>
<path d="M162.182 238.815C158.383 238.468 157.114 235.646 157.114 235.646C157.543 240.659 161.862 242.156 162.182 238.815Z" fill="#FF7557"/>
<path d="M289.533 363.025H280.685C277.399 363.025 274.568 365.363 273.947 368.586L266.177 402.441C266.15 402.56 266.159 402.679 266.177 402.788H268.35L276.102 368.997C276.522 366.805 278.449 365.217 280.676 365.217H289.524C290.839 365.217 292.053 365.746 292.938 366.705C293.833 367.664 294.272 368.914 294.171 370.22L293.295 402.56C293.295 402.633 293.295 402.715 293.295 402.788H295.468C295.468 402.788 295.468 402.752 295.477 402.724L296.353 370.384C296.499 368.485 295.833 366.604 294.545 365.207C293.249 363.81 291.423 363.016 289.515 363.016L289.533 363.025Z" fill="#182039"/>
<path d="M288.072 363.025H279.225C275.938 363.025 273.107 365.363 272.487 368.586L264.717 402.441C264.689 402.56 264.698 402.679 264.717 402.788H266.89L274.641 368.997C275.061 366.805 276.988 365.217 279.216 365.217H288.063C289.378 365.217 290.592 365.746 291.478 366.705C292.373 367.664 292.811 368.914 292.71 370.22L291.834 402.56C291.834 402.633 291.834 402.715 291.834 402.788H294.007C294.007 402.788 294.016 402.752 294.016 402.724L294.893 370.384C295.039 368.485 294.372 366.604 293.085 365.207C291.788 363.81 289.962 363.016 288.054 363.016L288.072 363.025Z" fill="black"/>
<path d="M274.148 363.025H265.301C262.014 363.025 259.183 365.363 258.562 368.586L250.792 402.441C250.765 402.56 250.774 402.679 250.792 402.788H252.965L260.717 368.997C261.137 366.805 263.064 365.217 265.292 365.217H274.139C275.454 365.217 276.668 365.746 277.554 366.705C278.449 367.664 278.887 368.914 278.786 370.22L277.91 402.56C277.91 402.633 277.91 402.715 277.91 402.788H280.083C280.083 402.788 280.083 402.752 280.092 402.724L280.969 370.384C281.115 368.485 280.448 366.604 279.161 365.207C277.864 363.81 276.038 363.016 274.13 363.016L274.148 363.025Z" fill="#182039"/>
<path d="M272.687 363.025H263.84C260.553 363.025 257.723 365.363 257.102 368.586L249.332 402.441C249.304 402.56 249.313 402.679 249.332 402.788H251.505L259.257 368.997C259.677 366.805 261.603 365.217 263.831 365.217H272.678C273.993 365.217 275.207 365.746 276.093 366.705C276.988 367.664 277.426 368.914 277.326 370.22L276.449 402.56C276.449 402.633 276.449 402.715 276.449 402.788H278.622C278.622 402.788 278.622 402.752 278.631 402.724L279.508 370.384C279.654 368.485 278.987 366.604 277.7 365.207C276.403 363.81 274.577 363.016 272.669 363.016L272.687 363.025Z" fill="black"/>
<path d="M301.695 349.065C301.695 349.065 309.118 351.539 310.825 354.388C312.542 357.246 297.696 389.778 297.696 389.778L287.232 347.348L301.695 349.065Z" fill="#182039"/>
<path d="M292.436 393.649C291.039 397.648 291.295 401.638 291.861 402.779H313.929C313.172 401.008 306.443 397.575 303.402 396.187C300.362 394.79 299.659 392.06 299.659 392.06L292.427 393.649H292.436Z" fill="#F57954"/>
<path d="M258.06 358.131C258.033 358.953 259.649 362.286 266.113 362.286C272.578 362.286 284.566 362.761 284.566 362.761C284.566 362.761 290.848 393.676 291.131 393.777C297.412 394.918 300.645 393.494 300.645 393.494C300.645 393.494 299.12 359.154 298.645 354.297C298.17 349.448 294.363 347.924 294.363 347.924L265.538 348.015C265.538 348.015 257.805 352.361 258.051 358.131H258.06Z" fill="black"/>
<path d="M296.244 322.997L298.974 328.448L289.907 329.051C289.907 329.051 289.369 325.435 289.369 325.307C289.369 325.18 296.253 322.988 296.253 322.988L296.244 322.997Z" fill="#F57954"/>
<path d="M270.879 306.426C259.448 308.672 254.317 315.638 249.998 324.833C250.509 325.344 250.756 325.344 250.756 325.344C250.756 325.344 256.59 341.45 256.59 342.783C256.335 345.449 258.051 358.515 258.051 358.131C262.616 351.722 270.295 347.732 272.066 347.732C273.838 347.732 289.003 335.743 289.003 335.743L289.515 326.987C294.965 326.038 297.065 323.052 297.065 323.052C297.002 322.86 291.131 314.579 287.898 312.443C285.935 311.146 279.964 308.936 279.964 308.936L270.879 306.417V306.426Z" fill="#FFC72C"/>
<g style="mix-blend-mode:multiply">
<path d="M288.501 325.015C288.446 325.015 288.401 324.979 288.382 324.933C288.364 324.878 286.721 319.674 285.844 315.282C285.835 315.218 285.872 315.154 285.935 315.136C285.999 315.127 286.063 315.164 286.082 315.227C286.958 319.61 288.602 324.805 288.611 324.851C288.629 324.915 288.592 324.988 288.529 325.006C288.519 325.006 288.501 325.006 288.492 325.006L288.501 325.015Z" fill="#BFBFBF"/>
</g>
<path d="M250.765 325.344C255.969 328.384 261.676 329.087 261.676 329.087L261.74 335.433C268.396 337.844 276.832 340.948 279.307 341.012C281.781 341.076 277.718 346.654 277.718 346.654C277.718 346.654 256.727 346.846 252.664 345.513C250.062 345.385 249.742 343.614 250.062 342.473C249.24 337.268 250.756 325.344 250.756 325.344H250.765Z" fill="#F57954"/>
<path d="M308.05 323.965H280.019L275.153 344.646H303.183L308.05 323.965Z" fill="#73365A"/>
<path d="M309.264 323.965H281.233L276.367 344.646H304.406L309.264 323.965Z" fill="#4D243C"/>
<path d="M292.245 335.862H290.281C290.281 334.146 291.669 332.758 293.386 332.758H295.349C295.349 334.475 293.961 335.862 292.245 335.862Z" fill="#73365A"/>
<path d="M304.27 344.646H265.456V346.481H304.27V344.646Z" fill="#4D243C"/>
<g style="mix-blend-mode:multiply">
<path d="M264.972 321.527C264.908 321.527 264.863 321.482 264.853 321.427C264.826 321.244 264.808 321.053 264.78 320.852C264.488 318.514 264.032 314.99 260.398 311.931C260.343 311.886 260.343 311.813 260.379 311.758C260.425 311.703 260.498 311.703 260.553 311.74C264.269 314.862 264.726 318.45 265.027 320.815C265.054 321.016 265.073 321.208 265.1 321.39C265.109 321.454 265.063 321.518 264.999 321.527C264.999 321.527 264.99 321.527 264.981 321.527H264.972Z" fill="#BFBFBF"/>
</g>
<g style="mix-blend-mode:multiply">
<path d="M285.059 362.852C285.059 362.852 285.041 362.852 285.032 362.852C284.968 362.852 284.876 362.833 284.822 362.751C284.749 362.651 284.794 362.523 284.858 362.313C284.959 361.993 285.15 361.391 285.114 360.35C285.114 360.286 285.169 360.222 285.232 360.222C285.296 360.222 285.351 360.277 285.36 360.341C285.397 361.418 285.196 362.048 285.096 362.377C285.068 362.459 285.041 362.55 285.032 362.596C285.032 362.596 285.041 362.596 285.05 362.596C285.369 362.623 286.511 361.656 286.776 361.199C286.812 361.144 286.885 361.117 286.94 361.153C286.995 361.19 287.022 361.263 286.986 361.318C286.721 361.774 285.552 362.843 285.059 362.843V362.852Z" fill="#BFBFBF"/>
</g>
<path d="M303.411 396.187C302.681 395.849 302.078 395.438 301.594 395C300.289 395.749 300.051 397.045 300.051 397.392C298.243 400.131 293.651 398.004 291.633 396.89C291.204 399.629 291.45 401.957 291.87 402.779H313.939C313.181 401.008 306.452 397.575 303.411 396.187Z" fill="#182039"/>
<path d="M319.335 346.253H248.181V349.978H319.335V346.253Z" fill="#182039"/>
<path d="M284.821 362.751C284.821 362.751 261.365 359.154 256.782 350.124H253.486L253.842 357.1C254.043 360.98 257.248 364.03 261.137 364.03H284.876L284.821 362.751Z" fill="#4D243C"/>
<g style="mix-blend-mode:screen">
<path d="M268.734 311.173C268.734 311.566 268.414 311.886 268.022 311.886C267.629 311.886 267.309 311.566 267.309 311.173C267.309 310.781 267.629 310.452 268.022 310.452C268.414 310.452 268.734 310.772 268.734 311.173Z" fill="#1A1A1A"/>
</g>
<g style="mix-blend-mode:screen">
<path d="M263.949 311.557C264.343 311.557 264.662 311.238 264.662 310.845C264.662 310.451 264.343 310.133 263.949 310.133C263.556 310.133 263.237 310.451 263.237 310.845C263.237 311.238 263.556 311.557 263.949 311.557Z" fill="#1A1A1A"/>
</g>
<g style="mix-blend-mode:screen">
<path d="M272.77 310.699C273.163 310.699 273.482 310.38 273.482 309.987C273.482 309.593 273.163 309.274 272.77 309.274C272.376 309.274 272.057 309.593 272.057 309.987C272.057 310.38 272.376 310.699 272.77 310.699Z" fill="#1A1A1A"/>
</g>
<g style="mix-blend-mode:screen">
<path d="M271.911 314.634C272.304 314.634 272.623 314.315 272.623 313.922C272.623 313.529 272.304 313.21 271.911 313.21C271.518 313.21 271.199 313.529 271.199 313.922C271.199 314.315 271.518 314.634 271.911 314.634Z" fill="#1A1A1A"/>
</g>
<g style="mix-blend-mode:screen">
<path d="M279.152 312.488C279.152 312.881 278.832 313.201 278.439 313.201C278.047 313.201 277.727 312.881 277.727 312.488C277.727 312.096 278.047 311.767 278.439 311.767C278.832 311.767 279.152 312.087 279.152 312.488Z" fill="#1A1A1A"/>
</g>
<g style="mix-blend-mode:screen">
<path d="M285.452 312.561C285.452 312.954 285.132 313.274 284.73 313.274C284.329 313.274 284.018 312.954 284.018 312.561C284.018 312.169 284.338 311.84 284.73 311.84C285.123 311.84 285.452 312.16 285.452 312.561Z" fill="#1A1A1A"/>
</g>
<g style="mix-blend-mode:screen">
<path d="M277.289 316.789C277.289 317.181 276.969 317.501 276.577 317.501C276.184 317.501 275.855 317.181 275.855 316.789C275.855 316.396 276.175 316.077 276.577 316.077C276.979 316.077 277.289 316.396 277.289 316.789Z" fill="#1A1A1A"/>
</g>
<g style="mix-blend-mode:screen">
<path d="M266.177 326.75C266.177 327.143 265.858 327.462 265.465 327.462C265.073 327.462 264.744 327.143 264.744 326.75C264.744 326.358 265.063 326.029 265.465 326.029C265.867 326.029 266.177 326.348 266.177 326.75Z" fill="#1A1A1A"/>
</g>
<g style="mix-blend-mode:screen">
<path d="M277.499 322.094C277.499 322.486 277.179 322.806 276.778 322.806C276.376 322.806 276.056 322.486 276.056 322.094C276.056 321.701 276.376 321.381 276.778 321.381C277.179 321.381 277.499 321.701 277.499 322.094Z" fill="#1A1A1A"/>
</g>
<g style="mix-blend-mode:screen">
<path d="M269.756 331.133C270.155 331.133 270.478 330.81 270.478 330.411C270.478 330.013 270.155 329.69 269.756 329.69C269.358 329.69 269.035 330.013 269.035 330.411C269.035 330.81 269.358 331.133 269.756 331.133Z" fill="#1A1A1A"/>
</g>
<g style="mix-blend-mode:screen">
<path d="M290.902 317.51C290.902 317.903 290.583 318.231 290.181 318.231C289.779 318.231 289.469 317.912 289.469 317.51C289.469 317.108 289.789 316.798 290.181 316.798C290.574 316.798 290.902 317.117 290.902 317.51Z" fill="#1A1A1A"/>
</g>
<g style="mix-blend-mode:screen">
<path d="M291.121 322.021C291.121 322.413 290.802 322.733 290.4 322.733C289.998 322.733 289.688 322.413 289.688 322.021C289.688 321.628 290.008 321.308 290.4 321.308C290.793 321.308 291.121 321.628 291.121 322.021Z" fill="#1A1A1A"/>
</g>
<g style="mix-blend-mode:screen">
<path d="M284.812 320.231C284.812 320.624 284.493 320.952 284.1 320.952C283.708 320.952 283.379 320.633 283.379 320.231C283.379 319.829 283.698 319.519 284.1 319.519C284.502 319.519 284.812 319.838 284.812 320.231Z" fill="#1A1A1A"/>
</g>
<g style="mix-blend-mode:screen">
<path d="M283.379 316.15C283.379 316.542 283.059 316.862 282.667 316.862C282.274 316.862 281.946 316.542 281.946 316.15C281.946 315.757 282.265 315.438 282.667 315.438C283.069 315.438 283.379 315.757 283.379 316.15Z" fill="#1A1A1A"/>
</g>
<g style="mix-blend-mode:screen">
<path d="M270.98 319.017C270.98 319.409 270.66 319.729 270.259 319.729C269.857 319.729 269.546 319.409 269.546 319.017C269.546 318.624 269.866 318.304 270.259 318.304C270.651 318.304 270.98 318.624 270.98 319.017Z" fill="#1A1A1A"/>
</g>
<g style="mix-blend-mode:screen">
<path d="M267.255 315.428C267.255 315.821 266.935 316.141 266.542 316.141C266.15 316.141 265.83 315.821 265.83 315.428C265.83 315.036 266.15 314.707 266.542 314.707C266.935 314.707 267.255 315.027 267.255 315.428Z" fill="#1A1A1A"/>
</g>
<g style="mix-blend-mode:screen">
<path d="M270.688 323.098C270.688 323.491 270.368 323.819 269.976 323.819C269.583 323.819 269.263 323.5 269.263 323.098C269.263 322.696 269.583 322.386 269.976 322.386C270.368 322.386 270.688 322.705 270.688 323.098Z" fill="#1A1A1A"/>
</g>
<g style="mix-blend-mode:screen">
<path d="M274.486 327.974C274.884 327.974 275.207 327.651 275.207 327.252C275.207 326.854 274.884 326.531 274.486 326.531C274.088 326.531 273.765 326.854 273.765 327.252C273.765 327.651 274.088 327.974 274.486 327.974Z" fill="#1A1A1A"/>
</g>
<g style="mix-blend-mode:screen">
<path d="M266.104 333.278C266.104 333.671 265.785 333.991 265.392 333.991C264.999 333.991 264.671 333.671 264.671 333.278C264.671 332.886 264.99 332.566 265.392 332.566C265.794 332.566 266.104 332.886 266.104 333.278Z" fill="#1A1A1A"/>
</g>
<g style="mix-blend-mode:screen">
<path d="M274.276 336.638C274.669 336.638 274.988 336.319 274.988 335.926C274.988 335.533 274.669 335.214 274.276 335.214C273.883 335.214 273.564 335.533 273.564 335.926C273.564 336.319 273.883 336.638 274.276 336.638Z" fill="#1A1A1A"/>
</g>
<g style="mix-blend-mode:screen">
<path d="M255.714 320.806C255.714 321.199 255.394 321.518 255.002 321.518C254.609 321.518 254.29 321.199 254.29 320.806C254.29 320.413 254.609 320.085 255.002 320.085C255.394 320.085 255.714 320.404 255.714 320.806Z" fill="#1A1A1A"/>
</g>
<g style="mix-blend-mode:screen">
<path d="M260.297 316.862C260.691 316.862 261.01 316.543 261.01 316.15C261.01 315.756 260.691 315.438 260.297 315.438C259.904 315.438 259.585 315.756 259.585 316.15C259.585 316.543 259.904 316.862 260.297 316.862Z" fill="#1A1A1A"/>
</g>
<g style="mix-blend-mode:screen">
<path d="M262.233 323.244C262.233 323.637 261.913 323.956 261.511 323.956C261.11 323.956 260.799 323.637 260.799 323.244C260.799 322.851 261.119 322.523 261.511 322.523C261.904 322.523 262.233 322.842 262.233 323.244Z" fill="#1A1A1A"/>
</g>
<path d="M284.858 294.803C286.356 292.995 286.246 289.27 283.744 289.114C281.233 288.95 275.079 288.201 273.774 290.776C272.961 292.374 272.605 296.82 272.733 298.455C272.87 300.098 275.901 301.678 275.901 301.678L284.858 294.803Z" fill="#182039"/>
<path d="M270.779 306.453C272.76 305.221 273.372 300.19 273.372 300.19L273.664 297.861C274.595 298.884 275.426 297.642 275.472 296.747C275.518 295.853 275.755 293.853 275.755 293.853C275.755 293.853 277.033 294.876 277.499 293.041C278.165 293.597 281.169 295.533 284.858 294.803C284.748 296.291 284.173 298.154 283.635 299.98C282.502 303.833 282.21 306.59 278.668 306.38C278.485 307.138 279.215 308.471 279.38 308.818C275.472 311.128 271.299 306.827 270.77 306.453H270.779Z" fill="#FF8762"/>
<path d="M278.558 300.144C278.43 301.066 277.535 301.705 276.558 301.568C275.581 301.431 274.906 300.564 275.034 299.642C275.161 298.72 276.056 298.08 277.033 298.217C278.01 298.354 278.686 299.222 278.558 300.144Z" fill="#FF7557"/>
<path d="M282.183 298.071C282.073 298.555 282.183 298.993 282.457 299.057C282.731 299.121 283.023 298.783 283.142 298.299C283.251 297.816 283.142 297.377 282.868 297.313C282.594 297.25 282.302 297.587 282.183 298.071Z" fill="#182039"/>
<path d="M278.439 297.313C278.33 297.797 278.439 298.236 278.713 298.3C278.978 298.363 279.279 298.026 279.398 297.542C279.507 297.058 279.398 296.62 279.124 296.556C278.859 296.492 278.558 296.83 278.439 297.313Z" fill="#182039"/>
<g style="mix-blend-mode:multiply">
<path d="M278.695 298.738C278.695 298.738 278.722 298.738 278.732 298.738C278.777 298.738 278.823 298.72 278.832 298.674C278.841 298.628 278.814 298.583 278.768 298.573C278.33 298.491 278.047 298.08 278.12 297.642C278.12 297.597 278.102 297.551 278.056 297.542C278.01 297.542 277.965 297.569 277.955 297.606C277.873 298.117 278.193 298.601 278.704 298.72L278.695 298.738Z" fill="#E0B3A8"/>
</g>
<path d="M281.224 300.628C281.781 300.747 283.096 301.002 283.269 300.929C283.287 300.92 283.315 300.893 283.324 300.865C283.36 300.747 283.205 300.464 282.621 299.459C282.256 298.838 281.799 298.062 281.79 297.88C281.763 297.396 281.918 296.884 282.256 296.327C282.283 296.291 282.265 296.236 282.228 296.209C282.192 296.181 282.137 296.2 282.11 296.236C281.754 296.82 281.589 297.359 281.617 297.889C281.626 298.099 281.964 298.683 282.475 299.541C282.758 300.016 283.096 300.591 283.15 300.774C282.922 300.774 282.046 300.628 281.251 300.464C281.206 300.454 281.16 300.482 281.151 300.527C281.142 300.573 281.169 300.619 281.215 300.628H281.224Z" fill="#182039"/>
<g style="mix-blend-mode:multiply">
<path d="M279.918 303.659C280.165 303.714 280.485 303.76 280.831 303.714C280.877 303.714 280.914 303.668 280.905 303.623C280.895 303.577 280.859 303.54 280.813 303.55C280.101 303.641 279.489 303.34 279.489 303.33C279.444 303.312 279.398 303.33 279.38 303.367C279.361 303.413 279.38 303.458 279.416 303.476C279.435 303.476 279.626 303.586 279.928 303.65L279.918 303.659Z" fill="#E0B3A8"/>
</g>
<path d="M277.791 295.551C277.791 295.551 277.791 295.551 277.8 295.551C277.809 295.551 279.161 295.551 280.375 295.834C280.402 295.834 280.43 295.825 280.439 295.798C280.448 295.77 280.421 295.752 280.402 295.734C279.179 294.51 277.818 295.442 277.8 295.442C277.773 295.442 277.745 295.469 277.745 295.497C277.745 295.524 277.764 295.542 277.791 295.551Z" fill="#182039"/>
<path d="M284.274 296.985C284.274 296.985 284.319 296.985 284.338 296.957C284.347 296.93 284.319 296.912 284.31 296.884C284.201 295.88 283.105 295.834 282.758 296.3C282.74 296.327 282.703 296.3 282.694 296.337C282.694 296.364 282.694 296.391 282.731 296.401C282.74 296.401 283.662 296.674 284.265 296.976C284.265 296.976 284.265 296.976 284.274 296.976V296.985Z" fill="#182039"/>
<path d="M280.448 301.97C280.968 302.089 281.516 302.162 282.064 302.144C282.101 302.144 282.137 302.107 282.137 302.071C282.137 302.034 282.101 301.997 282.064 301.997C280.183 302.071 278.211 300.993 277.964 300.683C277.937 300.646 277.891 300.646 277.864 300.674C277.837 300.701 277.828 300.747 277.855 300.774C278.056 301.03 279.151 301.66 280.457 301.97H280.448Z" fill="#182039"/>
<path d="M274.595 298.756C274.458 299.514 273.737 300.007 272.979 299.87C272.221 299.733 271.728 299.012 271.865 298.254C272.002 297.496 272.724 297.003 273.481 297.14C274.239 297.277 274.732 297.998 274.595 298.756Z" fill="#FF7A52"/>
<g style="mix-blend-mode:multiply">
<path d="M273.408 297.533C273.107 297.478 272.806 297.56 272.577 297.761C272.55 297.779 272.55 297.816 272.577 297.843C272.596 297.871 272.632 297.871 272.66 297.843C272.86 297.661 273.125 297.587 273.39 297.642C273.518 297.67 273.637 297.715 273.746 297.788C273.737 297.788 273.719 297.788 273.71 297.779C273.39 297.724 273.08 297.934 273.025 298.254C272.97 298.574 273.18 298.884 273.5 298.939C273.728 298.984 273.956 298.884 274.084 298.701C274.02 298.957 273.847 299.167 273.609 299.286C273.582 299.295 273.564 299.331 273.582 299.368C273.582 299.386 273.609 299.395 273.627 299.404C273.637 299.404 273.655 299.404 273.664 299.404C273.956 299.267 274.157 299.003 274.221 298.683C274.321 298.144 273.965 297.633 273.427 297.533H273.408ZM273.509 298.838C273.253 298.793 273.08 298.546 273.125 298.281C273.171 298.026 273.417 297.852 273.682 297.898C273.938 297.944 274.111 298.19 274.066 298.455C274.02 298.711 273.774 298.884 273.509 298.838Z" fill="#E0B3A8"/>
</g>
<path d="M368.036 317.82H412.639C418.363 311.502 430.187 298.391 431.21 296.857C432.561 294.83 446.759 250.2 446.759 240.057C446.759 229.913 424.307 164.338 424.307 164.338C392.981 180.645 372.1 294.017 368.027 317.83L368.036 317.82Z" fill="#0EBF1F"/>
<path d="M429.694 89.587C416.51 136.243 424.316 164.329 424.316 164.329L531.124 175.806C534.676 120.521 521.492 33.8 485.481 39.3787C448.457 71.3352 432.223 88.0713 432.223 88.0713L429.685 89.5961L429.694 89.587Z" fill="#182039"/>
<path d="M509.942 162.594C509.942 162.594 475.593 165.296 447.106 160.886L424.317 164.329C421.431 195.555 393.09 229.182 391.648 246.475C390.205 263.768 412.785 289.708 421.915 306.042C424.216 310.151 425.933 314.15 427.22 317.82H530.065C536.374 284.85 548.993 218.874 546.81 198.924C543.925 172.5 509.942 162.594 509.942 162.594Z" fill="#13FF29"/>
<path d="M478.734 126.775C502.089 130.847 515.675 109.117 508.882 92.0065C510.782 56.973 495.844 22.4782 443.426 41.2139C417.35 44.4734 407.306 78.9682 428.763 87.9252C457.277 113.18 478.734 126.766 478.734 126.766V126.775Z" fill="#182039"/>
<path d="M457.825 140.224C459.45 150.003 460.738 159.59 445.618 161.242C429.594 186.525 436.515 207.616 443.764 209.844C462.564 215.614 510.316 167.542 510.17 162.84C510.17 162.028 498.355 159.38 494.073 151.838C489.791 144.306 487.755 125.15 489.389 99.4842C479.41 102.132 475.949 94.1886 475.739 80.5386C475.538 66.8886 469.019 45.0942 442.532 48.5547C432.552 60.7803 427.256 68.5138 428.069 84.4099C428.882 100.306 427.119 111.573 429.019 119.179C430.899 126.702 439.071 140.635 457.807 140.224H457.825Z" fill="#FF8762"/>
<path d="M494.502 113.016C498.995 113.016 502.637 109.373 502.637 104.88C502.637 100.387 498.995 96.7451 494.502 96.7451C490.009 96.7451 486.367 100.387 486.367 104.88C486.367 109.373 490.009 113.016 494.502 113.016Z" fill="#FF8762"/>
<g style="mix-blend-mode:multiply">
<path d="M492.767 109.108C492.566 109.108 492.366 108.989 492.283 108.788C492.165 108.524 492.283 108.204 492.557 108.094C493.251 107.793 493.644 107.355 493.69 106.825C493.735 106.287 493.406 105.684 492.868 105.328C492.283 104.935 491.58 104.908 490.941 105.246C490.777 105.337 490.567 105.328 490.412 105.227C490.247 105.127 490.156 104.944 490.165 104.753C490.256 102.817 491.562 101.237 493.58 100.617C495.671 99.9774 497.798 100.598 498.985 102.214C499.159 102.452 499.113 102.78 498.876 102.954C498.638 103.127 498.31 103.082 498.136 102.844C497.013 101.338 495.15 101.247 493.89 101.63C492.859 101.95 491.745 102.717 491.361 103.986C492.083 103.858 492.822 104.013 493.452 104.433C494.32 105.008 494.831 105.985 494.749 106.907C494.703 107.446 494.411 108.432 492.977 109.053C492.904 109.08 492.84 109.099 492.767 109.099V109.108Z" fill="#E0B3A8"/>
</g>
<g style="mix-blend-mode:multiply">
<path d="M459.45 140.197C459.496 140.197 459.542 140.197 459.596 140.179C473.082 136.344 483.883 125.004 487.125 111.281C487.189 110.998 487.015 110.724 486.741 110.651C486.458 110.587 486.184 110.76 486.111 111.034C482.961 124.392 472.443 135.44 459.313 139.174C459.039 139.256 458.875 139.539 458.957 139.813C459.021 140.042 459.231 140.188 459.459 140.188L459.45 140.197Z" fill="#E0B3A8"/>
</g>
<path d="M472.626 81.6709C472.808 81.6709 472.982 81.5796 473.082 81.4061C473.228 81.1596 473.137 80.84 472.89 80.694C466.106 76.8135 458.017 76.5122 454.693 77.5257C454.42 77.6079 454.264 77.9001 454.346 78.174C454.429 78.4479 454.721 78.6031 454.995 78.5209C457.725 77.6901 465.623 77.7357 472.379 81.5979C472.461 81.6435 472.553 81.6709 472.635 81.6709H472.626Z" fill="#182039"/>
<path d="M430.114 82.2095C430.27 82.2095 430.425 82.1365 430.534 81.9995C430.616 81.8809 432.726 79.1965 439.427 80.0274C439.71 80.0639 439.975 79.863 440.012 79.5709C440.048 79.2878 439.847 79.023 439.564 78.9865C432.397 78.0917 429.968 81.0226 429.713 81.3604C429.539 81.5887 429.585 81.9174 429.813 82.0909C429.904 82.1639 430.014 82.1913 430.123 82.1913L430.114 82.2095Z" fill="#182039"/>
<path d="M442.203 109.911C442.358 109.911 442.504 109.847 442.614 109.71C442.797 109.482 442.76 109.163 442.532 108.98C439.838 106.834 436.834 104.205 436.186 103.292C436.643 103.191 437.647 103.173 438.414 103.164C440.295 103.127 442.422 103.091 443.682 102.379C446.467 100.817 443.783 89.0482 441.327 83.5152C441.208 83.2504 440.907 83.1317 440.642 83.2504C440.377 83.3691 440.258 83.6704 440.377 83.9352C443.235 90.363 444.86 100.525 443.18 101.466C442.148 102.05 440.067 102.086 438.396 102.114C436.296 102.15 435.036 102.178 435.036 103.136C435.036 104.095 438.761 107.3 441.883 109.793C441.975 109.866 442.093 109.902 442.203 109.902V109.911Z" fill="#182039"/>
<path d="M461.185 98.0598C462.93 98.0598 464.344 95.5499 464.344 92.4537C464.344 89.3576 462.93 86.8477 461.185 86.8477C459.441 86.8477 458.026 89.3576 458.026 92.4537C458.026 95.5499 459.441 98.0598 461.185 98.0598Z" fill="#182039"/>
<g style="mix-blend-mode:multiply">
<path d="M461.897 99.959C462.984 99.959 465.376 99.4934 466.152 95.5308C466.18 95.3938 466.088 95.2568 465.951 95.2295C465.814 95.2021 465.677 95.2934 465.65 95.4394C464.892 99.2925 462.6 99.5208 461.651 99.4386C461.505 99.4203 461.377 99.5299 461.368 99.676C461.359 99.8221 461.459 99.9408 461.605 99.959C461.687 99.959 461.788 99.9681 461.906 99.9681L461.897 99.959Z" fill="#E0B3A8"/>
</g>
<path d="M434.123 93.1295C434.123 96.2247 435.538 98.7356 437.282 98.7356C439.026 98.7356 440.441 96.2247 440.441 93.1295C440.441 90.0343 439.026 87.5234 437.282 87.5234C435.538 87.5234 434.123 90.0343 434.123 93.1295Z" fill="#182039"/>
<g style="mix-blend-mode:multiply">
<path d="M438.003 100.635C439.089 100.635 441.482 100.169 442.258 96.2066C442.285 96.0696 442.194 95.9326 442.048 95.9053C441.911 95.8779 441.774 95.9692 441.746 96.1061C440.989 99.9592 438.697 100.187 437.747 100.105C437.601 100.087 437.473 100.197 437.464 100.343C437.455 100.489 437.556 100.607 437.702 100.626C437.784 100.626 437.884 100.635 438.003 100.635Z" fill="#E0B3A8"/>
</g>
<path d="M465.449 104.963C466.691 106.633 467.513 108.122 467.294 108.286C467.074 108.45 465.878 107.236 464.637 105.565C463.395 103.894 462.573 102.406 462.792 102.242C463.02 102.077 464.207 103.292 465.449 104.963Z" fill="#FF7E57"/>
<path d="M462.253 105.373C463.495 107.044 464.317 108.533 464.098 108.697C463.879 108.861 462.682 107.647 461.441 105.976C460.199 104.305 459.377 102.817 459.596 102.653C459.816 102.488 461.012 103.703 462.253 105.373Z" fill="#FF7E57"/>
<path d="M458.72 105.711C459.962 107.382 460.783 108.87 460.564 109.035C460.336 109.199 459.149 107.985 457.907 106.314C456.666 104.643 455.844 103.155 456.063 102.99C456.282 102.826 457.478 104.04 458.72 105.711Z" fill="#FF7E57"/>
<path d="M488.924 116.047C488.924 118.147 490.622 119.845 492.722 119.845C494.822 119.845 496.52 118.147 496.52 116.047C496.52 113.947 494.822 112.249 492.722 112.249C490.622 112.249 488.924 113.947 488.924 116.047Z" fill="white"/>
<g style="mix-blend-mode:multiply">
<path d="M459.651 116.677C447.563 111.537 435.912 111.719 436.917 116.001C436.213 126.401 449.16 137.376 459.651 116.677Z" fill="#E0B3A8"/>
</g>
<g style="mix-blend-mode:multiply">
<path d="M447.362 132.719C446.093 132.719 444.504 132.555 442.888 131.952C442.669 131.87 442.559 131.633 442.641 131.413C442.723 131.194 442.961 131.085 443.18 131.167C446.522 132.409 449.827 131.651 449.854 131.642C450.073 131.587 450.302 131.724 450.356 131.952C450.411 132.171 450.274 132.4 450.046 132.454C449.964 132.473 448.896 132.719 447.362 132.719Z" fill="#E0B3A8"/>
</g>
<path d="M459.651 116.677L436.917 116.001C436.917 126.2 451.781 130.966 459.651 116.677Z" fill="#182039"/>
<path d="M441.116 123.753C444.157 119.416 448.53 117.572 448.53 117.572L455.524 116.549L459.651 116.677C454.392 126.218 446.102 127.159 441.116 123.753Z" fill="#7D2727"/>
<path d="M436.917 115.992L459.651 116.668C454.356 120.338 440.368 121.361 436.917 115.992Z" fill="white"/>
<path d="M442.541 48.5548C444.047 70.6961 474.972 73.9009 480.596 72.6957C486.221 71.4904 471.557 38.8583 442.541 48.5548Z" fill="#182039"/>
<path d="M479.693 104.04C481.911 104.04 485.153 102.689 489.426 97.5121C489.855 97.0008 489.773 96.2339 489.261 95.8139C488.75 95.3939 487.983 95.4578 487.563 95.9782C483.865 100.461 480.459 102.452 478.451 101.32C475.447 99.6304 474.835 90.993 479.473 77.763C479.693 77.133 479.364 76.4482 478.734 76.22C478.095 76.0008 477.419 76.3295 477.2 76.9595C472.507 90.363 472.525 100.744 477.273 103.42C477.857 103.748 478.67 104.04 479.693 104.04Z" fill="#182039"/>
<path d="M457.414 70.3216C461.45 70.3216 465.778 69.2533 470.124 67.0985C470.717 66.8064 470.964 66.0759 470.672 65.4824C470.37 64.8798 469.64 64.6424 469.056 64.9346C460.957 68.9337 453.041 68.8881 447.334 64.7977C442.605 61.4103 440.03 55.5485 440.779 49.8694C440.87 49.212 440.395 48.6003 439.738 48.5181C439.108 48.4359 438.469 48.8924 438.377 49.559C437.501 56.2151 440.395 62.8072 445.919 66.7698C449.224 69.1346 453.15 70.3216 457.405 70.3216H457.414Z" fill="#182039"/>
<path d="M531.124 175.815C512.361 192.724 508.974 207.598 510.334 242.759C511.293 267.639 511.567 300.646 511.649 317.82H562.98C571.435 233.263 558.789 173.87 531.124 175.815Z" fill="#0EBF1F"/>
<path d="M335.505 209.835C337.842 199.326 336.865 190.569 328.301 186.479C319.736 182.389 308.643 172.656 308.643 172.656C305.53 175.185 309.036 183.941 314.286 187.063C293.066 185.502 274.97 169.935 272.048 172.656C269.126 175.376 277.892 182.197 275.938 181.804C263.867 175.961 260.37 180.051 263.283 185.694C257.056 190.168 269.903 199.709 269.903 199.709C260.17 196.787 259.238 200.202 269.318 205.744C276.915 209.926 311.163 214.309 313.309 219.951C315.445 225.594 316.029 225.594 316.029 225.594L338.216 223.256L335.496 209.826L335.505 209.835Z" fill="#FF8762"/>
<path d="M339.093 218.235L313.336 222.526C318.851 260.518 331.798 298.929 338.755 317.82H391.812C369.625 274.606 339.084 218.235 339.084 218.235H339.093Z" fill="#0EBF1F"/>
<g style="mix-blend-mode:multiply">
<path d="M301.101 192.569C301.101 192.569 301.01 192.569 300.964 192.542C300.837 192.496 288.282 188.086 279.353 183.722C279.152 183.621 279.061 183.375 279.161 183.174C279.261 182.973 279.508 182.882 279.709 182.982C288.602 187.319 301.111 191.72 301.238 191.765C301.448 191.839 301.567 192.076 301.494 192.286C301.439 192.459 301.275 192.56 301.111 192.56L301.101 192.569Z" fill="#E0B3A8"/>
</g>
<g style="mix-blend-mode:multiply">
<path d="M297.239 199.326C297.239 199.326 297.166 199.326 297.13 199.307C296.929 199.252 276.778 193.747 266.333 187.566C266.141 187.447 266.077 187.2 266.186 186.999C266.305 186.799 266.552 186.744 266.753 186.853C277.097 192.98 297.139 198.449 297.34 198.504C297.559 198.568 297.686 198.787 297.632 199.006C297.577 199.189 297.413 199.307 297.23 199.307L297.239 199.326Z" fill="#E0B3A8"/>
</g>
<g style="mix-blend-mode:multiply">
<path d="M291.77 204.375C291.77 204.375 291.743 204.375 291.724 204.375C291.67 204.375 286.337 203.809 278.768 201.572C278.549 201.508 278.43 201.28 278.494 201.06C278.558 200.841 278.786 200.723 279.006 200.787C286.502 203.005 291.752 203.553 291.806 203.562C292.035 203.59 292.199 203.79 292.172 204.01C292.153 204.22 291.971 204.375 291.761 204.375H291.77Z" fill="#E0B3A8"/>
</g>
<g style="mix-blend-mode:multiply">
<path d="M303.995 206.84C303.849 206.84 303.712 206.767 303.639 206.639C303.53 206.438 303.594 206.192 303.785 206.082C304.023 205.945 309.711 202.768 323.735 205.598C322.11 203.361 317.81 197.253 315.746 192.432C315.655 192.222 315.746 191.985 315.965 191.893C316.166 191.802 316.413 191.893 316.504 192.112C319.033 198.002 324.977 205.899 325.041 205.982C325.142 206.119 325.151 206.31 325.059 206.447C324.968 206.593 324.795 206.666 324.621 206.63C310.186 203.489 304.26 206.767 304.205 206.794C304.142 206.831 304.068 206.849 304.005 206.849L303.995 206.84Z" fill="#E0B3A8"/>
</g>
<g style="mix-blend-mode:multiply">
<path d="M297.349 202.439C297.349 202.439 297.303 202.439 297.276 202.439C297.047 202.403 296.901 202.183 296.947 201.964C296.965 201.837 297.54 198.814 300.572 194.916C300.709 194.733 300.973 194.706 301.147 194.843C301.329 194.98 301.357 195.244 301.22 195.418C298.326 199.143 297.769 202.074 297.759 202.11C297.723 202.311 297.549 202.448 297.358 202.448L297.349 202.439Z" fill="#E0B3A8"/>
</g>
<g style="mix-blend-mode:multiply" opacity="0.5">
<path d="M165.313 158.878H240.821C244.081 158.878 246.72 161.516 246.72 164.776V215.212L237.918 197.81H165.313C162.053 197.81 159.415 195.171 159.415 191.912V164.776C159.415 161.516 162.053 158.878 165.313 158.878Z" fill="#C291AE"/>
</g>
<path d="M160.383 155.901H235.891C239.151 155.901 241.79 158.54 241.79 161.799V212.236L232.988 194.833H160.383C157.123 194.833 154.484 192.195 154.484 188.935V161.799C154.484 158.54 157.123 155.901 160.383 155.901Z" fill="#13FF29"/>
<path d="M193.125 175.367C193.125 177.969 195.234 180.088 197.845 180.088C200.456 180.088 202.565 177.978 202.565 175.367C202.565 172.756 200.456 170.647 197.845 170.647C195.234 170.647 193.125 172.756 193.125 175.367Z" fill="white"/>
<path d="M169.942 175.367C169.942 177.969 172.052 180.088 174.663 180.088C177.274 180.088 179.383 177.978 179.383 175.367C179.383 172.756 177.274 170.647 174.663 170.647C172.052 170.647 169.942 172.756 169.942 175.367Z" fill="white"/>
<path d="M215.731 175.367C215.731 177.969 217.841 180.088 220.452 180.088C223.063 180.088 225.172 177.978 225.172 175.367C225.172 172.756 223.063 170.647 220.452 170.647C217.841 170.647 215.731 172.756 215.731 175.367Z" fill="white"/>
<path d="M218.142 117.051H115.726C111.307 117.051 107.728 120.63 107.728 125.05V193.455L119.67 169.853H218.142C222.561 169.853 226.14 166.273 226.14 161.854V125.05C226.14 120.63 222.561 117.051 218.142 117.051Z" fill="#C291AE"/>
<path d="M211.349 113.454H108.933C104.514 113.454 100.935 117.033 100.935 121.452V189.857L112.877 166.255H211.349C215.768 166.255 219.347 162.676 219.347 158.257V121.452C219.347 117.033 215.768 113.454 211.349 113.454Z" fill="#994878"/>
<path d="M166.939 139.859C166.939 143.393 164.072 146.26 160.538 146.26C157.005 146.26 154.138 143.393 154.138 139.859C154.138 136.326 157.005 133.459 160.538 133.459C164.072 133.459 166.939 136.326 166.939 139.859Z" fill="white"/>
<path d="M198.375 139.859C198.375 143.393 195.508 146.26 191.974 146.26C188.441 146.26 185.574 143.393 185.574 139.859C185.574 136.326 188.441 133.459 191.974 133.459C195.508 133.459 198.375 136.326 198.375 139.859Z" fill="white"/>
<path d="M136.27 139.859C136.27 143.393 133.403 146.26 129.869 146.26C126.336 146.26 123.469 143.393 123.469 139.859C123.469 136.326 126.336 133.459 129.869 133.459C133.403 133.459 136.27 136.326 136.27 139.859Z" fill="white"/>
</svg>
