<svg width="676" height="421" viewBox="0 0 676 421" fill="none" xmlns="http://www.w3.org/2000/svg">
<path d="M644.923 403.777H30.3037C25.5394 403.777 21.6772 407.631 21.6772 412.384V412.393C21.6772 417.147 25.5394 421 30.3037 421H644.923C649.687 421 653.549 417.147 653.549 412.393V412.384C653.549 407.631 649.687 403.777 644.923 403.777Z" fill="#00545B"/>
<path d="M490.252 117.775C536.369 100.241 570.453 174.889 623.109 92.3193C675.756 9.74933 574.016 1.03275 533.906 45.0268C493.795 89.0209 485.975 51.3221 457.303 74.6942C427.504 98.9801 444.125 135.308 490.252 117.775Z" fill="#99DCE1"/>
<path d="M646.443 295.505C661.049 210.158 592.798 163.331 514.711 159.274C490.407 158.013 442.202 150.192 426.506 130.274C408.31 101.346 414.958 61.3178 390.507 35.0676C356.835 -1.70835 302.769 -0.493147 255.726 1.5261C158.803 6.4326 54.0675 73.5064 41.4667 176.223C38.3532 205.598 48.8203 237.066 73.0603 254.864C131.211 308.516 26.3476 340.623 46.4118 403.786L625.985 403.759C652.029 383.173 661.324 335.086 646.443 295.496V295.505Z" fill="#99DCE1"/>
<path d="M108.106 138.542L76.9248 119.099L100.203 130.118L108.106 138.542Z" fill="#007D88"/>
<path d="M76.9248 119.099L104.443 124.718L120.405 113.288L76.9248 119.099Z" fill="#00A7B5"/>
<path d="M93.793 148.931L100.203 130.118L76.9248 119.099L93.793 148.931Z" fill="#00A7B5"/>
<path d="M108.106 138.542L104.443 124.718L76.9248 119.099L100.203 130.118L108.106 138.542Z" fill="#007D88"/>
<path d="M557.404 53.1221L573.668 20.5034L559.739 41.8563L557.404 53.1221Z" fill="#007D88"/>
<path d="M573.668 20.5034L553.393 39.3893L534.098 37.7538L573.668 20.5034Z" fill="#33B9C4"/>
<path d="M571.909 56.7585L559.739 41.8563L573.667 20.5034L571.909 56.7585Z" fill="#33B9C4"/>
<path d="M557.404 53.1221L553.393 39.3893L573.668 20.5034L559.739 41.8563L557.404 53.1221Z" fill="#007D88"/>
<path d="M117.584 138.433C117.786 138.369 117.95 138.204 117.996 137.994C118.06 137.684 117.859 137.382 117.538 137.318C116.769 137.172 115.972 137.053 115.185 136.962C114.864 136.925 114.571 137.154 114.535 137.464C114.498 137.784 114.727 138.067 115.047 138.104C115.808 138.186 116.568 138.305 117.309 138.451C117.401 138.469 117.502 138.46 117.584 138.442V138.433Z" fill="#007D88"/>
<path d="M124.251 187.808C122.767 188.092 121.201 188.247 119.581 188.256C119.26 188.256 118.994 188 118.994 187.69C118.994 187.37 119.26 187.114 119.581 187.105C121.128 187.096 122.63 186.95 124.04 186.675C124.361 186.612 124.663 186.822 124.727 187.132C124.782 187.425 124.599 187.708 124.315 187.79C124.297 187.79 124.278 187.799 124.26 187.799L124.251 187.808ZM127.987 186.127C127.859 185.835 127.987 185.497 128.289 185.369C129.663 184.766 130.936 184.008 132.09 183.103C132.346 182.902 132.712 182.948 132.914 183.194C133.115 183.441 133.07 183.807 132.813 184.008C131.586 184.967 130.222 185.789 128.756 186.429C128.729 186.438 128.711 186.447 128.683 186.456C128.408 186.538 128.106 186.411 127.987 186.136V186.127ZM155.606 175.885C154.855 174.542 154.077 173.253 153.299 172.047C153.125 171.782 153.207 171.426 153.482 171.252C153.757 171.079 154.114 171.152 154.288 171.426C155.084 172.65 155.872 173.966 156.641 175.327C156.797 175.602 156.696 175.958 156.412 176.113C156.376 176.132 156.33 176.15 156.293 176.159C156.037 176.232 155.753 176.132 155.616 175.885H155.606ZM114.874 187.717C113.179 187.215 111.797 186.356 110.789 185.177C110.579 184.939 110.615 184.574 110.863 184.364C111.11 184.154 111.476 184.19 111.687 184.428C112.557 185.442 113.747 186.173 115.222 186.621C115.533 186.712 115.707 187.032 115.606 187.342C115.542 187.534 115.396 187.671 115.212 187.726C115.102 187.754 114.993 187.763 114.874 187.726V187.717ZM135.304 180.773C135.048 180.581 134.993 180.225 135.194 179.969C136.073 178.827 136.833 177.548 137.456 176.177C137.584 175.885 137.932 175.757 138.225 175.885C138.518 176.013 138.656 176.351 138.518 176.643C137.859 178.096 137.053 179.448 136.119 180.654C136.037 180.755 135.936 180.828 135.817 180.864C135.643 180.919 135.451 180.892 135.304 180.773ZM139.297 172.678C138.985 172.614 138.784 172.303 138.857 171.993C139.187 170.585 139.388 169.114 139.471 167.616C139.489 167.296 139.764 167.049 140.084 167.068C140.405 167.086 140.652 167.351 140.634 167.671C140.551 169.233 140.332 170.777 139.993 172.248C139.947 172.459 139.782 172.623 139.581 172.678C139.489 172.705 139.388 172.714 139.288 172.687L139.297 172.678ZM109.562 181.276C109.242 181.321 108.949 181.102 108.903 180.791C108.701 179.357 108.775 177.785 109.123 176.104C109.187 175.793 109.498 175.583 109.809 175.647C110.13 175.711 110.331 176.013 110.267 176.323C109.947 177.877 109.883 179.32 110.057 180.627C110.093 180.91 109.919 181.184 109.645 181.257C109.617 181.257 109.59 181.276 109.562 181.276ZM150.707 168.402C149.764 167.187 148.775 166.044 147.795 165.021C147.575 164.793 147.584 164.427 147.822 164.208C148.061 163.989 148.427 163.998 148.647 164.226C149.663 165.277 150.67 166.446 151.641 167.698C151.833 167.954 151.788 168.31 151.531 168.502C151.476 168.548 151.403 168.575 151.339 168.603C151.11 168.667 150.863 168.603 150.707 168.402ZM110.872 172.44C110.579 172.312 110.441 171.974 110.569 171.682C111.183 170.302 111.952 168.941 112.831 167.625C113.015 167.36 113.372 167.287 113.646 167.461C113.912 167.634 113.985 167.991 113.811 168.256C112.96 169.516 112.236 170.823 111.641 172.139C111.568 172.303 111.43 172.413 111.265 172.459C111.137 172.495 111 172.495 110.863 172.431L110.872 172.44ZM139.993 163.705C139.672 163.742 139.388 163.514 139.352 163.194C139.196 161.732 138.93 160.27 138.564 158.835C138.482 158.525 138.674 158.214 138.985 158.132C139.297 158.05 139.617 158.232 139.7 158.543C140.084 160.032 140.359 161.549 140.524 163.066C140.551 163.349 140.368 163.605 140.103 163.678C140.066 163.687 140.039 163.696 140.002 163.696L139.993 163.705ZM144.489 162.033C143.28 161.083 142.026 160.27 140.771 159.603C140.487 159.457 140.386 159.1 140.542 158.826C140.698 158.543 141.055 158.443 141.339 158.589C142.648 159.283 143.958 160.133 145.222 161.129C145.469 161.33 145.515 161.686 145.313 161.942C145.231 162.042 145.13 162.106 145.02 162.134C144.846 162.189 144.645 162.152 144.489 162.033ZM115.771 164.802C115.533 164.592 115.524 164.226 115.744 163.989C116.824 162.837 117.987 161.778 119.205 160.855C119.461 160.663 119.828 160.708 120.029 160.955C120.222 161.202 120.176 161.567 119.919 161.759C118.756 162.646 117.639 163.66 116.604 164.765C116.531 164.847 116.439 164.902 116.339 164.93C116.146 164.985 115.936 164.948 115.78 164.802H115.771ZM136.669 157.977C135.231 157.584 133.756 157.383 132.291 157.364C131.971 157.364 131.714 157.099 131.723 156.78C131.723 156.46 131.998 156.204 132.319 156.213C133.885 156.231 135.451 156.451 136.989 156.871C137.3 156.953 137.484 157.273 137.392 157.575C137.337 157.776 137.181 157.922 136.989 157.977C136.888 158.004 136.778 158.013 136.669 157.977ZM122.923 159.146C122.777 158.863 122.896 158.516 123.189 158.369C124.635 157.657 126.11 157.109 127.612 156.743C127.923 156.67 128.244 156.853 128.317 157.163C128.39 157.474 128.198 157.785 127.886 157.858C126.467 158.205 125.075 158.717 123.711 159.393C123.683 159.411 123.646 159.42 123.61 159.429C123.344 159.512 123.051 159.393 122.923 159.137V159.146ZM137.136 154.651C136.559 153.289 135.872 151.965 135.103 150.722C134.938 150.448 135.02 150.101 135.304 149.927C135.579 149.763 135.936 149.845 136.11 150.119C136.907 151.416 137.621 152.787 138.225 154.203C138.354 154.495 138.207 154.833 137.914 154.961C137.896 154.961 137.868 154.98 137.85 154.98C137.566 155.062 137.264 154.925 137.145 154.651H137.136ZM132.484 147.149C131.513 146.026 130.451 144.984 129.315 144.043C129.068 143.842 129.04 143.476 129.251 143.23C129.462 142.983 129.828 142.956 130.075 143.157C131.256 144.134 132.364 145.221 133.381 146.391C133.592 146.629 133.555 146.994 133.308 147.204C133.244 147.259 133.17 147.296 133.097 147.323C132.886 147.387 132.639 147.323 132.484 147.149ZM125.661 141.512C124.379 140.781 123.024 140.151 121.623 139.639C121.32 139.529 121.165 139.2 121.284 138.899C121.403 138.597 121.733 138.451 122.035 138.561C123.5 139.1 124.919 139.758 126.256 140.525C126.531 140.68 126.623 141.037 126.467 141.311C126.385 141.439 126.266 141.53 126.128 141.576C125.982 141.622 125.817 141.603 125.67 141.521L125.661 141.512Z" fill="#007D88"/>
<path d="M159.397 182.345C159.397 182.345 159.452 182.327 159.471 182.318C159.764 182.18 159.901 181.842 159.764 181.55C159.434 180.837 159.104 180.134 158.775 179.458C158.637 179.174 158.289 179.056 157.996 179.193C157.703 179.33 157.584 179.677 157.721 179.96C158.051 180.636 158.372 181.322 158.701 182.034C158.82 182.299 159.123 182.427 159.397 182.345Z" fill="#007D88"/>
<path d="M460.965 133.481C459.564 133.325 458.181 133.079 456.863 132.75C456.588 132.677 456.423 132.402 456.487 132.128C456.56 131.854 456.835 131.69 457.11 131.754C458.392 132.074 459.72 132.311 461.075 132.466C461.359 132.494 461.56 132.75 461.533 133.033C461.506 133.316 461.249 133.517 460.974 133.49L460.965 133.481ZM464.601 133.161C464.601 132.878 464.821 132.649 465.104 132.64C466.423 132.613 467.778 132.512 469.134 132.339C469.418 132.302 469.674 132.503 469.711 132.777C469.747 133.06 469.546 133.316 469.271 133.353C467.879 133.535 466.487 133.645 465.123 133.663C465.104 133.663 465.077 133.663 465.059 133.663C464.802 133.636 464.601 133.426 464.601 133.161ZM472.733 132.211C472.669 131.937 472.833 131.662 473.108 131.598C474.399 131.288 475.709 130.913 477 130.475C477.266 130.383 477.559 130.529 477.65 130.794C477.742 131.059 477.595 131.352 477.33 131.443C476.011 131.891 474.665 132.284 473.346 132.594C473.291 132.604 473.227 132.613 473.172 132.604C472.962 132.585 472.778 132.43 472.724 132.211H472.733ZM480.517 129.671C480.398 129.415 480.517 129.113 480.782 128.994C482.009 128.455 483.236 127.852 484.418 127.204C484.665 127.067 484.976 127.158 485.114 127.405C485.251 127.651 485.16 127.962 484.912 128.099C483.694 128.757 482.449 129.378 481.194 129.926C481.112 129.963 481.02 129.972 480.938 129.972C480.764 129.954 480.599 129.844 480.517 129.671ZM487.751 125.824C487.595 125.586 487.66 125.267 487.898 125.111C489.024 124.371 490.132 123.567 491.194 122.745C491.414 122.571 491.735 122.608 491.918 122.827C492.092 123.046 492.055 123.366 491.835 123.549C490.755 124.399 489.628 125.212 488.475 125.97C488.374 126.034 488.255 126.062 488.145 126.052C487.998 126.034 487.861 125.961 487.769 125.824H487.751ZM494.244 120.835C494.052 120.625 494.061 120.305 494.262 120.113C495.26 119.181 496.213 118.204 497.083 117.208C497.266 116.998 497.595 116.979 497.806 117.162C498.017 117.345 498.035 117.674 497.852 117.884C496.954 118.898 495.984 119.903 494.967 120.853C494.857 120.963 494.711 121 494.564 120.991C494.445 120.981 494.326 120.927 494.244 120.835ZM499.72 114.759C499.491 114.595 499.436 114.275 499.601 114.047C500.398 112.923 501.112 111.771 501.726 110.62C501.863 110.373 502.174 110.282 502.422 110.41C502.669 110.547 502.76 110.858 502.632 111.104C502 112.292 501.259 113.48 500.434 114.631C500.324 114.787 500.141 114.86 499.967 114.841C499.885 114.841 499.802 114.805 499.72 114.75V114.759ZM503.676 107.614C503.411 107.523 503.273 107.221 503.365 106.956C503.566 106.408 503.74 105.86 503.896 105.303C503.713 105.321 503.53 105.348 503.346 105.366C503.063 105.394 502.815 105.193 502.779 104.91C502.751 104.626 502.953 104.38 503.237 104.343C503.548 104.307 503.85 104.279 504.161 104.234C504.253 103.85 504.326 103.466 504.39 103.091C504.436 102.817 504.702 102.625 504.986 102.671C505.26 102.717 505.453 102.982 505.407 103.265C505.361 103.539 505.306 103.813 505.251 104.087C505.911 103.987 506.579 103.868 507.238 103.731C507.513 103.676 507.788 103.859 507.843 104.133C507.898 104.407 507.715 104.681 507.44 104.736C506.616 104.9 505.801 105.038 504.995 105.156C504.812 105.869 504.583 106.582 504.326 107.294C504.244 107.523 504.024 107.651 503.795 107.632C503.759 107.632 503.713 107.623 503.676 107.605V107.614ZM495.041 105.284C494.757 105.248 494.564 104.983 494.601 104.709C494.638 104.425 494.903 104.234 495.178 104.27C496.46 104.444 497.815 104.544 499.198 104.553C499.482 104.553 499.711 104.782 499.711 105.065C499.711 105.348 499.482 105.577 499.198 105.577C498.163 105.577 497.147 105.513 496.158 105.412C495.782 105.376 495.407 105.33 495.041 105.275V105.284ZM490.965 104.407C489.61 104.005 488.301 103.484 487.073 102.881C486.817 102.753 486.716 102.452 486.844 102.196C486.973 101.94 487.275 101.84 487.531 101.968C488.703 102.552 489.958 103.046 491.258 103.429C491.533 103.512 491.68 103.795 491.606 104.069C491.533 104.307 491.304 104.453 491.066 104.435C491.039 104.435 491.002 104.425 490.975 104.416L490.965 104.407ZM510.837 103.411C510.764 103.137 510.92 102.854 511.185 102.781C512.449 102.424 513.749 102.004 515.05 101.529C515.315 101.438 515.608 101.575 515.709 101.84C515.801 102.105 515.663 102.397 515.398 102.497C514.07 102.973 512.751 103.402 511.46 103.768C511.396 103.786 511.332 103.795 511.268 103.786C511.066 103.768 510.883 103.621 510.828 103.42L510.837 103.411ZM483.511 100.67C482.385 99.8204 481.359 98.861 480.443 97.8103C480.26 97.6001 480.279 97.2712 480.489 97.0885C480.7 96.9057 481.029 96.924 481.213 97.1342C482.083 98.1209 483.062 99.0346 484.134 99.8478C484.363 100.021 484.399 100.341 484.235 100.56C484.125 100.707 483.951 100.78 483.777 100.761C483.685 100.752 483.594 100.716 483.52 100.661L483.511 100.67ZM518.585 100.734C518.475 100.469 518.603 100.177 518.869 100.067C520.141 99.5554 521.414 99.0163 522.623 98.4773C522.88 98.3585 523.182 98.4773 523.301 98.7331C523.42 98.9889 523.301 99.2905 523.044 99.4092C521.817 99.9574 520.544 100.497 519.253 101.008C519.171 101.045 519.088 101.054 519.006 101.045C518.823 101.026 518.658 100.908 518.585 100.725V100.734ZM504.674 99.126C504.629 97.792 504.427 96.4763 504.088 95.2063C504.015 94.9322 504.18 94.6489 504.455 94.5758C504.729 94.5027 505.013 94.6672 505.086 94.9413C505.444 96.2844 505.654 97.6824 505.709 99.0894C505.718 99.3727 505.498 99.6102 505.215 99.6194C505.187 99.6194 505.169 99.6194 505.141 99.6194C504.894 99.592 504.693 99.391 504.683 99.126H504.674ZM478.017 94.3839C477.321 93.1322 476.771 91.8256 476.396 90.5099C476.322 90.2358 476.478 89.9526 476.753 89.8795C477.028 89.8064 477.312 89.9617 477.385 90.2358C477.742 91.4784 478.255 92.7119 478.914 93.8997C479.051 94.1464 478.96 94.457 478.713 94.5941C478.621 94.6489 478.511 94.6672 478.41 94.6581C478.246 94.6398 478.099 94.5484 478.017 94.4022V94.3839ZM526.085 97.4448C525.956 97.189 526.066 96.8875 526.323 96.7595C527.559 96.1565 528.777 95.5261 529.94 94.8865C530.187 94.7494 530.499 94.8408 530.636 95.0875C530.773 95.3342 530.682 95.6448 530.435 95.7819C529.253 96.4215 528.026 97.0611 526.771 97.6732C526.68 97.7189 526.588 97.728 526.497 97.7189C526.323 97.7006 526.167 97.6001 526.085 97.4357V97.4448ZM502.632 91.5058C502.028 90.3637 501.295 89.249 500.434 88.18C500.26 87.9607 500.288 87.6409 500.508 87.4582C500.727 87.2846 501.048 87.312 501.231 87.5313C502.128 88.646 502.907 89.8246 503.539 91.0216C503.667 91.2683 503.575 91.5789 503.319 91.716C503.227 91.7617 503.127 91.7799 503.026 91.7708C502.861 91.7525 502.705 91.6612 502.623 91.4967L502.632 91.5058ZM533.292 93.5616C533.145 93.3241 533.218 93.0043 533.466 92.8581C534.638 92.1454 535.792 91.3962 536.881 90.6561C537.11 90.4916 537.431 90.5556 537.596 90.784C537.761 91.0124 537.696 91.3322 537.468 91.4967C536.359 92.2551 535.196 93.0043 534.006 93.7352C533.905 93.7992 533.795 93.8175 533.685 93.8083C533.53 93.7901 533.383 93.7078 533.301 93.5616H533.292ZM475.791 86.3344C475.791 85.9141 475.81 85.5029 475.855 85.0917C475.965 84.0227 476.213 83.0359 476.588 82.1405C476.698 81.8756 477 81.7568 477.257 81.8664C477.522 81.9761 477.641 82.2776 477.531 82.5334C477.192 83.3375 476.973 84.2329 476.872 85.1923C476.835 85.5669 476.817 85.9415 476.817 86.3344C476.817 86.6176 476.588 86.846 476.304 86.846C476.286 86.846 476.268 86.846 476.249 86.846C475.993 86.8186 475.791 86.5993 475.791 86.3344ZM497.66 85.2928C496.716 84.4522 495.663 83.6298 494.491 82.8167L494.784 82.3964L495.132 82.0126C496.295 82.8167 497.376 83.6664 498.356 84.5344C498.566 84.7263 498.585 85.0461 498.392 85.2562C498.282 85.3841 498.117 85.4389 497.962 85.4207C497.861 85.4115 497.751 85.3659 497.669 85.2928H497.66ZM540.077 88.9749C539.903 88.7556 539.94 88.4267 540.169 88.2531C541.259 87.4125 542.303 86.5354 543.292 85.6582C543.502 85.4664 543.823 85.4846 544.015 85.6948C544.208 85.9049 544.189 86.2247 543.979 86.4166C542.98 87.312 541.909 88.1983 540.81 89.0571C540.7 89.1394 540.572 89.1759 540.444 89.1668C540.306 89.1577 540.178 89.0846 540.087 88.9749H540.077ZM479.17 79.4817C479.015 79.2441 479.079 78.9244 479.317 78.769C480.489 77.9924 481.881 77.5812 483.465 77.5355C483.749 77.5355 483.987 77.7457 483.996 78.0289C483.996 78.3122 483.786 78.5497 483.502 78.5589C482.119 78.5954 480.901 78.9518 479.894 79.6188C479.793 79.6827 479.674 79.7101 479.555 79.701C479.409 79.6827 479.271 79.6096 479.18 79.4726L479.17 79.4817ZM491.048 80.706C489.766 80.0299 488.529 79.5091 487.366 79.1528C487.092 79.0705 486.945 78.7873 487.028 78.5132C487.11 78.2391 487.394 78.0929 487.669 78.1751C488.896 78.5497 490.196 79.098 491.533 79.8015C491.78 79.9294 491.881 80.2401 491.744 80.4959C491.643 80.6878 491.442 80.7883 491.24 80.77C491.176 80.77 491.112 80.7426 491.057 80.7152L491.048 80.706ZM546.222 83.5659C546.021 83.374 546.012 83.0451 546.204 82.8441C547.156 81.8573 548.054 80.834 548.878 79.8015C549.052 79.5822 549.382 79.5457 549.601 79.7193C549.821 79.8929 549.858 80.2218 549.684 80.4411C548.841 81.4918 547.916 82.5334 546.946 83.5476C546.836 83.6664 546.671 83.7212 546.524 83.7029C546.414 83.6938 546.305 83.6481 546.222 83.5659ZM551.414 77.2432C551.176 77.0878 551.112 76.7681 551.268 76.5396C552.019 75.3975 552.697 74.228 553.301 73.0493C553.429 72.7935 553.74 72.7021 553.988 72.8301C554.244 72.958 554.336 73.2686 554.208 73.5153C553.594 74.7214 552.889 75.9275 552.12 77.097C552.01 77.2614 551.827 77.3437 551.634 77.3254C551.552 77.3254 551.479 77.2889 551.405 77.2432H551.414ZM555.224 70.0159C554.958 69.9154 554.821 69.623 554.922 69.358C555.398 68.088 555.783 66.7906 556.076 65.5023C556.14 65.2282 556.415 65.0546 556.689 65.1185C556.964 65.1825 557.138 65.4566 557.074 65.7307C556.772 67.0555 556.369 68.3987 555.883 69.7144C555.801 69.9337 555.581 70.0707 555.352 70.0433C555.306 70.0433 555.27 70.025 555.224 70.0159ZM556.689 61.5369C556.845 59.5999 556.735 58.2111 556.653 57.5532C556.616 57.27 556.817 57.0141 557.101 56.9867C557.385 56.9502 557.642 57.1512 557.669 57.4344C557.752 58.1288 557.871 59.5999 557.715 61.6191C557.697 61.9024 557.449 62.1125 557.165 62.0851C557.165 62.0851 557.165 62.0851 557.156 62.0851C556.882 62.0577 556.671 61.811 556.698 61.5369H556.689Z" fill="#007D88"/>
<path d="M394.719 403.777C393.309 403.467 392.412 402.032 392.705 400.561L427.275 228.687C426.02 218.079 431.148 213.858 433.438 212.524L551.378 211.181L545.206 216.618L542.486 228.907L507.623 403.777H394.719Z" fill="#007D88"/>
<path d="M427.274 228.458C426.02 217.851 431.148 213.629 433.437 212.295L551.662 210.925L545.205 216.389L543.145 225.681L540.178 228.449H427.274V228.458Z" fill="#00A7B5"/>
<path d="M626.095 403.786H599.354L557.614 228.303L561.296 232.232L626.095 403.786Z" fill="#007D88"/>
<path d="M581.909 342.679C581.909 342.679 591.314 385.284 586.946 403.786H509.171L543.136 225.809L558.786 225.499L581.9 342.688L581.909 342.679Z" fill="white"/>
<path d="M544.015 228.303H560.416C560.416 228.303 561.689 221.031 561.772 220.501C561.854 219.971 558.713 214.114 558.713 214.114L551.24 213.584L546.735 215.183L543.933 219.349L543.255 220.857L544.024 228.303H544.015Z" fill="#007D88"/>
<path d="M626.095 403.786C626.415 403.786 626.736 403.722 627.056 403.594C628.393 403.046 629.052 401.466 628.521 400.068L563.493 228.687C565.123 222.639 563.796 217.083 559.858 213.684C556.039 210.377 550.609 209.829 546.36 212.305C544.07 213.639 538.951 217.86 540.197 228.468L505.627 400.342C505.334 401.813 506.231 403.256 507.641 403.558C509.052 403.869 510.434 402.927 510.727 401.456L545.389 229.135C545.453 228.824 545.462 228.514 545.416 228.203C544.693 222.83 545.966 218.765 548.896 217.056C551.25 215.685 554.391 216.023 556.534 217.878C559.034 220.044 559.647 223.616 558.264 227.956C558.072 228.559 558.09 229.226 558.31 229.82L623.677 402.087C624.08 403.156 625.06 403.805 626.104 403.805L626.095 403.786Z" fill="#00A7B5"/>
<path d="M557.614 228.303C573.741 277.058 606.268 403.668 606.268 403.668H586.955C587.294 374.594 581.232 352.309 581.232 352.309L579.986 403.604L539.034 403.658C538.017 371.396 544.867 282.449 544.867 282.449C532.971 344.853 532.632 403.357 532.632 403.357C532.632 403.357 516.662 404.07 516.662 403.001C544.189 247.345 545.554 228.194 545.554 228.194L557.614 228.285V228.303Z" fill="#CCEDF0"/>
<path d="M561.176 351.45C561.634 351.45 562.01 351.085 562.046 350.601C562.074 350.144 564.675 304.377 556.259 239.441C556.195 238.948 555.755 238.601 555.279 238.665C554.803 238.729 554.473 239.186 554.537 239.688C562.926 304.432 560.334 350.043 560.307 350.491C560.279 350.994 560.636 351.423 561.122 351.45C561.14 351.45 561.158 351.45 561.176 351.45Z" fill="#00A7B5"/>
<path d="M522.44 244.521L502.385 349.833H456.167L477.238 244.759L522.44 244.521Z" fill="#66CAD3"/>
<path d="M186.119 352.748L189.041 326.781C189.041 325.173 187.731 323.866 186.119 323.866H111.33C101.742 323.866 93.9395 331.651 93.9395 341.217C93.9395 350.783 101.742 358.568 111.33 358.568H186.119C187.731 358.568 189.041 357.262 189.041 355.653C189.041 354.045 187.731 352.739 186.119 352.739V352.748Z" fill="#002A2D"/>
<path d="M281.688 358.568H187.823C178.235 358.568 170.433 350.783 170.433 341.217C170.433 331.651 178.235 323.866 187.823 323.866H281.688C283.3 323.866 284.609 325.173 284.609 326.781C284.609 328.389 283.3 329.696 281.688 329.696H187.823C181.449 329.696 176.275 334.867 176.275 341.217C176.275 347.567 181.458 352.739 187.823 352.739H281.688C283.3 352.739 284.609 354.045 284.609 355.653C284.609 357.262 283.3 358.568 281.688 358.568Z" fill="#00545B"/>
<path d="M281.688 355.663H187.823C179.828 355.663 173.354 349.203 173.354 341.226C173.354 333.25 179.828 326.79 187.823 326.79H281.688C274.069 344.726 281.688 355.663 281.688 355.663Z" fill="#00A7B5"/>
<g style="mix-blend-mode:multiply" opacity="0.5">
<path d="M189.654 334.739C188.894 334.739 188.281 335.351 188.281 336.11C188.281 336.868 188.894 337.48 189.654 337.48H278.648C278.776 336.594 278.931 335.68 279.133 334.748H189.654V334.739Z" fill="#00A7B5"/>
</g>
<g style="mix-blend-mode:multiply" opacity="0.5">
<path d="M278.308 342.377H224.041C223.281 342.377 222.667 342.99 222.667 343.748C222.667 344.506 223.281 345.119 224.041 345.119H278.437C278.354 344.251 278.308 343.346 278.308 342.387V342.377Z" fill="#00A7B5"/>
</g>
<path d="M70.478 359.536C80.3041 381.191 73.674 399.885 70.9359 402.169H190.241L195.726 395.325L191.385 359.609L70.4872 359.536H70.478Z" fill="#00A7B5"/>
<path d="M299.087 359.454V402.617C299.087 402.617 307.961 401.593 312.411 396.577C316.871 391.561 318.41 386.207 318.922 381.584C319.435 376.969 317.155 370.866 314.243 367.449C311.331 364.032 302.549 359.6 299.087 359.454Z" fill="#007D88"/>
<path d="M161.339 358.467H68.811C68.3154 358.467 67.9136 358.868 67.9136 359.363V360.075C67.9136 360.57 68.3154 360.971 68.811 360.971H161.339C161.835 360.971 162.236 360.57 162.236 360.075V359.363C162.236 358.868 161.835 358.467 161.339 358.467Z" fill="#00545B"/>
<path d="M161.339 401.283H68.811C68.3154 401.283 67.9136 401.684 67.9136 402.178V402.891C67.9136 403.385 68.3154 403.786 68.811 403.786H161.339C161.835 403.786 162.236 403.385 162.236 402.891V402.178C162.236 401.684 161.835 401.283 161.339 401.283Z" fill="#00545B"/>
<path d="M297.558 403.786H159.718C159.077 403.786 158.546 403.266 158.546 402.617C158.546 401.968 159.068 401.447 159.718 401.447H297.558C308.757 401.447 317.869 392.356 317.869 381.182C317.869 370.007 308.757 360.916 297.558 360.916H159.718C159.077 360.916 158.546 360.395 158.546 359.747C158.546 359.098 159.068 358.577 159.718 358.577H297.558C310.049 358.577 320.204 368.71 320.204 381.173C320.204 393.635 310.049 403.768 297.558 403.768V403.786Z" fill="#007D88"/>
<g style="mix-blend-mode:multiply" opacity="0.5">
<path d="M251.303 366.599H97.9046C97.2819 366.599 96.769 367.102 96.769 367.732V368.207C96.769 368.829 97.2727 369.34 129.69 369.34L251.953 368.216C252.219 368.216 252.429 367.997 252.429 367.732C252.429 367.111 251.926 366.599 251.294 366.599H251.303Z" fill="#00A7B5"/>
</g>
<g style="mix-blend-mode:multiply" opacity="0.5">
<path d="M183.18 388.491H81.3021C80.761 388.491 80.3223 388.929 80.3223 389.469V390.245C80.3223 390.785 80.761 391.223 81.3021 391.223H183.18C183.721 391.223 184.16 390.785 184.16 390.245V389.469C184.16 388.929 183.721 388.491 183.18 388.491Z" fill="#00A7B5"/>
</g>
<path d="M262.732 323.811H189.279C178.638 323.811 170.011 315.204 170.011 304.587C170.011 293.97 178.638 285.363 189.279 285.363H262.732L261.971 286.359C253.418 297.488 253.739 313.039 262.732 323.811Z" fill="#007D88"/>
<path d="M200.414 323.811H126.961C116.32 323.811 107.694 315.204 107.694 304.587C107.694 293.97 116.32 285.363 126.961 285.363H200.414L199.654 286.359C191.101 297.488 191.421 313.039 200.414 323.811Z" fill="#00545B"/>
<path d="M197.722 289.201H126.842C118.408 289.201 111.54 296.099 111.54 304.587C111.54 313.075 118.408 319.974 126.842 319.974H197.694C192.044 310.535 192.017 298.685 197.722 289.201Z" fill="#00A7B5"/>
<g style="mix-blend-mode:multiply" opacity="0.5">
<path d="M243.693 297.479H132.84C132.249 297.479 131.769 297.958 131.769 298.548V299.416C131.769 300.006 132.249 300.485 132.84 300.485H243.693C244.285 300.485 244.764 300.006 244.764 299.416V298.548C244.764 297.958 244.285 297.479 243.693 297.479Z" fill="#00A7B5"/>
</g>
<path d="M249.92 307.292H177.2C176.608 307.292 176.128 307.771 176.128 308.361V309.229C176.128 309.819 176.608 310.298 177.2 310.298H249.92C250.512 310.298 250.992 309.819 250.992 309.229V308.361C250.992 307.771 250.512 307.292 249.92 307.292Z" fill="#00A7B5"/>
<g style="mix-blend-mode:multiply" opacity="0.5">
<path d="M168.83 307.292H145.652C145.06 307.292 144.581 307.771 144.581 308.361V309.229C144.581 309.819 145.06 310.298 145.652 310.298H168.83C169.422 310.298 169.901 309.819 169.901 309.229V308.361C169.901 307.771 169.422 307.292 168.83 307.292Z" fill="#00A7B5"/>
</g>
<path d="M98.4175 403.786C115.368 323.765 89.4614 282.092 23.939 237.513C-7.45312 324.624 26.6863 383.804 61.6132 403.786H98.4266H98.4175Z" fill="#66CAD3"/>
<g style="mix-blend-mode:multiply">
<path d="M31.4665 258.811C31.8603 258.382 32.4281 258.473 32.7211 259.012C37.831 268.323 43.6003 283.243 49.2139 299.708C50.267 296.117 52.0619 289.265 52.126 284.376C52.126 283.682 52.5472 283.116 53.0417 283.106C53.6278 283.106 53.93 283.664 53.9209 284.358C53.8385 291.056 50.908 300.604 50.2395 302.714C59.0949 329.083 67.4283 358.714 72.0345 375.663C75.1481 371.926 81.6225 353.808 80.7892 341.546C80.7434 340.851 81.1005 340.23 81.595 340.148C82.0987 340.066 82.5291 340.559 82.5749 341.254C83.4907 354.803 76.5858 374.201 72.6756 378.057C74.5529 385.019 75.6793 389.359 75.725 389.56C75.8899 390.209 75.6518 390.94 75.1847 391.187C75.0749 391.25 74.9558 391.278 74.8368 391.269C74.4888 391.26 74.1591 390.949 74.0309 390.465C73.8935 389.935 66.4667 361.208 56.9337 329.942C55.0564 330.911 52.9593 331.249 50.8989 331.176C45.8989 331.011 41.2193 328.663 40.9355 328.517C40.4776 328.279 40.2486 327.566 40.4226 326.909C40.6058 326.26 41.1186 325.913 41.5856 326.15C41.6772 326.196 50.4135 330.554 56.2377 327.649C48.2981 301.8 39.0215 274.655 31.2834 260.566C30.9812 260.018 31.0636 259.232 31.4574 258.793L31.4665 258.811Z" fill="#00A7B5"/>
</g>
<path d="M91.4213 403.786C78.2893 376.074 103.619 350.244 134.398 336.018C141.531 374.959 125.689 397.792 109.553 403.786H91.4213Z" fill="#99DCE1"/>
<g style="mix-blend-mode:multiply">
<path d="M130.616 342.432C130.387 342.24 130.048 342.277 129.855 342.505C126.595 346.406 122.822 352.702 119.114 359.664C118.555 358.111 117.612 355.16 117.676 353.067C117.676 352.775 117.447 352.519 117.154 352.51C116.806 352.501 116.605 352.738 116.595 353.031C116.504 355.9 118.079 360.02 118.436 360.925C112.575 372.063 106.962 384.617 103.848 391.789C102.053 390.145 98.5275 382.314 99.2784 377.079C99.3242 376.786 99.1136 376.512 98.8205 376.467C98.5183 376.421 98.2527 376.631 98.207 376.924C97.3828 382.698 101.137 391.086 103.408 392.794C102.136 395.746 101.375 397.582 101.339 397.664C101.229 397.938 101.357 398.258 101.632 398.368C101.696 398.395 101.769 398.404 101.833 398.404C102.044 398.404 102.245 398.276 102.328 398.066C102.419 397.838 107.465 385.668 113.839 372.446C114.947 372.885 116.202 373.059 117.438 373.059C120.451 373.059 123.308 372.127 123.482 372.063C123.766 371.971 123.912 371.661 123.821 371.387C123.729 371.103 123.427 370.948 123.134 371.049C123.079 371.067 117.74 372.803 114.297 371.478C119.59 360.541 125.725 349.074 130.661 343.163C130.854 342.934 130.817 342.596 130.588 342.404L130.616 342.432Z" fill="#00A7B5"/>
</g>
<path d="M61.6039 403.786C64.9373 361.638 34.1312 351.779 0.376465 348.435C6.4754 387.55 27.0341 403.421 44.2504 403.786H61.6039Z" fill="#CCEDF0"/>
<g style="mix-blend-mode:multiply">
<path d="M6.06349 353.259C6.21917 353.004 6.54884 352.921 6.80525 353.077C11.1734 355.699 16.8053 360.404 22.602 365.759C22.6204 364.114 22.5379 361.007 21.787 359.061C21.6771 358.787 21.8237 358.477 22.0984 358.367C22.4281 358.239 22.6845 358.403 22.7944 358.678C23.82 361.355 23.701 365.759 23.6552 366.736C32.8677 375.334 42.3 385.339 47.6022 391.095C48.7561 388.957 49.4978 380.396 47.0711 375.709C46.9337 375.444 47.0344 375.124 47.3 374.987C47.5656 374.85 47.8952 374.95 48.0234 375.215C50.7066 380.396 49.9282 389.551 48.344 391.908C50.5143 394.275 51.8422 395.764 51.9063 395.828C52.1077 396.047 52.0802 396.395 51.8605 396.586C51.8055 396.632 51.7414 396.669 51.6773 396.696C51.4758 396.769 51.2469 396.714 51.1004 396.541C50.9356 396.358 42.1626 386.518 31.7871 376.12C30.8805 376.906 29.7541 377.472 28.5911 377.883C25.7523 378.87 22.7394 378.925 22.5563 378.925C22.2541 378.925 22.016 378.687 22.0068 378.395C22.0068 378.093 22.2357 377.856 22.5379 377.847C22.5929 377.847 28.2156 377.728 31.027 375.352C22.4189 366.764 12.8492 357.947 6.23748 353.981C5.98107 353.826 5.89865 353.497 6.05433 353.241L6.06349 353.259Z" fill="#00A7B5"/>
</g>
<path d="M577.861 403.786C560.911 323.765 586.817 282.092 652.34 237.513C683.732 324.624 649.593 383.804 614.666 403.786H577.852H577.861Z" fill="#66CAD3"/>
<g style="mix-blend-mode:multiply">
<path d="M644.803 258.811C644.409 258.382 643.842 258.473 643.549 259.012C638.439 268.323 632.669 283.243 627.056 299.708C626.003 296.117 624.208 289.265 624.144 284.376C624.144 283.682 623.722 283.116 623.228 283.106C622.642 283.106 622.34 283.664 622.349 284.358C622.431 291.056 625.362 300.604 626.03 302.714C617.175 329.083 608.841 358.714 604.235 375.663C601.122 371.926 594.647 353.808 595.48 341.546C595.526 340.851 595.169 340.23 594.675 340.148C594.171 340.066 593.741 340.559 593.695 341.254C592.779 354.803 599.684 374.201 603.594 378.057C601.717 385.019 600.59 389.359 600.545 389.56C600.38 390.209 600.618 390.94 601.085 391.187C601.195 391.25 601.314 391.278 601.433 391.269C601.781 391.26 602.111 390.949 602.239 390.465C602.376 389.935 609.803 361.208 619.336 329.942C621.213 330.911 623.31 331.249 625.371 331.176C630.371 331.011 635.05 328.663 635.334 328.517C635.792 328.279 636.021 327.566 635.847 326.909C635.664 326.26 635.151 325.913 634.684 326.15C634.592 326.196 625.856 330.554 620.032 327.649C627.972 301.8 637.248 274.655 644.986 260.566C645.288 260.018 645.206 259.232 644.812 258.793L644.803 258.811Z" fill="#00A7B5"/>
</g>
<path d="M584.858 403.786C597.99 376.074 572.66 350.244 541.882 336.018C534.748 374.959 550.59 397.792 566.726 403.786H584.858Z" fill="#99DCE1"/>
<g style="mix-blend-mode:multiply">
<path d="M545.664 342.432C545.893 342.24 546.232 342.277 546.424 342.505C549.684 346.406 553.457 352.702 557.166 359.664C557.724 358.111 558.668 355.16 558.604 353.067C558.604 352.775 558.833 352.519 559.126 352.51C559.474 352.501 559.675 352.738 559.684 353.031C559.776 355.9 558.201 360.02 557.843 360.925C563.704 372.063 569.318 384.617 572.431 391.789C574.226 390.145 577.752 382.314 577.001 377.079C576.955 376.786 577.166 376.512 577.459 376.467C577.761 376.421 578.027 376.631 578.073 376.924C578.897 382.698 575.142 391.086 572.871 392.794C574.144 395.746 574.904 397.582 574.941 397.664C575.051 397.938 574.922 398.258 574.648 398.368C574.584 398.395 574.51 398.404 574.446 398.404C574.236 398.404 574.034 398.276 573.952 398.066C573.86 397.838 568.805 385.668 562.441 372.446C561.333 372.885 560.078 373.059 558.842 373.059C555.829 373.059 552.972 372.127 552.798 372.063C552.514 371.971 552.367 371.661 552.459 371.387C552.55 371.103 552.853 370.948 553.146 371.049C553.201 371.067 558.539 372.803 561.983 371.478C556.69 360.541 550.554 349.074 545.618 343.163C545.426 342.934 545.462 342.596 545.691 342.404L545.664 342.432Z" fill="#00A7B5"/>
</g>
<path d="M614.675 403.786C611.342 361.638 642.148 351.779 675.902 348.435C669.803 387.55 649.245 403.421 632.028 403.786H614.675Z" fill="#CCEDF0"/>
<g style="mix-blend-mode:multiply">
<path d="M670.216 353.259C670.06 353.004 669.73 352.921 669.474 353.077C665.106 355.699 659.474 360.404 653.677 365.759C653.659 364.114 653.741 361.007 654.492 359.061C654.602 358.787 654.455 358.477 654.181 358.367C653.851 358.239 653.595 358.403 653.485 358.678C652.459 361.355 652.578 365.759 652.624 366.736C643.411 375.334 633.979 385.339 628.677 391.095C627.523 388.957 626.781 380.396 629.208 375.709C629.345 375.444 629.245 375.124 628.979 374.987C628.713 374.85 628.384 374.95 628.256 375.215C625.572 380.396 626.351 389.551 627.935 391.908C625.765 394.275 624.437 395.764 624.373 395.828C624.171 396.047 624.199 396.395 624.419 396.586C624.474 396.632 624.538 396.669 624.602 396.696C624.803 396.769 625.032 396.714 625.179 396.541C625.344 396.358 634.116 386.518 644.492 376.12C645.399 376.906 646.525 377.472 647.688 377.883C650.527 378.87 653.54 378.925 653.723 378.925C654.025 378.925 654.263 378.687 654.272 378.395C654.272 378.093 654.043 377.856 653.741 377.847C653.686 377.847 648.063 377.728 645.252 375.352C653.86 366.764 663.43 357.947 670.042 353.981C670.298 353.826 670.38 353.497 670.225 353.241L670.216 353.259Z" fill="#00A7B5"/>
</g>
<path d="M442.275 247.08C442.275 183.058 347.503 129.47 347.503 129.47H319.792V403.539H399.958H455.159C462.22 403.539 467.192 396.641 464.976 389.962C460.324 375.946 455.297 361.236 445.233 352.958C443.896 320.229 442.275 284.787 442.275 247.089V247.08Z" fill="#3397A0"/>
<path d="M220.259 247.08C220.259 183.058 315.03 129.47 315.03 129.47H342.741V403.539H262.576H215.103C202.2 403.539 193.812 390.044 199.471 378.477C204.279 368.646 210.048 359.509 217.301 353.543C218.638 320.814 220.259 284.787 220.259 247.089V247.08Z" fill="#3397A0"/>
<path d="M365.388 165.314C370.067 164.208 386.954 85.1925 406.029 67.4122C406.029 67.4122 372.695 80.7794 349.353 68.0518C301.66 42.0299 264.059 77.6912 264.059 77.6912L304.462 155.071L365.388 165.323V165.314Z" fill="#3397A0"/>
<path d="M374.033 125.322H290.598C283.765 125.322 278.226 130.846 278.226 137.661C278.226 144.476 283.765 150 290.598 150H374.033C380.865 150 386.404 144.476 386.404 137.661C386.404 130.846 380.865 125.322 374.033 125.322Z" fill="#007D88"/>
<path d="M445.233 352.949H374.921" stroke="#00545B" stroke-width="2.5" stroke-miterlimit="10"/>
<path d="M372.479 285.172C378.421 263.545 365.666 241.206 343.99 235.278C322.314 229.349 299.924 242.075 293.982 263.702C288.04 285.329 300.795 307.668 322.471 313.597C344.148 319.525 366.537 306.799 372.479 285.172Z" fill="#007D88"/>
<path d="M347.732 241.323C347.631 239.734 347.411 238.18 347.137 236.645C342.009 234.781 336.432 233.904 330.635 234.279C308.208 235.713 291.193 255.02 292.631 277.396C292.732 278.986 292.951 280.539 293.226 282.074C298.354 283.938 303.931 284.815 309.728 284.44C332.155 283.006 349.17 263.7 347.732 241.323Z" fill="#33B9C4"/>
<path d="M330.763 294.326C326.45 293.906 322.146 291.731 319.325 289.1L321.898 285.272C324.792 287.775 328.217 289.803 332.329 289.822C337.32 289.84 339.82 287.09 339.838 282.923C339.884 272.023 321.065 274.307 321.111 261.187C321.138 255.202 325.058 250.908 330.928 250.058L330.955 243.26L335.003 243.279L334.975 249.939C339.289 250.424 342.109 252.525 344.527 255.093L341.551 258.382C339.06 255.951 336.981 254.526 333.336 254.517C329.225 254.499 326.587 257.048 326.569 260.949C326.532 270.707 345.351 268.085 345.296 282.549C345.269 288.935 341.212 293.367 334.792 294.217L334.765 301.014L330.717 300.996L330.745 294.335L330.763 294.326Z" fill="white"/>
<path d="M332.311 329.275C363.936 329.275 389.573 303.696 389.573 272.142C389.573 240.589 363.936 215.009 332.311 215.009C300.686 215.009 275.049 240.589 275.049 272.142C275.049 303.696 300.686 329.275 332.311 329.275Z" stroke="#00545B" stroke-width="2.5" stroke-miterlimit="10"/>
<path d="M217.667 344.634L219.975 275.267C219.975 275.267 216.074 231.31 230.286 209.929C244.499 188.54 248.546 183.67 248.546 183.67" stroke="#00545B" stroke-width="2.5" stroke-miterlimit="10"/>
<path d="M150.881 332.72C150.671 332.72 150.46 332.656 150.295 332.528C149.975 332.272 149.975 331.852 150.295 331.596L170.359 315.679L148.519 298.347C148.363 298.228 148.28 298.054 148.28 297.881C148.28 297.707 148.372 297.543 148.519 297.415L170.927 279.634L147.383 260.95C147.062 260.694 147.062 260.273 147.383 260.018C147.703 259.762 148.235 259.762 148.555 260.018L172.685 279.159C172.841 279.278 172.923 279.452 172.923 279.625C172.923 279.799 172.832 279.963 172.685 280.091L150.277 297.872L172.118 315.204C172.273 315.323 172.356 315.497 172.356 315.67C172.356 315.844 172.264 316.008 172.118 316.136L151.467 332.519C151.302 332.647 151.092 332.711 150.881 332.711V332.72Z" fill="#13FF29"/>
<path d="M194.334 332.72C194.554 332.72 194.764 332.656 194.929 332.528C195.259 332.272 195.259 331.852 194.929 331.596L174.489 315.679L196.742 298.347C196.898 298.228 196.989 298.054 196.989 297.881C196.989 297.707 196.898 297.543 196.742 297.415L173.912 279.634L197.905 260.95C198.235 260.694 198.235 260.273 197.905 260.018C197.576 259.762 197.044 259.762 196.715 260.018L172.127 279.159C171.971 279.278 171.879 279.452 171.879 279.625C171.879 279.799 171.971 279.963 172.127 280.091L194.956 297.872L172.704 315.204C172.548 315.323 172.456 315.497 172.456 315.67C172.456 315.844 172.548 316.008 172.704 316.136L193.738 332.519C193.903 332.647 194.123 332.711 194.334 332.711V332.72Z" fill="#13FF29"/>
<path d="M150.881 403.777C150.671 403.777 150.46 403.713 150.295 403.585C149.975 403.338 149.975 402.927 150.295 402.68L170.359 387.111L148.519 370.153C148.363 370.034 148.28 369.87 148.28 369.696C148.28 369.523 148.372 369.358 148.519 369.239L170.927 351.843L147.383 333.569C147.062 333.322 147.062 332.911 147.383 332.665C147.703 332.418 148.235 332.418 148.555 332.665L172.685 351.395C172.841 351.514 172.923 351.678 172.923 351.852C172.923 352.026 172.832 352.19 172.685 352.309L150.277 369.705L172.118 386.663C172.273 386.782 172.356 386.947 172.356 387.12C172.356 387.294 172.264 387.458 172.118 387.577L151.467 403.603C151.302 403.731 151.092 403.795 150.881 403.795V403.777Z" fill="#13FF29"/>
<path d="M194.334 403.777C194.554 403.777 194.764 403.713 194.929 403.585C195.259 403.338 195.259 402.927 194.929 402.68L174.489 387.111L196.742 370.153C196.898 370.034 196.989 369.87 196.989 369.696C196.989 369.523 196.898 369.358 196.742 369.239L173.912 351.843L197.905 333.569C198.235 333.322 198.235 332.911 197.905 332.665C197.576 332.418 197.044 332.418 196.715 332.665L172.127 351.395C171.971 351.514 171.879 351.678 171.879 351.852C171.879 352.026 171.971 352.19 172.127 352.309L194.956 369.705L172.704 386.663C172.548 386.782 172.456 386.947 172.456 387.12C172.456 387.294 172.548 387.458 172.704 387.577L193.738 403.603C193.903 403.731 194.123 403.795 194.334 403.795V403.777Z" fill="#13FF29"/>
<path d="M149.764 300.055C151.382 300.055 152.694 298.885 152.694 297.442C152.694 295.999 151.382 294.829 149.764 294.829C148.146 294.829 146.833 295.999 146.833 297.442C146.833 298.885 148.146 300.055 149.764 300.055Z" fill="#13FF29"/>
<path d="M172.008 282.11C173.626 282.11 174.938 280.94 174.938 279.497C174.938 278.054 173.626 276.884 172.008 276.884C170.389 276.884 169.077 278.054 169.077 279.497C169.077 280.94 170.389 282.11 172.008 282.11Z" fill="#13FF29"/>
<path d="M196.788 300.411C198.406 300.411 199.718 299.241 199.718 297.798C199.718 296.355 198.406 295.185 196.788 295.185C195.169 295.185 193.857 296.355 193.857 297.798C193.857 299.241 195.169 300.411 196.788 300.411Z" fill="#13FF29"/>
<path d="M195.817 335.616C197.436 335.616 198.748 334.446 198.748 333.003C198.748 331.56 197.436 330.39 195.817 330.39C194.199 330.39 192.887 331.56 192.887 333.003C192.887 334.446 194.199 335.616 195.817 335.616Z" fill="#13FF29"/>
<path d="M148.986 335.789C150.604 335.789 151.916 334.619 151.916 333.176C151.916 331.733 150.604 330.563 148.986 330.563C147.367 330.563 146.055 331.733 146.055 333.176C146.055 334.619 147.367 335.789 148.986 335.789Z" fill="#13FF29"/>
<path d="M172.2 318.713C173.818 318.713 175.13 317.543 175.13 316.099C175.13 314.656 173.818 313.486 172.2 313.486C170.582 313.486 169.27 314.656 169.27 316.099C169.27 317.543 170.582 318.713 172.2 318.713Z" fill="#13FF29"/>
<path d="M172.786 354.447C174.404 354.447 175.716 353.277 175.716 351.834C175.716 350.391 174.404 349.221 172.786 349.221C171.167 349.221 169.855 350.391 169.855 351.834C169.855 353.277 171.167 354.447 172.786 354.447Z" fill="#13FF29"/>
<path d="M149.178 372.227C150.796 372.227 152.108 371.057 152.108 369.614C152.108 368.171 150.796 367.001 149.178 367.001C147.56 367.001 146.248 368.171 146.248 369.614C146.248 371.057 147.56 372.227 149.178 372.227Z" fill="#13FF29"/>
<path d="M196.202 372.401C197.82 372.401 199.132 371.231 199.132 369.788C199.132 368.345 197.82 367.175 196.202 367.175C194.583 367.175 193.271 368.345 193.271 369.788C193.271 371.231 194.583 372.401 196.202 372.401Z" fill="#13FF29"/>
<path d="M172.008 389.651C173.626 389.651 174.938 388.481 174.938 387.038C174.938 385.595 173.626 384.425 172.008 384.425C170.389 384.425 169.077 385.595 169.077 387.038C169.077 388.481 170.389 389.651 172.008 389.651Z" fill="#13FF29"/>
<path d="M203.024 256.381H144.498C142.698 256.381 141.238 257.837 141.238 259.634C141.238 261.43 142.698 262.886 144.498 262.886H203.024C204.825 262.886 206.284 261.43 206.284 259.634C206.284 257.837 204.825 256.381 203.024 256.381Z" fill="#0BBF20"/>
<path d="M238.912 138.46C251.761 125.64 251.761 104.854 238.912 92.0331C226.062 79.2127 205.229 79.2127 192.38 92.0331C179.53 104.854 179.53 125.64 192.38 138.46C205.229 151.28 226.062 151.28 238.912 138.46Z" fill="#0BBF20"/>
<path d="M241.234 120.288C244.036 102.374 231.752 85.5858 213.798 82.7902C195.843 79.9945 179.017 92.2504 176.215 110.164C173.413 128.078 185.696 144.867 203.651 147.663C221.605 150.458 238.432 138.202 241.234 120.288Z" fill="#13FF29"/>
<path d="M230.797 119.882C233.472 107.982 225.971 96.1703 214.043 93.5014C202.115 90.8325 190.277 98.3165 187.602 110.218C184.927 122.118 192.428 133.93 204.356 136.599C216.284 139.268 228.122 131.783 230.797 119.882Z" fill="#0BBF20"/>
<path d="M211.779 125.632C209.508 126.245 206.898 125.97 204.947 125.176L205.515 122.736C207.466 123.449 209.609 123.823 211.706 123.038C214.242 122.087 214.993 120.205 214.187 118.085C212.1 112.53 202.969 117.318 200.46 110.639C199.316 107.587 200.479 104.654 203.299 103.092L201.999 99.6288L204.059 98.8613L205.332 102.251C207.621 101.666 209.462 102.187 211.184 103.028L210.305 105.275C208.574 104.517 207.237 104.197 205.378 104.892C203.281 105.677 202.429 107.477 203.18 109.469C205.048 114.44 214.114 109.488 216.88 116.852C218.107 120.105 216.889 123.138 213.794 124.801L215.094 128.264L213.034 129.031L211.761 125.642L211.779 125.632Z" fill="white"/>
<path fill-rule="evenodd" clip-rule="evenodd" d="M184.764 104.965C184.819 106.755 184.636 108.884 183.702 110.374C183.308 111.004 183.702 111.836 184.435 111.973C185.863 112.238 187.805 112.786 189.535 113.919C190.268 114.403 191.239 113.873 191.202 112.996C191.156 111.598 191.33 109.816 192.145 107.934C192.42 107.304 192.017 106.573 191.33 106.472C190.112 106.28 188.327 105.723 186.55 104.142C185.845 103.512 184.728 104.024 184.755 104.974L184.764 104.965Z" fill="white"/>
<path d="M172.786 203.122C172.786 203.122 169.892 242.84 171.202 247.756C171.449 248.67 174.636 251.548 176.009 254.079C176.138 254.389 179.242 255.266 178.775 255.988C178.491 256.144 173.052 256.171 172.438 255.586C171.834 255.001 170.387 253.53 168.757 253.192C168.656 253.211 168.656 255.796 168.656 255.796L166.284 255.833C166.284 255.833 166.019 253.503 165.918 252.799C165.817 252.096 165.02 251.018 165.561 249.94C166.11 248.852 166.696 246.778 166.559 243.781C166.247 239.259 162.749 223.589 161.879 215.969C161.009 208.349 160.899 202.912 160.899 202.912L172.786 203.131V203.122Z" fill="#FF8762"/>
<path d="M176.028 254.106C175.039 254.216 173.958 254.426 173.573 254.261C173.061 254.033 169.709 249.848 166.009 248.807C165.872 249.254 165.716 249.638 165.561 249.93C165.011 251.018 165.808 252.087 165.918 252.79C166.018 253.494 166.284 255.824 166.284 255.824L168.656 255.787C168.656 255.787 168.656 253.201 168.757 253.183C170.377 253.521 171.824 254.983 172.438 255.577C173.042 256.162 178.491 256.134 178.775 255.979C179.233 255.285 176.321 254.435 176.028 254.106Z" fill="#182039"/>
<path d="M178.739 255.605C177.933 255.76 174.59 255.586 173.922 255.504C173.18 255.404 172.621 255.239 171.806 254.316C171.028 253.43 168.409 252.051 165.542 251.621C165.689 252.069 165.881 252.471 165.927 252.791C166.028 253.494 166.293 255.824 166.293 255.824L168.665 255.788C168.665 255.788 168.665 253.202 168.766 253.183C170.387 253.522 171.834 254.983 172.447 255.577C173.052 256.162 178.5 256.135 178.784 255.979C178.867 255.861 178.839 255.733 178.748 255.605H178.739Z" fill="black"/>
<path d="M170.671 203.662C170.671 203.662 158.116 241.47 158.18 246.55C158.189 247.5 160.579 251.064 161.284 253.86C161.33 254.189 164.132 255.806 163.5 256.381C163.189 256.464 157.905 255.157 157.456 254.435C157.008 253.713 155.973 251.941 154.48 251.219C154.379 251.219 153.738 253.723 153.738 253.723L151.431 253.183C151.431 253.183 151.751 250.854 151.824 250.15C151.898 249.446 151.385 248.204 152.182 247.29C152.978 246.376 154.059 244.503 154.654 241.561C155.46 237.093 155.927 221.049 156.944 213.447C157.96 205.845 159.196 200.546 159.196 200.546L170.671 203.662Z" fill="#FF8762"/>
<path d="M161.293 253.887C160.304 253.75 159.205 253.695 158.876 253.439C158.436 253.092 156.211 248.213 152.887 246.303C152.639 246.705 152.392 247.034 152.172 247.29C151.376 248.204 151.888 249.446 151.815 250.15C151.742 250.853 151.421 253.183 151.421 253.183L153.729 253.722C153.729 253.722 154.37 251.21 154.471 251.219C155.964 251.941 157.008 253.713 157.447 254.435C157.896 255.157 163.171 256.454 163.491 256.381C164.105 255.824 161.486 254.28 161.293 253.887Z" fill="#182039"/>
<path d="M163.546 256.007C162.722 255.961 159.526 254.983 158.903 254.728C158.207 254.453 157.703 254.152 157.145 253.056C156.614 252.005 154.407 250.031 151.733 248.917C151.76 249.382 151.852 249.821 151.815 250.141C151.742 250.844 151.421 253.174 151.421 253.174L153.729 253.713C153.729 253.713 154.37 251.201 154.471 251.21C155.964 251.932 157.008 253.704 157.447 254.426C157.896 255.148 163.171 256.445 163.491 256.372C163.601 256.272 163.61 256.144 163.546 255.998V256.007Z" fill="black"/>
<path d="M174.508 163.231C178.684 178.307 173.986 206.814 173.986 206.814C169.187 205.288 157.841 206.165 157.841 206.165C155.881 183.853 154.352 175.365 156.531 170.467C158.711 165.57 159.883 162.82 159.883 162.82L167.218 159.037L174.499 163.231H174.508Z" fill="black"/>
<path d="M164.196 111.105C165.149 111.224 166.119 111.169 167.063 110.986C170.533 110.319 173.967 111.489 173.061 114.869C172.026 118.734 171.861 121.347 173.555 124.829C175.249 128.31 173.555 133.92 168.152 133.92C162.749 133.92 162.429 135.226 158.5 135.61C154.572 135.994 149.883 131.361 153.592 127.341C157.301 123.312 157.246 121.028 157.246 117.492C157.246 114.248 159.269 110.493 164.196 111.123V111.105Z" fill="#182039"/>
<path d="M174.535 162.363L174.508 163.231C168.454 162.527 159.892 162.82 159.892 162.82L160.139 161.541L164.04 160.179L167.145 160.426L174.535 162.354V162.363Z" fill="#182039"/>
<path d="M193.134 146.154C194.444 144.847 195.973 143.979 197.658 143.924C199.352 143.87 200.817 142.947 200.817 142.947C201.202 143.495 201.257 144.363 200.213 144.902C199.178 145.45 197.869 145.66 199.123 146.263C200.378 146.867 205.451 148.063 204.251 148.548C203.052 149.041 202.182 148.931 202.182 149.151C201.092 150.996 199.288 151.709 197.768 151.764C196.239 151.819 192.365 151.27 192.154 151.38C191.935 151.49 193.134 146.154 193.134 146.154Z" fill="#FF8762"/>
<path d="M170.094 135.756C171.54 137.118 173.83 139.895 173.94 140.983C174.05 142.07 173.665 144.19 173.665 144.19L178.848 149.526L193.189 145.77L194.114 151.974C194.114 151.974 177.154 160.682 174.645 159.704C174.535 161.824 174.535 162.372 174.535 162.372C170.231 161.614 160.139 161.559 160.139 161.559C160.954 158.516 157.52 148.393 156.87 142.737C156.22 137.081 158.775 132.723 160.991 131.416C163.198 130.11 169.031 134.413 170.103 135.765L170.094 135.756Z" fill="#FFC72C"/>
<path d="M168.262 113.343C168.317 116.258 164.416 115.819 163.628 116.258C162.841 116.696 162.704 120.424 162.704 120.424C162.127 118.707 160.716 118.871 160.332 119.958C159.947 121.046 160.716 123.111 162.291 122.763C163.189 128.638 160.982 131.416 160.982 131.416C166.513 132.695 170.094 135.765 170.094 135.765C167.117 131.708 166.55 130.347 166.989 127.716C170.039 127.414 171.403 123.366 171.541 121C171.678 118.634 171.788 113.435 168.271 113.352L168.262 113.343Z" fill="#FF8762"/>
<g style="mix-blend-mode:multiply">
<path d="M169.315 123.915C168.894 123.12 166.495 123.677 166.138 123.842C166.825 125.166 168.592 125.495 169.315 123.915Z" fill="#E0B3A8"/>
</g>
<path d="M167.768 124.162C168.299 124.162 168.876 124.098 169.425 123.933C169.462 123.924 169.48 123.888 169.471 123.842C169.462 123.805 169.425 123.787 169.389 123.796C168.024 124.216 166.385 123.933 165.991 123.76C165.955 123.741 165.918 123.76 165.9 123.796C165.881 123.833 165.9 123.869 165.936 123.888C166.193 124.006 166.925 124.162 167.777 124.162H167.768Z" fill="#182039"/>
<g style="mix-blend-mode:multiply">
<path d="M167.841 125.788C168.107 125.788 168.427 125.742 168.738 125.587C168.775 125.569 168.784 125.532 168.775 125.495C168.757 125.459 168.72 125.45 168.683 125.459C167.942 125.806 167.246 125.559 167.182 125.523C167.154 125.505 167.108 125.505 167.081 125.541C167.063 125.569 167.063 125.614 167.099 125.642C167.172 125.696 167.465 125.788 167.841 125.788Z" fill="#E0B3A8"/>
</g>
<g style="mix-blend-mode:multiply">
<path d="M166.568 127.569C166.568 127.569 166.623 127.551 166.632 127.524C166.642 127.487 166.632 127.451 166.587 127.432C164.041 126.519 163.363 124.673 163.143 124.07L163.125 124.024C163.125 124.024 163.07 123.969 163.033 123.979C162.997 123.988 162.979 124.033 162.988 124.07L163.006 124.116C163.235 124.737 163.922 126.628 166.532 127.56C166.532 127.56 166.55 127.56 166.559 127.56L166.568 127.569Z" fill="#E0B3A8"/>
</g>
<g style="mix-blend-mode:multiply">
<path d="M161.761 121.978C161.761 121.978 161.816 121.959 161.825 121.932C161.834 121.895 161.825 121.859 161.779 121.841C161.495 121.749 161.339 121.576 161.33 121.356C161.33 121.146 161.458 120.936 161.651 120.863C161.825 120.79 162.017 120.845 162.173 121.018C162.191 121.037 162.218 121.046 162.246 121.037C162.273 121.037 162.292 121.009 162.292 120.982C162.356 120.571 162.118 120.041 161.751 119.812C161.468 119.629 161.147 119.639 160.845 119.83C160.808 119.849 160.799 119.894 160.827 119.931C160.845 119.968 160.891 119.977 160.927 119.949C161.257 119.739 161.513 119.821 161.678 119.931C161.953 120.114 162.154 120.497 162.164 120.826C161.99 120.689 161.788 120.662 161.596 120.735C161.349 120.836 161.184 121.1 161.193 121.365C161.202 121.64 161.403 121.868 161.742 121.978H161.761Z" fill="#E0B3A8"/>
</g>
<path d="M168.409 122.563C168.766 122.554 169.645 122.252 169.663 122.005C169.663 121.96 169.654 121.878 169.498 121.841C169.315 121.795 168.912 121.375 168.647 120.735C168.409 120.151 168.143 118.99 168.976 117.711C168.995 117.675 168.986 117.638 168.958 117.611C168.931 117.592 168.885 117.601 168.857 117.629C167.987 118.963 168.271 120.178 168.509 120.781C168.775 121.448 169.205 121.914 169.453 121.978C169.508 121.987 169.517 122.005 169.517 122.005C169.489 122.106 168.793 122.417 168.39 122.426C168.354 122.426 168.317 122.462 168.326 122.499C168.326 122.535 168.363 122.563 168.4 122.563H168.409Z" fill="#182039"/>
<path d="M165.497 122.133C166.568 122.133 167.447 121.448 167.447 120.617C167.447 120.58 167.42 120.543 167.374 120.543C167.328 120.543 167.301 120.571 167.301 120.617C167.301 121.375 166.486 121.996 165.488 121.996C164.489 121.996 163.674 121.375 163.674 120.617C163.674 120.58 163.647 120.543 163.601 120.543C163.555 120.543 163.528 120.571 163.528 120.617C163.528 121.457 164.407 122.133 165.478 122.133H165.497Z" fill="#182039"/>
<path d="M170.579 122.042C171.449 122.042 172.164 121.357 172.164 120.525C172.164 120.489 172.136 120.452 172.09 120.452C172.045 120.452 172.017 120.48 172.017 120.525C172.017 121.284 171.367 121.905 170.579 121.905C169.792 121.905 169.142 121.284 169.142 120.525C169.142 120.489 169.114 120.452 169.068 120.452C169.023 120.452 168.995 120.48 168.995 120.525C168.995 121.366 169.7 122.042 170.579 122.042Z" fill="#182039"/>
<path d="M166.87 121.356C166.87 121.356 166.907 121.356 166.925 121.329C167.209 120.982 168.024 120.726 168.628 120.79C168.875 120.817 169.205 120.9 169.361 121.183C169.379 121.219 169.425 121.228 169.452 121.21C169.489 121.192 169.498 121.146 169.48 121.119C169.342 120.854 169.049 120.699 168.637 120.653C167.978 120.589 167.126 120.863 166.815 121.247C166.787 121.274 166.797 121.32 166.824 121.347C166.833 121.356 166.852 121.366 166.87 121.366V121.356Z" fill="#182039"/>
<g style="mix-blend-mode:multiply">
<path d="M172.081 143.011C172.081 143.011 172.118 143.011 172.127 142.993C172.154 142.965 172.154 142.92 172.127 142.892C170.881 141.494 166.174 136.953 166.129 136.898C166.101 136.871 166.055 136.871 166.028 136.898C166 136.926 166 136.972 166.028 136.999C166.074 137.045 170.781 141.586 172.026 142.984C172.044 143.002 172.063 143.011 172.081 143.011Z" fill="#BFBFBF"/>
</g>
<g style="mix-blend-mode:multiply">
<path d="M157.63 136.807C157.63 136.807 157.676 136.798 157.685 136.77C158.931 134.824 161.449 134.413 164.581 135.656C164.618 135.674 164.654 135.656 164.673 135.619C164.691 135.583 164.673 135.546 164.636 135.528C161.431 134.258 158.858 134.687 157.575 136.697C157.557 136.734 157.566 136.77 157.594 136.798C157.603 136.798 157.621 136.807 157.63 136.807Z" fill="#BFBFBF"/>
</g>
<g style="mix-blend-mode:multiply">
<path d="M179.169 152.532C179.169 152.532 179.178 152.532 179.187 152.532C179.224 152.523 179.242 152.486 179.233 152.449C179.105 151.974 179.096 151.307 179.096 150.777C179.096 150.129 179.077 149.864 178.949 149.809C178.912 149.791 178.857 149.791 178.793 149.855C178.454 150.193 178.345 150.841 178.335 150.869C178.335 150.905 178.354 150.942 178.39 150.951C178.427 150.951 178.464 150.933 178.473 150.896C178.473 150.896 178.583 150.257 178.894 149.955C178.894 149.955 178.894 149.955 178.903 149.946C178.949 150.037 178.958 150.448 178.958 150.777C178.958 151.316 178.967 151.993 179.105 152.486C179.105 152.513 179.141 152.541 179.169 152.541V152.532Z" fill="#BFBFBF"/>
</g>
<g style="mix-blend-mode:multiply">
<path d="M174.261 159.274C174.261 159.274 174.306 159.265 174.316 159.247C174.343 159.219 174.334 159.174 174.306 159.146L163.674 151.097C163.674 151.097 163.601 151.079 163.574 151.106C163.546 151.133 163.555 151.179 163.583 151.206L174.215 159.256C174.215 159.256 174.242 159.274 174.261 159.274Z" fill="#BFBFBF"/>
</g>
<g style="mix-blend-mode:multiply">
<path d="M165.268 168.96C165.268 168.96 165.277 168.96 165.286 168.96C169.847 167.927 170.534 165.213 170.305 163.121C170.305 163.085 170.268 163.057 170.231 163.057C170.195 163.057 170.167 163.094 170.167 163.13C170.387 165.168 169.719 167.808 165.259 168.822C165.222 168.822 165.195 168.868 165.204 168.905C165.204 168.941 165.241 168.96 165.268 168.96Z" fill="#BFBFBF"/>
</g>
<g style="mix-blend-mode:multiply">
<path d="M165.918 204.219C165.918 204.219 165.982 204.191 165.991 204.155C166.22 201.597 165.909 195.457 165.533 188.339C165.039 178.782 164.48 167.945 165.167 163.459C165.167 163.423 165.148 163.386 165.112 163.377C165.075 163.377 165.039 163.395 165.029 163.432C164.333 167.936 164.892 178.773 165.396 188.339C165.762 195.447 166.083 201.587 165.854 204.137C165.854 204.173 165.881 204.21 165.918 204.21V204.219Z" fill="#BFBFBF"/>
</g>
<g style="mix-blend-mode:multiply">
<path d="M163.794 226.915C163.794 226.915 163.794 226.915 163.803 226.915C163.839 226.915 163.867 226.878 163.858 226.833C163.839 226.705 161.88 213.639 160.854 206.649C160.854 206.613 160.808 206.585 160.772 206.595C160.735 206.595 160.707 206.631 160.717 206.677C161.742 213.666 163.693 226.732 163.72 226.86C163.72 226.897 163.757 226.915 163.794 226.915Z" fill="#E0B3A8"/>
</g>
<path d="M165.057 119.721C165.057 120.215 165.295 120.608 165.597 120.608C165.9 120.608 166.138 120.205 166.138 119.721C166.138 119.237 165.9 118.835 165.597 118.835C165.295 118.835 165.057 119.237 165.057 119.721Z" fill="#182039"/>
<path d="M169.059 119.757C169.059 120.251 169.297 120.644 169.599 120.644C169.902 120.644 170.14 120.242 170.14 119.757C170.14 119.273 169.902 118.871 169.599 118.871C169.297 118.871 169.059 119.273 169.059 119.757Z" fill="#182039"/>
<path d="M167.008 117.601C165.185 117.327 163.445 117.857 163.445 117.857C164.608 116.149 167.044 116.441 167.008 117.601Z" fill="#182039"/>
<path d="M171.083 117.748C170.497 117.291 169.196 117.528 169.196 117.528C169.398 116.605 170.982 116.962 171.083 117.748Z" fill="#182039"/>
<path d="M546.781 201.459C546.781 202.647 547.257 208.449 544.528 208.449C541.799 208.449 539.418 209.098 538.768 210.642C538.118 212.186 537.523 214.671 538.649 214.964C539.775 215.256 540.371 212.771 540.664 212.058C540.957 211.346 542.385 211.172 542.385 211.172C542.385 211.172 541.021 212.597 540.838 213.84C540.664 215.083 540.6 216.919 541.726 216.563C543.274 217.275 544.876 216.444 544.876 216.444C546.003 216.152 546.424 213.959 549.272 214.251C552.12 214.543 554.437 214.014 554.73 210.459C555.023 206.905 554.73 202.583 554.73 202.583L546.772 201.459H546.781Z" fill="#FF8762"/>
<path d="M499.125 247.591L498.191 253.019C499.317 256.007 498.795 259.789 498.795 259.789L476.524 259.698C478.951 255.212 489.399 254.919 490.507 252.772C491.616 250.625 492.128 244.238 492.128 244.238L499.125 247.582V247.591Z" fill="#FF8762"/>
<path d="M494.097 253.284C494.134 252.507 493.575 249.702 491.561 248.861C491.304 250.387 490.956 251.922 490.517 252.772C489.409 254.919 478.96 255.211 476.533 259.698L498.804 259.789C498.804 259.789 499.326 256.006 498.2 253.019C498.2 253.019 494.171 254.691 494.107 253.284H494.097Z" fill="#182039"/>
<path d="M477.128 258.839C476.899 259.104 476.689 259.387 476.524 259.698L498.795 259.789C498.795 259.789 498.841 259.451 498.878 258.912L477.128 258.848V258.839Z" fill="black"/>
<path d="M492.129 253.85C492.074 253.85 492.028 253.814 492.01 253.768C492.01 253.768 491.68 252.854 491.03 252.562C490.764 252.443 490.471 252.443 490.169 252.571C490.105 252.598 490.032 252.571 490.004 252.498C489.977 252.434 490.004 252.361 490.077 252.333C490.453 252.178 490.81 252.178 491.14 252.324C491.891 252.653 492.239 253.631 492.257 253.677C492.284 253.741 492.248 253.814 492.174 253.841C492.156 253.841 492.138 253.841 492.129 253.841V253.85Z" fill="black"/>
<path d="M490.013 255.312C489.958 255.312 489.912 255.276 489.894 255.23C489.894 255.23 489.564 254.316 488.914 254.024C488.649 253.905 488.356 253.905 488.053 254.033C487.989 254.06 487.916 254.033 487.889 253.96C487.861 253.896 487.889 253.823 487.962 253.795C488.337 253.64 488.694 253.64 489.024 253.786C489.775 254.115 490.123 255.093 490.141 255.139C490.169 255.202 490.132 255.276 490.059 255.303C490.041 255.303 490.022 255.303 490.013 255.303V255.312Z" fill="black"/>
<path d="M486.561 256.281C486.506 256.281 486.46 256.244 486.442 256.199C486.442 256.199 486.112 255.285 485.462 254.993C485.196 254.874 484.903 254.874 484.601 255.002C484.537 255.029 484.464 255.002 484.436 254.929C484.409 254.865 484.436 254.792 484.509 254.764C484.885 254.609 485.242 254.609 485.572 254.755C486.323 255.084 486.671 256.062 486.689 256.107C486.716 256.171 486.68 256.244 486.607 256.272C486.588 256.272 486.57 256.272 486.561 256.272V256.281Z" fill="black"/>
<path d="M513.832 188.074L512.513 192.679C499.235 194.616 480.187 197.576 479.079 204.977C477.962 212.378 488.108 232.497 488.108 232.497L488.731 248.542H500.728L507.898 215.594C507.898 215.594 536.094 216.828 538.576 209.427C541.048 202.026 541.296 193.757 541.296 193.757L525.343 183.643L513.841 188.083L513.832 188.074Z" fill="black"/>
<g style="mix-blend-mode:multiply">
<path d="M488.438 231.675C488.347 231.675 488.282 231.602 488.282 231.511C488.31 230.524 488.887 207.234 491.359 203.132C493.841 198.993 518.154 196.736 519.189 196.635C519.281 196.635 519.354 196.69 519.363 196.781C519.363 196.864 519.308 196.946 519.217 196.955C518.969 196.982 494.033 199.294 491.634 203.296C489.207 207.325 488.612 231.282 488.603 231.52C488.603 231.602 488.53 231.675 488.447 231.675H488.438Z" fill="#E0C9C0"/>
</g>
<g style="mix-blend-mode:multiply">
<path d="M507.678 215.502C507.33 215.502 506.396 214.945 506.002 214.698C505.929 214.653 505.902 214.552 505.957 214.479C506.002 214.406 506.103 214.379 506.176 214.433C506.717 214.772 507.367 215.119 507.605 215.183C507.605 214.973 507.467 214.433 507.358 214.031C507.202 213.419 507.037 212.789 507.037 212.387C507.037 212.295 507.11 212.231 507.193 212.231C507.275 212.231 507.348 212.305 507.348 212.387C507.348 212.743 507.513 213.383 507.66 213.949C507.898 214.872 507.971 215.237 507.861 215.411C507.825 215.466 507.77 215.493 507.715 215.502C507.706 215.502 507.687 215.502 507.678 215.502Z" fill="#E0C9C0"/>
</g>
<g style="mix-blend-mode:multiply">
<path d="M534.052 202.117C534.052 202.117 534.015 202.117 534.006 202.117C533.374 201.907 532.633 201.057 532.193 200.052C531.818 199.175 531.323 197.402 532.303 195.301C532.34 195.219 532.431 195.191 532.514 195.228C532.596 195.264 532.623 195.356 532.587 195.438C531.662 197.43 532.129 199.111 532.486 199.933C532.935 200.975 533.64 201.669 534.107 201.825C534.189 201.852 534.235 201.943 534.208 202.026C534.189 202.09 534.125 202.135 534.061 202.135L534.052 202.117Z" fill="#E0C9C0"/>
</g>
<g style="mix-blend-mode:multiply">
<path d="M497.257 248.204C497.257 248.204 497.248 248.204 497.238 248.204C497.156 248.204 497.092 248.122 497.092 248.03C497.421 244.595 500.37 214.416 502.128 213.593C502.614 213.365 502.879 213.146 502.943 212.917C503.017 212.625 502.76 212.268 502.431 211.821C502.275 211.611 502.092 211.364 501.936 211.099C501.89 211.017 501.881 210.925 501.927 210.834C502.33 210.012 509.079 209.089 519.326 207.782C523.621 207.234 527.339 206.759 529.006 206.421C533.667 205.48 536.799 201.67 536.799 196.946C536.799 196.854 536.872 196.791 536.955 196.791C537.037 196.791 537.11 196.864 537.11 196.946C537.11 201.752 533.805 205.772 529.07 206.722C527.385 207.06 523.667 207.535 519.363 208.084C512.724 208.933 502.724 210.213 502.22 210.944C502.367 211.19 502.531 211.41 502.687 211.62C503.053 212.113 503.365 212.543 503.255 212.981C503.172 213.31 502.852 213.593 502.266 213.858C501.057 214.416 498.694 234.608 497.412 248.039C497.412 248.122 497.339 248.185 497.257 248.185V248.204Z" fill="#E0C9C0"/>
</g>
<path d="M518.008 153.829C511.753 156.04 506.13 164.492 504.629 167.416C503.127 170.339 494.949 174.378 494.949 174.378C494.949 174.378 497.66 178.316 497.742 178.873C501.781 182.035 505.737 187.562 514.601 183.926C523.466 180.289 518.008 153.838 518.008 153.838V153.829Z" fill="#E5A810"/>
<path d="M523.832 152.806C523.237 152.65 518.017 153.829 518.017 153.829C511.607 159.046 512.477 173.254 512.953 178.626C513.429 183.999 509.784 190.157 509.784 190.157C521.497 201.843 541.451 204.054 541.451 204.054C544.775 196.626 548.1 161.723 546.515 159.037C544.931 156.351 533.933 152.796 533.933 152.796H523.841L523.832 152.806Z" fill="#FFC72C"/>
<path d="M522.678 138.671C521.314 137.784 522.44 135.948 522.266 135.884C520.545 134.047 523.933 131.325 524.757 131.325C525.581 131.325 525.114 132.449 526.186 132.037C527.257 131.626 532.184 131.151 532.596 134.349C534.675 134.705 533.035 142.335 533.035 142.335C533.035 142.335 529.153 143.888 528.86 143.769C528.566 143.65 522.687 138.671 522.687 138.671H522.678Z" fill="#182039"/>
<path d="M531.9 135.19L529.922 136.688C530.48 137.127 530.435 137.995 530.398 138.817C530.361 139.639 530.636 140.672 531.863 140.553C532.532 141.695 532.184 144.893 532.184 144.893L533.924 152.787C532.339 155.748 524.619 157.84 523.832 152.787C525.334 151.408 525.141 149.114 525.141 149.114C521.973 148.21 521.9 139.045 522.724 136.204C523.988 136.99 525.929 136.167 526.643 135.729C527.358 135.29 528.777 136.633 529.537 136.359C530.288 136.085 531.909 135.171 531.909 135.171L531.9 135.19Z" fill="#FF8762"/>
<path d="M530.645 143.888C530.526 144.719 529.72 145.295 528.85 145.167C527.98 145.039 527.367 144.271 527.477 143.44C527.596 142.609 528.401 142.033 529.271 142.161C530.141 142.289 530.755 143.056 530.645 143.888Z" fill="#FF7557"/>
<path d="M524.959 144.171C523.438 144.135 523.383 144.053 523.356 144.025C523.31 143.961 523.301 143.952 524.024 142.773C524.4 142.17 524.958 141.266 524.968 141.138C524.968 140.955 524.83 140.389 524.73 139.968C524.693 139.822 524.656 139.685 524.638 139.576C524.629 139.539 524.656 139.493 524.693 139.484C524.73 139.475 524.775 139.502 524.785 139.539C524.812 139.649 524.839 139.786 524.876 139.932C524.995 140.398 525.123 140.937 525.123 141.138C525.123 141.293 524.757 141.887 524.162 142.856C523.896 143.285 523.594 143.769 523.521 143.934C523.713 143.97 524.372 144.007 524.977 144.025C525.023 144.025 525.05 144.062 525.05 144.107C525.05 144.144 525.013 144.181 524.977 144.181L524.959 144.171Z" fill="#182039"/>
<path d="M522.55 139.621C522.55 139.621 522.467 139.603 522.431 139.566C522.376 139.502 522.385 139.411 522.449 139.356C523.044 138.863 524.235 138.981 524.4 139.054C524.473 139.091 524.51 139.182 524.473 139.255C524.436 139.329 524.345 139.365 524.272 139.329C524.125 139.274 523.09 139.21 522.632 139.584C522.605 139.612 522.568 139.621 522.532 139.621H522.55Z" fill="#182039"/>
<path d="M529.354 139.548C529.354 139.548 529.299 139.548 529.272 139.52C528.823 139.237 527.916 139.018 526.826 139.328C526.744 139.356 526.662 139.301 526.634 139.228C526.607 139.146 526.662 139.063 526.735 139.036C527.916 138.698 528.905 138.926 529.427 139.264C529.5 139.31 529.519 139.401 529.473 139.475C529.446 139.52 529.391 139.548 529.345 139.548H529.354Z" fill="#182039"/>
<path d="M525.498 145.514C524.912 145.514 524.317 145.441 523.832 145.249C523.795 145.231 523.777 145.185 523.786 145.149C523.804 145.112 523.85 145.094 523.887 145.103C525.187 145.633 527.44 145.194 527.779 145.012C527.815 144.993 527.861 145.012 527.879 145.039C527.898 145.076 527.879 145.121 527.852 145.14C527.623 145.268 526.57 145.505 525.489 145.505L525.498 145.514Z" fill="#182039"/>
<g style="mix-blend-mode:multiply">
<path d="M525.425 146.638C525.141 146.638 524.83 146.611 524.619 146.501C524.583 146.483 524.565 146.437 524.583 146.401C524.601 146.364 524.647 146.346 524.684 146.364C525.114 146.583 526.094 146.437 526.103 146.437C526.149 146.437 526.185 146.455 526.185 146.501C526.185 146.547 526.167 146.583 526.121 146.583C526.094 146.583 525.773 146.638 525.416 146.638H525.425Z" fill="#E0B3A8"/>
</g>
<path d="M528.347 141.11C528.347 141.531 528.145 141.869 527.898 141.869C527.651 141.869 527.449 141.531 527.449 141.11C527.449 140.69 527.651 140.352 527.898 140.352C528.145 140.352 528.347 140.69 528.347 141.11Z" fill="#182039"/>
<g style="mix-blend-mode:multiply">
<path d="M527.907 142.207C527.907 142.207 527.834 142.179 527.834 142.134C527.834 142.088 527.861 142.051 527.907 142.051C528.228 142.024 528.42 141.732 528.466 141.549C528.475 141.512 528.521 141.485 528.557 141.494C528.594 141.503 528.622 141.549 528.612 141.585C528.539 141.869 528.283 142.17 527.926 142.207H527.907Z" fill="#E0B3A8"/>
</g>
<path d="M524.134 141.211C524.134 141.631 523.933 141.969 523.686 141.969C523.438 141.969 523.237 141.631 523.237 141.211C523.237 140.791 523.438 140.453 523.686 140.453C523.933 140.453 524.134 140.791 524.134 141.211Z" fill="#182039"/>
<g style="mix-blend-mode:multiply">
<path d="M523.685 142.307C523.685 142.307 523.612 142.28 523.612 142.234C523.612 142.188 523.64 142.152 523.685 142.152C524.006 142.124 524.198 141.832 524.244 141.649C524.253 141.613 524.299 141.585 524.335 141.595C524.372 141.604 524.4 141.649 524.39 141.686C524.317 141.969 524.061 142.271 523.704 142.307H523.685Z" fill="#E0B3A8"/>
</g>
<path d="M523.118 143.166H521.826C521.488 143.166 521.213 142.828 521.213 142.417V141.649C521.213 141.649 521.25 141.576 521.286 141.576C521.323 141.576 521.359 141.613 521.359 141.649V142.417C521.359 142.746 521.561 143.011 521.817 143.011H523.109C523.365 143.011 523.566 142.746 523.566 142.417V141.649C523.566 141.649 523.603 141.576 523.64 141.576C523.676 141.576 523.713 141.613 523.713 141.649V142.417C523.713 142.828 523.438 143.166 523.099 143.166H523.118Z" fill="#182039"/>
<path d="M527.651 143.166H525.947C525.517 143.166 525.16 142.828 525.16 142.417V141.649C525.16 141.649 525.197 141.576 525.233 141.576C525.27 141.576 525.306 141.613 525.306 141.649V142.417C525.306 142.746 525.59 143.011 525.938 143.011H527.642C527.99 143.011 528.274 142.746 528.274 142.417V141.649C528.274 141.649 528.31 141.576 528.347 141.576C528.383 141.576 528.42 141.613 528.42 141.649V142.417C528.42 142.828 528.072 143.166 527.632 143.166H527.651Z" fill="#182039"/>
<path d="M525.242 142.499C525.242 142.499 525.205 142.499 525.187 142.471C524.995 142.27 524.656 142.143 524.326 142.152C524.061 142.152 523.832 142.252 523.685 142.417C523.658 142.444 523.612 142.453 523.575 142.417C523.548 142.389 523.539 142.344 523.575 142.307C523.749 142.106 524.015 141.996 524.326 141.987C524.702 141.978 525.077 142.124 525.297 142.353C525.325 142.38 525.325 142.435 525.297 142.462C525.279 142.481 525.26 142.481 525.242 142.481V142.499Z" fill="#182039"/>
<path d="M528.383 142.389C528.383 142.389 528.31 142.362 528.31 142.325C528.31 142.28 528.338 142.243 528.374 142.243L532.468 141.832C532.468 141.832 532.55 141.859 532.55 141.896C532.55 141.942 532.523 141.978 532.486 141.978L528.393 142.389H528.383Z" fill="#182039"/>
<path d="M545.059 157.621C541.534 160.343 537.403 166.273 540.728 177.521C544.052 188.777 543.814 207.727 543.814 207.727L555.929 208.202C558.301 190.431 556.167 163.614 545.068 157.621H545.059Z" fill="#E5A810"/>
<g style="mix-blend-mode:multiply">
<path d="M542.898 210.962C542.852 210.962 542.807 210.934 542.788 210.889C542.77 210.834 542.788 210.761 542.852 210.742L544.904 210.002C544.959 209.984 545.032 210.002 545.05 210.066C545.068 210.121 545.05 210.194 544.986 210.212L542.935 210.953C542.935 210.953 542.907 210.953 542.898 210.953V210.962Z" fill="#E0C9C0"/>
</g>
<g style="mix-blend-mode:multiply">
<path d="M541.882 216.289C541.882 216.289 541.854 216.289 541.845 216.289C541.781 216.27 541.753 216.206 541.772 216.142C541.808 216.033 542.669 213.456 543.063 212.944C543.457 212.433 545.737 211.61 545.993 211.51C546.048 211.492 546.121 211.519 546.14 211.583C546.158 211.638 546.131 211.711 546.067 211.729C545.38 211.976 543.539 212.689 543.237 213.081C542.871 213.566 541.991 216.188 541.982 216.215C541.964 216.261 541.918 216.298 541.872 216.298L541.882 216.289Z" fill="#E0C9C0"/>
</g>
<g style="mix-blend-mode:multiply">
<path d="M543.548 215.878C543.548 215.878 543.521 215.878 543.503 215.878C543.448 215.85 543.42 215.786 543.439 215.731C543.796 214.891 544.895 213.621 546.048 213.411C546.112 213.401 546.167 213.438 546.177 213.502C546.186 213.566 546.149 213.621 546.085 213.63C545.032 213.822 543.97 215.046 543.649 215.814C543.631 215.859 543.585 215.887 543.548 215.887V215.878Z" fill="#E0C9C0"/>
</g>
<path d="M488.227 172.998H517.303L522.348 194.397H493.273L488.227 172.998Z" fill="#007D88"/>
<path d="M486.964 172.998H516.039L521.085 194.397H492.009L486.964 172.998Z" fill="#00545B"/>
<path d="M504.546 185.306H506.662V185.232C506.662 183.496 505.251 182.089 503.511 182.089H501.396V182.162C501.396 183.898 502.806 185.306 504.546 185.306Z" fill="#007D88"/>
<path d="M492.147 196.288H532.403V194.388H492.147V196.288Z" fill="#00545B"/>
<path d="M487.165 187.434C484.372 185.424 483.245 178.489 487.879 177.009C488.053 177.247 488.291 179.019 488.291 179.019C488.291 179.019 495.242 179.668 495.535 181.806C496.606 182.93 495.416 184.173 495.416 184.173C495.535 185.415 492.504 186.183 492.504 186.183C492.504 186.183 494.344 185.826 494.28 186.713C494.225 187.599 489.235 188.312 487.156 187.425L487.165 187.434Z" fill="#FF8762"/>
<g style="mix-blend-mode:multiply">
<path d="M493.346 182.446C491.78 182.446 489.39 182.291 487.788 181.432C487.751 181.413 487.733 181.368 487.76 181.331C487.778 181.295 487.824 181.276 487.861 181.304C490.361 182.638 494.866 182.245 494.912 182.245C494.958 182.245 494.995 182.272 494.995 182.309C494.995 182.354 494.967 182.391 494.93 182.391C494.912 182.391 494.28 182.446 493.355 182.446H493.346Z" fill="#E0B3A8"/>
</g>
<g style="mix-blend-mode:multiply">
<path d="M489.683 185.077H489.656C489.61 185.077 489.583 185.041 489.583 185.004C489.583 184.958 489.61 184.931 489.656 184.931C489.683 184.931 492.348 184.949 495.095 184.136C495.132 184.127 495.178 184.145 495.187 184.191C495.196 184.227 495.178 184.273 495.132 184.282C492.504 185.059 489.958 185.086 489.674 185.086L489.683 185.077Z" fill="#E0B3A8"/>
</g>
<g style="mix-blend-mode:multiply">
<path d="M490.782 186.484C490.636 186.484 490.553 186.484 490.544 186.484C490.498 186.484 490.471 186.447 490.471 186.402C490.471 186.356 490.507 186.329 490.553 186.329C490.553 186.329 491.295 186.384 492.22 186.155C492.256 186.146 492.302 186.173 492.311 186.21C492.321 186.246 492.293 186.292 492.256 186.301C491.615 186.457 491.075 186.484 490.782 186.484Z" fill="#E0B3A8"/>
</g>
<path d="M531.863 143.312C531.982 143.988 532.633 144.436 533.31 144.317C533.988 144.199 534.437 143.55 534.318 142.874C534.199 142.198 533.548 141.75 532.871 141.869C532.193 141.987 531.744 142.636 531.863 143.312Z" fill="#FF7A52"/>
<g style="mix-blend-mode:multiply">
<path d="M532.211 143.248C532.266 143.531 532.449 143.769 532.706 143.897C532.715 143.897 532.724 143.897 532.733 143.897C532.752 143.897 532.761 143.888 532.77 143.87C532.779 143.842 532.77 143.815 532.742 143.796C532.532 143.696 532.376 143.504 532.312 143.276C532.431 143.44 532.632 143.522 532.834 143.486C533.127 143.431 533.319 143.157 533.264 142.864C533.209 142.572 532.935 142.38 532.642 142.435C532.632 142.435 532.623 142.435 532.605 142.444C532.697 142.38 532.806 142.335 532.925 142.307C533.164 142.261 533.402 142.335 533.585 142.49C533.603 142.508 533.64 142.508 533.658 142.49C533.676 142.472 533.676 142.435 533.658 142.417C533.457 142.234 533.182 142.161 532.907 142.207C532.422 142.298 532.101 142.755 532.193 143.239L532.211 143.248ZM532.339 143.047C532.294 142.819 532.449 142.59 532.687 142.554C532.916 142.508 533.145 142.663 533.182 142.901C533.228 143.129 533.072 143.358 532.834 143.394C532.605 143.44 532.376 143.285 532.339 143.047Z" fill="#E0B3A8"/>
</g>
<path d="M525.719 149.041C530.013 148.648 531.442 145.469 531.442 145.469C530.957 151.115 526.076 152.806 525.719 149.041Z" fill="#FF7557"/>
</svg>
